<?xml version="1.0" standalone="no"?>
<!DOCTYPE svg PUBLIC "-//W3C//DTD SVG 1.1//EN" "http://www.w3.org/Graphics/SVG/1.1/DTD/svg11.dtd" >
<svg>
<metadata>
Created by FontForge 20090914 at Tue Jul 17 14:35:22 2018
 By www-data
Copyright (c) 2010-2011 by tyPoland Lukasz Dziedzic with Reserved Font Name "Lato". Licensed under the SIL Open Font License, Version 1.1.
</metadata>
<defs>
<font id="Lato-BlackItalic" horiz-adv-x="1160" >
  <font-face 
    font-family="Lato Black"
    font-weight="900"
    font-style="italic"
    font-stretch="normal"
    units-per-em="2000"
    panose-1="2 15 10 2 2 2 4 3 2 3"
    ascent="1610"
    descent="-390"
    x-height="1037"
    cap-height="1457"
    bbox="-208.001 -500 2144.01 1904"
    underline-thickness="186"
    underline-position="-14"
    slope="-7"
    unicode-range="U+000D-U+FB02"
  />
<missing-glyph horiz-adv-x="1123" 
d="M230 1152c41.333 32 87.998 58.499 139.998 79.499s113 31.5 183 31.5c52 0 97.833 -6.66699 137.5 -20s73.167 -32 100.5 -56s48 -53 62 -87s21 -71.667 21 -113c0 -36.667 -4.33301 -68.334 -13 -95.001s-19.5 -49.667 -32.5 -69s-27.333 -36 -43 -50l-45.5 -39
c-14.667 -12 -27.667 -23.667 -39 -35s-19 -24 -23 -38l-27 -90h-212l-22 112c-2 10.667 -3 21 -3 31c0 20.667 4.33301 38.667 13 54s19.334 29.333 32.001 42s26.5 24.334 41.5 35.001s28.833 22 41.5 34s23.334 25 32.001 39s13 30.667 13 50
c0 15.333 -4.33301 28.166 -13 38.499s-25 15.5 -49 15.5c-21.333 0 -39 -1.66699 -53 -5s-26.167 -7.16602 -36.5 -11.499s-20 -8.16602 -29 -11.499s-19.5 -5 -31.5 -5c-28.667 0 -49.667 12 -63 36zM373.998 330.999c0 22 4 42.5 12 61.5s19.333 35.5 34 49.5
s31.667 25 51 33s40.666 12 63.999 12c22 0 42.667 -4 62 -12s36.166 -19 50.499 -33s25.666 -30.5 33.999 -49.5s12.5 -39.5 12.5 -61.5s-4.16699 -42.5 -12.5 -61.5s-19.666 -35.5 -33.999 -49.5s-31.166 -25 -50.499 -33s-40 -12 -62 -12c-23.333 0 -44.666 4 -63.999 12
s-36.333 19 -51 33s-26 30.5 -34 49.5s-12 39.5 -12 61.5zM39.998 1457h1043v-1457h-1043v1457zM116.998 79.999h879v1297h-879v-1297z" />
    <glyph glyph-name="fi" unicode="fi" horiz-adv-x="1164" 
d="M496 1035l613.002 -0.000976562l-126 -1035h-304l102 823h-299l-93 -775l-54 -174c-12 -38.667 -30.333 -68.667 -55 -90s-59.667 -32 -105 -32h-126l132 1073l-56 13c-20 4.66699 -36.167 11.667 -48.5 21s-18.5 22.666 -18.5 39.999
c0 0.666992 0.166992 2.16699 0.5 4.5s1 7.83301 2 16.5l4.5 40l8 75h134l2 15c7.33301 62.667 24.5 121.5 51.5 176.5s64.167 103 111.5 144s105.5 73.167 174.5 96.5s149.167 35 240.5 35c28 0 57 -1.5 87 -4.5s55.667 -7.5 77 -13.5l-30 -151
c-2 -8.66699 -5.33301 -15.5 -10 -20.5s-10.334 -9 -17.001 -12s-14 -5 -22 -6s-15.667 -1.5 -23 -1.5c-65.333 0 -119.333 -5.16699 -162 -15.5s-77.334 -25.666 -104.001 -45.999s-46.5 -46.166 -59.5 -77.499s-21.833 -68 -26.5 -110z" />
    <glyph glyph-name="fl" unicode="fl" horiz-adv-x="1176" 
d="M484 823l-95.001 -774.998l-54 -174c-12 -38.667 -30.333 -68.667 -55 -90s-59.667 -32 -105 -32h-126l131 1073l-55 13c-20 4.66699 -36.167 11.667 -48.5 21s-18.5 22.666 -18.5 39.999c0 0.666992 0.166992 2.16699 0.5 4.5s1 7.83301 2 16.5l4.5 40c2 18 5 43 9 75
h132l5 38c6.66699 52.667 21 104 43 154s52 94.167 90 132.5s84.333 69.166 139 92.499s118 35 190 35c56.667 0 109.834 -2 159.501 -6s100.167 -6 151.5 -6h197l-182 -1475h-300l154 1262l-81 9.5c-26.667 3 -52.334 4.5 -77.001 4.5
c-55.333 0 -99.666 -16.667 -132.999 -50s-53 -84.333 -59 -153l-4 -38h198l-26 -212h-187z" />
    <glyph glyph-name=".notdef" horiz-adv-x="1123" 
d="M230 1152c41.333 32 87.998 58.499 139.998 79.499s113 31.5 183 31.5c52 0 97.833 -6.66699 137.5 -20s73.167 -32 100.5 -56s48 -53 62 -87s21 -71.667 21 -113c0 -36.667 -4.33301 -68.334 -13 -95.001s-19.5 -49.667 -32.5 -69s-27.333 -36 -43 -50l-45.5 -39
c-14.667 -12 -27.667 -23.667 -39 -35s-19 -24 -23 -38l-27 -90h-212l-22 112c-2 10.667 -3 21 -3 31c0 20.667 4.33301 38.667 13 54s19.334 29.333 32.001 42s26.5 24.334 41.5 35.001s28.833 22 41.5 34s23.334 25 32.001 39s13 30.667 13 50
c0 15.333 -4.33301 28.166 -13 38.499s-25 15.5 -49 15.5c-21.333 0 -39 -1.66699 -53 -5s-26.167 -7.16602 -36.5 -11.499s-20 -8.16602 -29 -11.499s-19.5 -5 -31.5 -5c-28.667 0 -49.667 12 -63 36zM373.998 330.999c0 22 4 42.5 12 61.5s19.333 35.5 34 49.5
s31.667 25 51 33s40.666 12 63.999 12c22 0 42.667 -4 62 -12s36.166 -19 50.499 -33s25.666 -30.5 33.999 -49.5s12.5 -39.5 12.5 -61.5s-4.16699 -42.5 -12.5 -61.5s-19.666 -35.5 -33.999 -49.5s-31.166 -25 -50.499 -33s-40 -12 -62 -12c-23.333 0 -44.666 4 -63.999 12
s-36.333 19 -51 33s-26 30.5 -34 49.5s-12 39.5 -12 61.5zM39.998 1457h1043v-1457h-1043v1457zM116.998 79.999h879v1297h-879v-1297z" />
    <glyph glyph-name="NULL" horiz-adv-x="0" 
 />
    <glyph glyph-name="NULL" horiz-adv-x="0" 
 />
    <glyph glyph-name="nonmarkingreturn" unicode="&#xd;" horiz-adv-x="0" 
 />
    <glyph glyph-name="space" unicode=" " horiz-adv-x="386" 
 />
    <glyph glyph-name="exclam" unicode="!" horiz-adv-x="698" 
d="M610 1457l-70 -574.002c-7.33301 -60.667 -18.333 -121.167 -33 -181.5s-31.667 -122.166 -51 -185.499h-202c-1.33301 25.333 -2.5 50.333 -3.5 75s-1.5 49.334 -1.5 74.001c0 36.667 1 73 3 109s5.33301 72.333 10 109l70 574h278zM150 156.998
c0 24 4.5 46.333 13.5 67s21.333 38.667 37 54s34.167 27.5 55.5 36.5s44.666 13.5 69.999 13.5c24.667 0 47.667 -4.5 69 -13.5s40 -21.167 56 -36.5s28.5 -33.333 37.5 -54s13.5 -43 13.5 -67s-4.5 -46.5 -13.5 -67.5s-21.5 -39.167 -37.5 -54.5s-34.667 -27.333 -56 -36
s-44.333 -13 -69 -13c-25.333 0 -48.666 4.33301 -69.999 13s-39.833 20.667 -55.5 36s-28 33.5 -37 54.5s-13.5 43.5 -13.5 67.5z" />
    <glyph glyph-name="quotedbl" unicode="&#x22;" horiz-adv-x="828" 
d="M476 1455l-36 -286l-46 -158c-10 -34.667 -23.667 -61.167 -41 -79.5s-43 -27.5 -77 -27.5c-29.333 0 -50.833 9.16699 -64.5 27.5s-21.5 44.833 -23.5 79.5l-8 158l36 286h260zM852 1455l-36 -286l-46 -158c-10 -34.667 -23.667 -61.167 -41 -79.5s-43 -27.5 -77 -27.5
c-29.333 0 -50.833 9.16699 -64.5 27.5s-21.5 44.833 -23.5 79.5l-8 158l36 286h260z" />
    <glyph glyph-name="numbersign" unicode="#" 
d="M837 397l-119 -397.003h-140c-22 0 -39.667 7.83301 -53 23.5s-20 35.5 -20 59.5c0 5.33301 0.333008 11 1 17s2 12.333 4 19l83 278h-173l-86 -293c-5.33301 -18.667 -13.166 -34.667 -23.499 -48s-22 -24.166 -35 -32.499s-27 -14.333 -42 -18s-30.167 -5.5 -45.5 -5.5
h-134l121 397h-93c-22 0 -39.167 4.83301 -51.5 14.5s-18.5 25.167 -18.5 46.5c0 16.667 3.33301 35.334 10 56.001l28 92h179l73 245h-202l38 121c9.33301 30 24.833 51.833 46.5 65.5s54.167 20.5 97.5 20.5h74l90 301c9.33301 30.667 26.833 54.334 52.5 71.001
s54.167 25 85.5 25h138l-121 -397h172l121 397h134c25.333 0 45.666 -6.66699 60.999 -20s23 -30.666 23 -51.999c0 -9.33301 -1.33301 -18 -4 -26l-89 -299h197l-40 -120c-10 -30 -25.667 -52 -47 -66s-53 -21 -95 -21h-70l-73 -245h115c22 0 39.167 -4.83301 51.5 -14.5
s18.5 -25.167 18.5 -46.5c0 -16.667 -3.33301 -35.334 -10 -56.001l-28 -92h-201zM473 605.997h174l73 245h-172z" />
    <glyph glyph-name="dollar" unicode="$" 
d="M375 -6c-37.333 6 -73.833 14.6689 -109.5 26.002s-69.5 24.833 -101.5 40.5s-61.833 33.167 -89.5 52.5s-51.834 40.333 -72.501 63l110 133c9.33301 11.333 20.833 20.666 34.5 27.999s28.167 11 43.5 11c16 0 31.667 -4.33301 47 -13s32.166 -19.167 50.499 -31.5
s38.833 -24.833 61.5 -37.5s49 -23 79 -31l85 392c-42.667 12 -84.834 26.333 -126.501 43s-79.167 38.334 -112.5 65.001s-60.333 60.167 -81 100.5s-31 90.5 -31 150.5s12.333 118.167 37 174.5s60.167 106.666 106.5 150.999s102.5 80.5 168.5 108.5s140.333 44 223 48
l25 113c4 18.667 14.167 35.167 30.5 49.5s35.5 21.5 57.5 21.5h110l-43 -196c70.667 -13.333 129.834 -34.5 177.501 -63.5s87.5 -60.833 119.5 -95.5l-86 -107c-13.333 -16.667 -26 -28.5 -38 -35.5s-26 -10.5 -42 -10.5c-10 0 -21.333 2.5 -34 7.5s-26.667 11.333 -42 19
s-32 15.5 -50 23.5s-37.333 15 -58 21l-80 -368c42.667 -13.333 85.334 -28.333 128.001 -45s80.834 -37.834 114.501 -63.501s61 -57.167 82 -94.5s31.5 -83.333 31.5 -138c0 -66.667 -12.5 -130.167 -37.5 -190.5s-61 -113.833 -108 -160.5s-104 -84.834 -171 -114.501
s-142.833 -47.5 -227.5 -53.5l-28 -131c-3.33301 -17.333 -13.333 -33.166 -30 -47.499s-36 -21.5 -58 -21.5h-110zM808 436.002c0 35.333 -11.5 63.5 -34.5 84.5s-52.5 38.833 -88.5 53.5l-76 -346c66.667 10 116.5 32.5 149.5 67.5s49.5 81.833 49.5 140.5zM450 1051
c0 -36 11.5 -65.165 34.5 -87.498s52.833 -41.5 89.5 -57.5l69 316c-35.333 -4.66699 -65.333 -12.334 -90 -23.001s-44.667 -23.5 -60 -38.5s-26.333 -31.833 -33 -50.5s-10 -38.334 -10 -59.001z" />
    <glyph glyph-name="percent" unicode="%" horiz-adv-x="1512" 
d="M772 1155c0 -62 -10.8281 -118.331 -32.4951 -168.998s-50 -94 -85 -130s-74.833 -63.833 -119.5 -83.5s-90.334 -29.5 -137.001 -29.5c-42.667 0 -81.334 7.5 -116.001 22.5s-64.334 36.167 -89.001 63.5s-43.667 60 -57 98s-20 80 -20 126c0 62 9.66699 118.5 29 169.5
s45.666 94.833 78.999 131.5s72.666 65 117.999 85s94 30 146 30c42.667 0 81.5 -7.5 116.5 -22.5s65 -36.333 90 -64s44.167 -60.834 57.5 -99.501s20 -81.334 20 -128.001zM542.005 1153c0 48 -7.16895 81.832 -21.502 101.499s-33.166 29.5 -56.499 29.5
c-18 0 -34.333 -4.16699 -49 -12.5s-27 -21.666 -37 -39.999s-17.833 -42.166 -23.5 -71.499s-8.5 -65 -8.5 -107c0 -46 6.83301 -78 20.5 -96s32.167 -27 55.5 -27c17.333 0 33.333 3.66699 48 11s27.334 19.666 38.001 36.999s19 40.333 25 69s9 64 9 106zM1222 1411
c11.333 10.667 24.5 20.666 39.5 29.999s35.167 14 60.5 14h218l-1190 -1413c-11.333 -11.333 -24.5 -21.166 -39.5 -29.499s-33.167 -12.5 -54.5 -12.5h-222zM1454 394c0 -62 -10.8281 -118.334 -32.4951 -169.001s-50 -94 -85 -130s-74.833 -63.833 -119.5 -83.5
s-90.334 -29.5 -137.001 -29.5c-42.667 0 -81.334 7.5 -116.001 22.5s-64.334 36.167 -89.001 63.5s-43.667 60 -57 98s-20 79.667 -20 125c0 62.667 9.66699 119.667 29 171s45.666 95.333 78.999 132s72.666 65 117.999 85s94 30 146 30c42.667 0 81.5 -7.66699 116.5 -23
s65 -36.666 90 -63.999s44.167 -60.5 57.5 -99.5s20 -81.833 20 -128.5zM1224.01 391.999c0 48.667 -7.16895 82.3301 -21.502 100.997s-33.166 28 -56.499 28c-18 0 -34.333 -4 -49 -12s-27 -21.167 -37 -39.5s-17.833 -42.166 -23.5 -71.499s-8.5 -65 -8.5 -107
c0 -45.333 6.83301 -77.166 20.5 -95.499s32.167 -27.5 55.5 -27.5c17.333 0 33.333 3.66699 48 11s27.334 19.833 38.001 37.5s19 40.834 25 69.501s9 64 9 106z" />
    <glyph glyph-name="ampersand" unicode="&#x26;" horiz-adv-x="1334" 
d="M732 1471c60 0 112.334 -8.99902 157.001 -26.999s81.834 -42.167 111.501 -72.5s52 -65.833 67 -106.5s22.5 -83.334 22.5 -128.001l-180 -35c-11.333 -2 -21 -3 -29 -3c-15.333 0 -27.333 3.5 -36 10.5s-15.667 18.833 -21 35.5c-22.667 70.667 -62.667 106 -120 106
c-22.667 0 -42.834 -5.16699 -60.501 -15.5s-32.5 -24.166 -44.5 -41.499s-21.167 -37.666 -27.5 -60.999s-9.5 -48 -9.5 -74c0 -26.667 4.5 -54.667 13.5 -84s24.5 -61 46.5 -95l272 -359c36.667 73.333 63 152.333 79 237c3.33301 18 9.83301 32.667 19.5 44
s24.167 17 43.5 17h212c-12.667 -98 -36 -189.333 -70 -274s-76.333 -161.334 -127 -230.001l239 -315h-260c-24 0 -44.5 1.5 -61.5 4.5s-32.167 7.83301 -45.5 14.5s-25.5 15.167 -36.5 25.5s-22.5 23.166 -34.5 38.499l-18 23c-58.667 -39.333 -121 -69.5 -187 -90.5
s-134.333 -31.5 -205 -31.5c-67.333 0 -127 8.83301 -179 26.5s-95.5 43 -130.5 76s-61.5 72.667 -79.5 119s-27 98.166 -27 155.499c0 50.667 7.83301 98.167 23.5 142.5s37.167 85.333 64.5 123s60 71.667 98 102s79 56.5 123 78.5
c-18.667 40.667 -31.834 80.834 -39.501 120.501s-11.5 77.5 -11.5 113.5c0 58 10.333 113 31 165s50.334 97.667 89.001 137s85.667 70.5 141 93.5s117.666 34.5 186.999 34.5zM334.001 399.001c0 -27.333 3 -52.332 9 -74.999s15.833 -42.167 29.5 -58.5
s31.5 -29 53.5 -38s48.667 -13.5 80 -13.5c34.667 0 68.667 6 102 18s65.333 29.333 96 52l-261 357c-41.333 -35.333 -69.833 -73.333 -85.5 -114s-23.5 -83.334 -23.5 -128.001z" />
    <glyph glyph-name="quotesingle" unicode="'" horiz-adv-x="454" 
d="M476 1455l-36 -286l-46 -158c-10 -34.667 -23.667 -61.167 -41 -79.5s-43 -27.5 -77 -27.5c-29.333 0 -50.833 9.16699 -64.5 27.5s-21.5 44.833 -23.5 79.5l-8 158l36 286h260z" />
    <glyph glyph-name="parenleft" unicode="(" horiz-adv-x="552" 
d="M328 427c0 -44 1.49805 -90.498 4.49805 -139.498s7.5 -98.333 13.5 -148s13.833 -98.334 23.5 -146.001s21.167 -92.167 34.5 -133.5c2.66699 -8 4.83398 -15.5 6.50098 -22.5s2.5 -13.5 2.5 -19.5c0 -18 -5 -32.5 -15 -43.5s-22 -20.167 -36 -27.5l-142 -77
c-26.667 56 -49.5 114.833 -68.5 176.5s-34.667 124.167 -47 187.5s-21.5 126.666 -27.5 189.999s-9 124 -9 182c0 104 6.83301 205.167 20.5 303.5s35.834 195.5 66.501 291.5s70.5 191.833 119.5 287.5s108.833 193.5 179.5 293.5l124 -76
c9.33301 -6.66699 17.5 -14.167 24.5 -22.5s10.5 -18.833 10.5 -31.5c0 -8 -2 -16.667 -6 -26s-9.66699 -20.666 -17 -33.999c-38 -69.333 -73.167 -141.333 -105.5 -216s-60 -152.334 -83 -233.001s-41 -164 -54 -250s-19.5 -174.667 -19.5 -266z" />
    <glyph glyph-name="parenright" unicode=")" horiz-adv-x="552" 
d="M258 825c0 44 -1.49805 90.5029 -4.49805 139.503s-7.5 98.333 -13.5 148s-13.833 98.334 -23.5 146.001s-21.167 92.167 -34.5 133.5c-2.66699 8 -4.83398 15.5 -6.50098 22.5s-2.5 13.5 -2.5 19.5c0 18 5 32.5 15 43.5s22 20.167 36 27.5l142 77
c26.667 -56 49.5 -114.833 68.5 -176.5s34.667 -124.334 47 -188.001s21.5 -127 27.5 -190s9 -123.5 9 -181.5c0 -104 -6.83301 -205.167 -20.5 -303.5s-35.834 -195.5 -66.501 -291.5s-70.5 -191.833 -119.5 -287.5s-108.833 -193.5 -179.5 -293.5l-124 76
c-9.33301 6.66699 -17.5 14.167 -24.5 22.5s-10.5 18.833 -10.5 31.5c0 8 2 16.667 6 26s9.66699 20.666 17 33.999c38 68.667 73.167 140.5 105.5 215.5s60 152.667 83 233s41 163.666 54 249.999s19.5 175.166 19.5 266.499z" />
    <glyph glyph-name="asterisk" unicode="*" horiz-adv-x="736" 
d="M336 819l21.999 175.001c3.33301 28 10 53.667 20 77c-9.33301 -9.33301 -19.5 -17.666 -30.5 -24.999s-22.833 -14.333 -35.5 -21l-142 -87l-54 115l142 87c13.333 7.33301 26.5 13.666 39.5 18.999s26.167 9.33301 39.5 12c-25.333 4 -49 14 -71 30l-122 89l84 116
l122 -90c10 -6.66699 19.667 -13.667 29 -21s17.666 -15.333 24.999 -24c-2.66699 11.333 -4 25.333 -4 42v16.5c0 5.66699 0.666992 11.167 2 16.5l22 176h140l-22 -175c-2 -13.333 -4.5 -28 -7.5 -44s-7.5 -29.667 -13.5 -41c9.33301 9.33301 19.5 19 30.5 29
s23.167 18.333 36.5 25l142 88l54 -116l-142 -87c-13.333 -7.33301 -26.666 -13.5 -39.999 -18.5s-26.666 -8.83301 -39.999 -11.5c12.667 -2.66699 25 -6.5 37 -11.5s23.667 -11.5 35 -19.5l120 -89l-82 -113l-122 87c-10.667 6.66699 -20.5 13.667 -29.5 21
s-17.167 15.333 -24.5 24c1.33301 -6.66699 2.33301 -13.334 3 -20.001s1 -13.667 1 -21c0 -5.33301 -0.166992 -10.833 -0.5 -16.5s-0.833008 -11.167 -1.5 -16.5l-22 -177h-140z" />
    <glyph glyph-name="plus" unicode="+" 
d="M784 1177l-49 -398h375l-28 -214h-373l-49 -400h-244l50 400h-372l28 214h370l50 398h242z" />
    <glyph glyph-name="comma" unicode="," horiz-adv-x="472" 
d="M30 176c0 21.333 4 41.167 12 59.5s19.5 34.333 34.5 48s32.667 24.5 53 32.5s43.166 12 68.499 12c30 0 56 -5.16699 78 -15.5s40.333 -24.333 55 -42s25.5 -38 32.5 -61s10.5 -47.167 10.5 -72.5c0 -33.333 -5.33301 -68.833 -16 -106.5s-26.5 -75.5 -47.5 -113.5
s-47.167 -75.333 -78.5 -112s-67.333 -70 -108 -100l-54 48c-7.33301 7.33301 -12.833 14 -16.5 20s-5.5 13.333 -5.5 22c0 10.667 5.83301 22.667 17.5 36l40 45.5c15 17 29.833 36 44.5 57s25.334 44.833 32.001 71.5c-22.667 2 -43.334 7.66699 -62.001 17
s-34.667 21.5 -48 36.5s-23.666 32.5 -30.999 52.5s-11 41.667 -11 65z" />
    <glyph glyph-name="hyphen" unicode="-" horiz-adv-x="686" 
d="M122 728h502l-32 -242h-500z" />
    <glyph glyph-name="period" unicode="." horiz-adv-x="472" 
d="M24 157c0 24 4.5 46.333 13.5 67s21.333 38.667 37 54s34.167 27.5 55.5 36.5s44.666 13.5 69.999 13.5c24.667 0 47.667 -4.5 69 -13.5s40 -21.167 56 -36.5s28.5 -33.333 37.5 -54s13.5 -43 13.5 -67s-4.5 -46.5 -13.5 -67.5s-21.5 -39.167 -37.5 -54.5
s-34.667 -27.333 -56 -36s-44.333 -13 -69 -13c-25.333 0 -48.666 4.33301 -69.999 13s-39.833 20.667 -55.5 36s-28 33.5 -37 54.5s-13.5 43.5 -13.5 67.5z" />
    <glyph glyph-name="slash" unicode="/" horiz-adv-x="750" 
d="M204 7c-8 -18 -18.499 -33.666 -31.499 -46.999s-27.167 -24.5 -42.5 -33.5s-31.166 -15.833 -47.499 -20.5s-31.833 -7 -46.5 -7h-128l682 1458c15.333 33.333 37.666 58.666 66.999 75.999s61.666 26 96.999 26h126z" />
    <glyph glyph-name="zero" unicode="0" 
d="M696 1471c67.333 0 128.666 -12.335 183.999 -37.002s102.666 -61.667 141.999 -111s69.833 -111.166 91.5 -185.499s32.5 -160.833 32.5 -259.5c0 -151.333 -16.333 -283 -49 -395s-77.5 -205 -134.5 -279s-124.167 -129.167 -201.5 -165.5s-160.333 -54.5 -249 -54.5
c-67.333 0 -128.666 12.333 -183.999 37s-102.666 61.834 -141.999 111.501s-69.833 111.5 -91.5 185.5s-32.5 160.333 -32.5 259c0 151.333 16.333 283 49 395s77.5 205 134.5 279s124 129.167 201 165.5s160.167 54.5 249.5 54.5zM552 223.998
c40.667 0 78.332 13.333 112.999 40s64.5 66.834 89.5 120.501s44.5 121.167 58.5 202.5s21 176.666 21 285.999c0 70.667 -5.16699 129 -15.5 175s-23.833 82.667 -40.5 110s-35.667 46.5 -57 57.5s-43 16.5 -65 16.5c-41.333 0 -79.166 -13.333 -113.499 -40
s-64 -67 -89 -121s-44.5 -121.667 -58.5 -203s-21 -176.333 -21 -285c0 -70.667 5.16699 -129.167 15.5 -175.5s23.833 -83 40.5 -110s35.667 -46 57 -57s43 -16.5 65 -16.5z" />
    <glyph glyph-name="one" unicode="1" 
d="M222 217l282 0.000976562l94 784l21 90l-197 -152c-11.333 -8.66699 -22.5 -14.334 -33.5 -17.001s-21.167 -4 -30.5 -4c-17.333 0 -32 3.5 -44 10.5s-20.667 14.5 -26 22.5l-78 126l498 381h248l-153 -1241h245l-28 -217h-824z" />
    <glyph glyph-name="two" unicode="2" 
d="M714 1471c64.667 0 122.829 -9.16602 174.496 -27.499s95.334 -44 131.001 -77s63 -72.167 82 -117.5s28.5 -95 28.5 -149c0 -60 -8.83301 -114.833 -26.5 -164.5s-41.834 -96.834 -72.501 -141.501s-66.834 -87.667 -108.501 -129l-134.5 -128l-330 -301
c37.333 10.667 74 19 110 25s69.333 9 100 9h290c30 0 53 -7.66699 69 -23s24 -35.666 24 -60.999c0 -1.33301 -0.166992 -3.5 -0.5 -6.5l-2.5 -22l-6.5 -54.5c-3 -24.667 -7.5 -59 -13.5 -103h-1018l12 96c2 18 8.33301 37.833 19 59.5s26.334 41.5 47.001 59.5l476 426
c46.667 42 86.334 81 119.001 117s59.167 71 79.5 105s35 67.833 44 101.5s13.5 69.167 13.5 106.5c0 48.667 -13 87 -39 115s-65 42 -117 42c-24 0 -46.5 -3.5 -67.5 -10.5s-40.167 -16.667 -57.5 -29s-32.666 -26.833 -45.999 -43.5s-24.333 -34.667 -33 -54
c-13.333 -28.667 -29.166 -49.334 -47.499 -62.001s-41.166 -19 -68.499 -19c-14.667 0 -28.667 1.33301 -42 4l-154 27c20 72 48.333 134.833 85 188.5s79.667 98.5 129 134.5s103.833 62.833 163.5 80.5s122.5 26.5 188.5 26.5z" />
    <glyph glyph-name="three" unicode="3" 
d="M750 1471c66 0 124.331 -9.16699 174.998 -27.5s93 -43 127 -74s59.833 -67 77.5 -108s26.5 -84.5 26.5 -130.5c0 -52.667 -5.5 -98.667 -16.5 -138s-27.333 -73 -49 -101s-48.667 -51.333 -81 -70s-69.833 -34 -112.5 -46c68.667 -28 120 -66.167 154 -114.5
s51 -106.833 51 -175.5c0 -55.333 -7.33301 -106 -22 -152s-34.834 -87.667 -60.501 -125s-56.334 -70 -92.001 -98s-74.5 -51.5 -116.5 -70.5s-86.5 -33.167 -133.5 -42.5s-94.833 -14 -143.5 -14c-69.333 0 -130.333 7.5 -183 22.5s-98 38.333 -136 70
s-69.333 71.834 -94 120.501s-44.334 107 -59.001 175l140 54c12.667 5.33301 24.834 9 36.501 11s23.167 3 34.5 3c20.667 0 38.5 -4 53.5 -12s25.5 -19.667 31.5 -35c22 -58 48.667 -100.167 80 -126.5s72.666 -39.5 123.999 -39.5c38.667 0 73 6.83301 103 20.5
s55.333 32 76 55s36.334 50 47.001 81s16 63.5 16 97.5c0 24 -3.66699 45.833 -11 65.5s-21.5 36.5 -42.5 50.5s-50.167 24.833 -87.5 32.5s-86.333 11.5 -147 11.5l28 205c60.667 0.666992 111.167 6.16699 151.5 16.5s72.5 25 96.5 44s41 42.333 51 70s15 59.5 15 95.5
c0 50 -13.167 88.5 -39.5 115.5s-65.166 40.5 -116.499 40.5c-49.333 0 -91.666 -13.167 -126.999 -39.5s-61.666 -58.833 -78.999 -97.5c-13.333 -28.667 -29.166 -49.334 -47.499 -62.001s-40.833 -19 -67.5 -19c-6 0 -12.5 0.333008 -19.5 1s-14.167 1.66699 -21.5 3
l-154 27c19.333 72 47.333 134.833 84 188.5s79.5 98.5 128.5 134.5s103.333 62.833 163 80.5s122.5 26.5 188.5 26.5z" />
    <glyph glyph-name="four" unicode="4" 
d="M988 561l149.999 0.000976562l-24 -167c-2 -14.667 -8.66699 -27.5 -20 -38.5s-26.666 -16.5 -45.999 -16.5h-87l-41 -339h-270l41 339h-584c-19.333 0 -37 6.16699 -53 18.5s-25 29.166 -27 50.499l-11 139l788 910h294zM765.999 961.001
c2.66699 20 6.16699 41.5 10.5 64.5s9.83301 46.833 16.5 71.5l-454 -536h379z" />
    <glyph glyph-name="five" unicode="5" 
d="M1100 1333c-2.66699 -20 -8.16309 -38.501 -16.4961 -55.501s-20.333 -31.667 -36 -44s-35.167 -21.833 -58.5 -28.5s-51 -10 -83 -10h-356l-75 -257c27.333 5.33301 53.666 9 78.999 11s49.666 3 72.999 3c71.333 0 133.833 -10 187.5 -30s98.334 -47.5 134.001 -82.5
s62.5 -76.167 80.5 -123.5s27 -98.333 27 -153c0 -84.667 -16 -162.5 -48 -233.5s-76 -132 -132 -183s-121.833 -90.833 -197.5 -119.5s-157.167 -43 -244.5 -43c-47.333 0 -91.833 4.83301 -133.5 14.5s-80 22.834 -115 39.501s-67 36 -96 58s-54.833 45.333 -77.5 70
l108 125c11.333 13.333 24 23 38 29s28 9 42 9c19.333 0 37.166 -5.33301 53.499 -16l54.5 -35.5c20 -13 43.667 -24.833 71 -35.5s61.666 -16 102.999 -16c47.333 0 88.166 8.33301 122.499 25s62.5 38.667 84.5 66s38.333 59 49 95s16 73.667 16 113
c0 58.667 -18 105.167 -54 139.5s-90.333 51.5 -163 51.5c-28 0 -58.333 -2.66699 -91 -8s-68 -14 -106 -26l-178 50l214 725h740z" />
    <glyph glyph-name="six" unicode="6" 
d="M738 919c48.667 0 95.833 -7.83105 141.5 -23.498s86.167 -39.167 121.5 -70.5s63.666 -70.666 84.999 -117.999s32 -102.333 32 -165c0 -76 -14.833 -147.833 -44.5 -215.5s-71 -126.834 -124 -177.501s-115.667 -90.834 -188 -120.501s-150.833 -44.5 -235.5 -44.5
c-73.333 0 -138.666 11.167 -195.999 33.5s-105.5 53.333 -144.5 93s-68.667 87 -89 142s-30.5 115.167 -30.5 180.5c0 90 19.167 175.5 57.5 256.5s94.5 164.167 168.5 249.5l386 447c16.667 19.333 40 35.666 70 48.999s62.667 20 98 20h266l-537 -564
c24.667 9.33301 50.5 16.333 77.5 21s55.5 7 85.5 7zM349.999 423.002c0 -30.667 4.16699 -58.502 12.5 -83.502s20.833 -46.333 37.5 -64s37.5 -31.334 62.5 -41.001s54.167 -14.5 87.5 -14.5c36 0 70.167 6.83301 102.5 20.5s60.5 32.834 84.5 57.501
s43.167 53.667 57.5 87s21.5 69.666 21.5 108.999c0 32.667 -5 61.834 -15 87.501s-24 47.5 -42 65.5s-40 31.833 -66 41.5s-55 14.5 -87 14.5c-36 0 -69.667 -6.66699 -101 -20s-58.5 -32.166 -81.5 -56.499s-41 -53.666 -54 -87.999s-19.5 -72.833 -19.5 -115.5z" />
    <glyph glyph-name="seven" unicode="7" 
d="M1224 1457l-14.0039 -114.997c-3.33301 -26.667 -8.16602 -51.334 -14.499 -74.001s-14.166 -41.334 -23.499 -56.001l-686 -1146c-11.333 -18.667 -27.666 -34.334 -48.999 -47.001s-43 -19 -65 -19h-252l656 1059c16.667 26.667 34.167 51 52.5 73s38.166 43 59.499 63
h-650c-17.333 0 -31.666 6 -42.999 18s-17 25.667 -17 41c0 7.33301 0.833008 18.5 2.5 33.5s3.83398 31.833 6.50098 50.5l8.5 59l8.5 60h1020z" />
    <glyph glyph-name="eight" unicode="8" 
d="M518 -16c-71.333 0 -135.667 9.16699 -193 27.5s-106.5 44.166 -147.5 77.499s-72.5 73.5 -94.5 120.5s-33 99.167 -33 156.5c0 46 5.5 89.333 16.5 130s28.5 77.834 52.5 111.501s54.667 63.334 92 89.001s82 46.834 134 63.501
c-55.333 27.333 -96.666 63.666 -123.999 108.999s-41 98.333 -41 159c0 63.333 13.333 122 40 176s63.5 100.833 110.5 140.5s102 70.667 165 93s131.167 33.5 204.5 33.5c63.333 0 121.166 -9.16699 173.499 -27.5s97 -43.333 134 -75s65.667 -69.167 86 -112.5
s30.5 -90 30.5 -140c0 -85.333 -20.167 -158.5 -60.5 -219.5s-100.833 -107.833 -181.5 -140.5c74 -28 127.5 -67.167 160.5 -117.5s49.5 -108.833 49.5 -175.5c0 -72.667 -14.333 -138.5 -43 -197.5s-68.5 -109.333 -119.5 -151s-111.667 -73.834 -182 -96.501
s-146.833 -34 -229.5 -34zM545.999 210c40.667 0 75.8311 6.33203 105.498 18.999s54.334 30 74.001 52s34.334 48.167 44.001 78.5s14.5 63.166 14.5 98.499c0 26.667 -3.33301 51.167 -10 73.5s-17.5 41.333 -32.5 57s-34.333 27.834 -58 36.501s-52.167 13 -85.5 13
c-44 0 -81 -6.16699 -111 -18.5s-54.333 -29.5 -73 -51.5s-32 -48.167 -40 -78.5s-12 -63.166 -12 -98.499c0 -26 3.5 -50 10.5 -72s18 -41 33 -57s34.167 -28.667 57.5 -38s51 -14 83 -14zM625.996 863.999c43.333 0 78.335 7.5 105.002 22.5s47.334 33.833 62.001 56.5
s24.5 47.667 29.5 75s7.5 53 7.5 77c0 20.667 -2.83301 40.5 -8.5 59.5s-14.667 35.833 -27 50.5s-28.333 26.334 -48 35.001s-43.834 13 -72.501 13c-36 0 -66.833 -6 -92.5 -18s-46.834 -28.167 -63.501 -48.5s-28.834 -43.833 -36.501 -70.5s-11.5 -54.667 -11.5 -84
c0 -21.333 2.5 -42 7.5 -62s13.5 -37.833 25.5 -53.5s28 -28.334 48 -38.001s45 -14.5 75 -14.5z" />
    <glyph glyph-name="nine" unicode="9" 
d="M526 570c-44 0 -87.1719 7.50098 -129.505 22.501s-80.166 37.5 -113.499 67.5s-60.166 67.667 -80.499 113s-30.5 98.666 -30.5 159.999c0 73.333 14.333 142.5 43 207.5s68.5 122 119.5 171s111.5 87.833 181.5 116.5s146 43 228 43c70.667 0 133.667 -10.5 189 -31.5
s101.833 -50.167 139.5 -87.5s66.334 -81.833 86.001 -133.5s29.5 -108.5 29.5 -170.5c0 -53.333 -5.16699 -103.166 -15.5 -149.499s-25.166 -91 -44.499 -134s-42.666 -84.833 -69.999 -125.5s-58 -81.334 -92 -122.001l-372 -450c-16 -19.333 -38.167 -35.333 -66.5 -48
s-60.166 -19 -95.499 -19h-276l528 554l31 33.5l29 32.5c-32.667 -16.667 -67.334 -29.167 -104.001 -37.5s-74.667 -12.5 -114 -12.5zM903.995 1044c0 30.667 -4.66797 57.835 -14.001 81.502s-22.5 43.667 -39.5 60s-37.5 28.833 -61.5 37.5s-50.333 13 -79 13
c-35.333 0 -67.333 -6.5 -96 -19.5s-53.167 -31.333 -73.5 -55s-36.166 -51.5 -47.499 -83.5s-17 -67 -17 -105c0 -60 15.333 -105.667 46 -137s76.667 -47 138 -47c38 0 72 6.16699 102 18.5s55.5 29.666 76.5 51.999s37.167 49.166 48.5 80.499s17 66 17 104z" />
    <glyph glyph-name="colon" unicode=":" horiz-adv-x="472" 
d="M24 157c0 24 4.5 46.333 13.5 67s21.333 38.667 37 54s34.167 27.5 55.5 36.5s44.666 13.5 69.999 13.5c24.667 0 47.667 -4.5 69 -13.5s40 -21.167 56 -36.5s28.5 -33.333 37.5 -54s13.5 -43 13.5 -67s-4.5 -46.5 -13.5 -67.5s-21.5 -39.167 -37.5 -54.5
s-34.667 -27.333 -56 -36s-44.333 -13 -69 -13c-25.333 0 -48.666 4.33301 -69.999 13s-39.833 20.667 -55.5 36s-28 33.5 -37 54.5s-13.5 43.5 -13.5 67.5zM120 840c0 24 4.5 46.333 13.5 67s21.333 38.667 37 54s34.167 27.5 55.5 36.5s44.666 13.5 69.999 13.5
c24.667 0 47.667 -4.5 69 -13.5s40 -21.167 56 -36.5s28.5 -33.333 37.5 -54s13.5 -43 13.5 -67s-4.5 -46.5 -13.5 -67.5s-21.5 -39.167 -37.5 -54.5s-34.667 -27.333 -56 -36s-44.333 -13 -69 -13c-25.333 0 -48.666 4.33301 -69.999 13s-39.833 20.667 -55.5 36
s-28 33.5 -37 54.5s-13.5 43.5 -13.5 67.5z" />
    <glyph glyph-name="semicolon" unicode=";" horiz-adv-x="472" 
d="M24 176c0 21.333 4 41.167 12 59.5s19.5 34.333 34.5 48s32.667 24.5 53 32.5s43.166 12 68.499 12c30 0 56 -5.16699 78 -15.5s40.333 -24.333 55 -42s25.5 -38 32.5 -61s10.5 -47.167 10.5 -72.5c0 -33.333 -5.33301 -68.833 -16 -106.5s-26.5 -75.5 -47.5 -113.5
s-47.167 -75.333 -78.5 -112s-67.333 -70 -108 -100l-54 48c-7.33301 7.33301 -12.833 14 -16.5 20s-5.5 13.333 -5.5 22c0 10.667 5.83301 22.667 17.5 36l40 45.5c15 17 29.833 36 44.5 57s25.334 44.833 32.001 71.5c-22.667 2 -43.334 7.66699 -62.001 17
s-34.667 21.5 -48 36.5s-23.666 32.5 -30.999 52.5s-11 41.667 -11 65zM118 840.001c0 24 4.5 46.333 13.5 67s21.333 38.667 37 54s34.167 27.5 55.5 36.5s44.666 13.5 69.999 13.5c24.667 0 47.667 -4.5 69 -13.5s40 -21.167 56 -36.5s28.5 -33.333 37.5 -54
s13.5 -43 13.5 -67s-4.5 -46.5 -13.5 -67.5s-21.5 -39.167 -37.5 -54.5s-34.667 -27.333 -56 -36s-44.333 -13 -69 -13c-25.333 0 -48.666 4.33301 -69.999 13s-39.833 20.667 -55.5 36s-28 33.5 -37 54.5s-13.5 43.5 -13.5 67.5z" />
    <glyph glyph-name="less" unicode="&#x3c;" horiz-adv-x="1067" 
d="M151 735l862 423.998l-27 -215c-2 -15.333 -7.66699 -29.5 -17 -42.5s-23.666 -24.167 -42.999 -33.5l-302 -153c-18 -9.33301 -37.167 -17.166 -57.5 -23.499s-41.5 -12.166 -63.5 -17.499c21.333 -5.33301 41.166 -10.833 59.499 -16.5s35.5 -13.167 51.5 -22.5
l267 -154c27.333 -15.333 41 -36.333 41 -63c0 -5.33301 -0.333008 -9.33301 -1 -12l-28 -215l-757 423z" />
    <glyph glyph-name="equal" unicode="=" 
d="M140 597h906l-28 -214h-906zM186 960h904l-26 -215h-906z" />
    <glyph glyph-name="greater" unicode="&#x3e;" horiz-adv-x="1067" 
d="M961 615l-862 -423.998l27 215c2 15.333 7.66699 29.5 17 42.5s23.666 24.167 42.999 33.5l302 153c18 9.33301 37.167 17.166 57.5 23.499s41.5 12.166 63.5 17.499c-21.333 5.33301 -41.166 10.833 -59.499 16.5s-35.5 13.167 -51.5 22.5l-267 154
c-27.333 15.333 -41 36.333 -41 63c0 5.33301 0.333008 9.33301 1 12l28 215l757 -423z" />
    <glyph glyph-name="question" unicode="?" horiz-adv-x="820" 
d="M138 1322c26 20.667 53.4941 39.998 82.4941 57.998s59.833 33.833 92.5 47.5s67.334 24.334 104.001 32.001s75.667 11.5 117 11.5c56.667 0 106.334 -8 149.001 -24s78.167 -37.5 106.5 -64.5s49.5 -58.333 63.5 -94s21 -73.5 21 -113.5
c0 -56.667 -7.16699 -104.5 -21.5 -143.5s-32.666 -72.5 -54.999 -100.5s-47 -52.167 -74 -72.5l-79 -59.5c-25.667 -19.333 -48.834 -40 -69.501 -62s-35.667 -48.333 -45 -79l-44 -142h-206v161c0 34.667 7.83301 65.5 23.5 92.5s35.334 51.833 59.001 74.5
s49.167 44 76.5 64s52.833 40.5 76.5 61.5s43.334 43.667 59.001 68s23.5 51.833 23.5 82.5c0 36 -9 64.667 -27 86s-49 32 -93 32c-31.333 0 -58.166 -3.83301 -80.499 -11.5s-41.833 -16 -58.5 -25s-31.334 -17.333 -44.001 -25s-25 -11.5 -37 -11.5
c-13.333 0 -24.666 2.83301 -33.999 8.5s-16.666 14.834 -21.999 27.501zM183.994 156.998c0 24 4.5 46.333 13.5 67s21.333 38.667 37 54s34.167 27.5 55.5 36.5s44.666 13.5 69.999 13.5c24.667 0 47.667 -4.5 69 -13.5s40 -21.167 56 -36.5s28.5 -33.333 37.5 -54
s13.5 -43 13.5 -67s-4.5 -46.5 -13.5 -67.5s-21.5 -39.167 -37.5 -54.5s-34.667 -27.333 -56 -36s-44.333 -13 -69 -13c-25.333 0 -48.666 4.33301 -69.999 13s-39.833 20.667 -55.5 36s-28 33.5 -37 54.5s-13.5 43.5 -13.5 67.5z" />
    <glyph glyph-name="at" unicode="@" horiz-adv-x="1486" 
d="M1016 182c-18.667 0 -37.001 2.16406 -55.001 6.49707s-34.5 11.333 -49.5 21s-28.167 22.167 -39.5 37.5s-20 34 -26 56c-42 -43.333 -84.333 -74.166 -127 -92.499s-87 -27.5 -133 -27.5c-35.333 0 -66.166 6.33301 -92.499 19s-48.166 30 -65.499 52
s-30.333 48 -39 78s-13 62.667 -13 98c0 40.667 5.33301 82.5 16 125.5s26.5 84.5 47.5 124.5s47.167 77.833 78.5 113.5s68 66.834 110 93.501s89.167 47.667 141.5 63s109.833 23 172.5 23c28 0 53 -1 75 -3s42.5 -5 61.5 -9s36.667 -8.83301 53 -14.5
s33.166 -12.5 50.499 -20.5l-138 -378c-9.33301 -26 -16.166 -48.833 -20.499 -68.5s-6.5 -36.5 -6.5 -50.5c0 -25.333 6 -43 18 -53s27.667 -15 47 -15c26 0 50.5 11.167 73.5 33.5s43.167 52.666 60.5 90.999s31 83.166 41 134.499s15 106.333 15 165
c0 68.667 -9.16699 129.5 -27.5 182.5s-45 97.667 -80 134s-78 63.833 -129 82.5s-108.833 28 -173.5 28c-87.333 0 -167.666 -18.667 -240.999 -56s-136.5 -88.833 -189.5 -154.5s-94.5 -142.834 -124.5 -231.501s-45 -184.334 -45 -287.001c0 -88 11.667 -165.5 35 -232.5
s56.5 -123.167 99.5 -168.5s94.833 -79.666 155.5 -102.999s128.667 -35 204 -35c48.667 0 93 2.5 133 7.5s75.667 11.5 107 19.5s58.5 16.833 81.5 26.5s41.833 19.167 56.5 28.5c11.333 6.66699 21.833 11.167 31.5 13.5s18.5 3.5 26.5 3.5c17.333 0 30.833 -5 40.5 -15
s16.167 -21.667 19.5 -35l22 -81c-33.333 -22 -69.5 -42.333 -108.5 -61s-81 -35 -126 -49s-93 -24.833 -144 -32.5s-104.833 -11.5 -161.5 -11.5c-105.333 0 -200.333 17 -285 51s-156.834 82.167 -216.501 144.5s-105.667 137.5 -138 225.5s-48.5 186 -48.5 294
c0 82.667 10 162.834 30 240.501s48.167 150.667 84.5 219s80.166 131 131.499 188s108 105.833 170 146.5s128.833 72.334 200.5 95.001s146.167 34 223.5 34c82.667 0 160.167 -14.5 232.5 -43.5s135.5 -70.167 189.5 -123.5s96.5 -117.5 127.5 -192.5
s46.5 -158.833 46.5 -251.5c0 -83.333 -12 -161.666 -36 -234.999s-57 -137.166 -99 -191.499s-91.333 -97.333 -148 -129s-117.667 -47.5 -183 -47.5zM669.999 368.997c12.667 0 25.167 2.33105 37.5 6.99805s24.5 12.834 36.5 24.501s23.833 27 35.5 46
s22.5 42.5 32.5 70.5l100 274c-14 2 -28 3 -42 3c-32 0 -63.667 -9.16699 -95 -27.5s-59.333 -42.833 -84 -73.5s-44.667 -66.167 -60 -106.5s-23 -82.166 -23 -125.499c0 -61.333 20.667 -92 62 -92z" />
    <glyph glyph-name="A" unicode="A" horiz-adv-x="1326" 
d="M1288 0h-252.001c-28 0 -50.5 6.5 -67.5 19.5s-27.167 30.167 -30.5 51.5l-45 262h-495l-108 -262c-7.33301 -18.667 -21.666 -35.167 -42.999 -49.5s-45 -21.5 -71 -21.5h-256l696 1457h334zM488.999 555l366 -0.000976562l-71 416
c-6 34.667 -12.5 69.834 -19.5 105.501s-12.833 68.167 -17.5 97.5c-5.33301 -16 -12.333 -34.167 -21 -54.5l-25.5 -59.5l-24 -54c-7.66699 -16.667 -13.167 -29 -16.5 -37z" />
    <glyph glyph-name="B" unicode="B" horiz-adv-x="1208" 
d="M44 0l180 1457h500c84.667 0 157.167 -8 217.5 -24s109.666 -38.833 147.999 -68.5s66.333 -65.334 84 -107.001s26.5 -87.834 26.5 -138.501c0 -40 -5.16699 -78.5 -15.5 -115.5s-26.666 -71.167 -48.999 -102.5s-51.166 -59.833 -86.499 -85.5s-78 -47.167 -128 -64.5
c78.667 -21.333 136.834 -54.5 174.501 -99.5s56.5 -101.833 56.5 -170.5c0 -67.333 -12.833 -130.166 -38.5 -188.499s-62.834 -109.166 -111.501 -152.499s-107.834 -77.5 -177.501 -102.5s-148.5 -37.5 -236.5 -37.5h-544zM446 622l-45.999 -377h214
c40 0 73.667 5.83301 101 17.5s49.5 28 66.5 49s29.333 45.5 37 73.5s11.5 58.667 11.5 92c0 22 -2.83301 42 -8.5 60s-15.334 33.167 -29.001 45.5s-31.667 22 -54 29s-49.833 10.5 -82.5 10.5h-210zM472.001 838l155.999 0.000976562c36.667 0 69.667 3.66699 99 11
s54.5 19.833 75.5 37.5s37.167 41.167 48.5 70.5s17 65.666 17 108.999c0 54 -14.167 92.167 -42.5 114.5s-72.166 33.5 -131.499 33.5h-176z" />
    <glyph glyph-name="C" unicode="C" horiz-adv-x="1182" 
d="M678 252c36.667 0 68.499 2.83008 95.499 8.49707s50.167 12.834 69.5 21.501s35.666 18.167 48.999 28.5l36 28.5c10.667 8.66699 20.667 15.834 30 21.501s19.333 8.5 30 8.5s19.5 -1.83301 26.5 -5.5s12.167 -7.83398 15.5 -12.501l114 -137
c-63.333 -75.333 -138.5 -132.5 -225.5 -171.5s-185.833 -58.5 -296.5 -58.5c-92 0 -173.5 16.167 -244.5 48.5s-130.833 76.833 -179.5 133.5s-85.5 123.834 -110.5 201.501s-37.5 161.5 -37.5 251.5c0 83.333 9.33301 162.333 28 237s45 143.667 79 207
s74.833 120.333 122.5 171s100.5 93.667 158.5 129s120.333 62.5 187 81.5s136.334 28.5 209.001 28.5c54.667 0 104.5 -5.16699 149.5 -15.5s85.667 -24.666 122 -42.999s68.833 -40.166 97.5 -65.499s53.667 -53.333 75 -84l-114 -132
c-8 -9.33301 -17.333 -17.666 -28 -24.999s-24.667 -11 -42 -11c-11.333 0 -21.666 2.66699 -30.999 8s-18.833 11.833 -28.5 19.5l-32.5 25.5c-12 9.33301 -26.333 17.833 -43 25.5s-36.5 14.167 -59.5 19.5s-50.167 8 -81.5 8c-61.333 0 -118.5 -13 -171.5 -39
s-99 -63.167 -138 -111.5s-69.5 -107 -91.5 -176s-33 -146.167 -33 -231.5c0 -62 7.5 -117.333 22.5 -166s35.5 -89.834 61.5 -123.501s57 -59.334 93 -77.001s75 -26.5 117 -26.5z" />
    <glyph glyph-name="D" unicode="D" horiz-adv-x="1364" 
d="M1366 822c0 -79.333 -8.99707 -154.499 -26.9971 -225.499s-43.667 -137 -77 -198s-73.833 -116 -121.5 -165s-101 -90.833 -160 -125.5s-123.333 -61.334 -193 -80.001s-142.834 -28 -219.501 -28h-524l180 1457h524c95.333 0 181.166 -16.167 257.499 -48.5
s141.166 -76.833 194.499 -133.5s94.333 -123.667 123 -201s43 -161.333 43 -252zM1032 814.001c0 59.333 -6.83203 113.167 -20.499 161.5s-34 89.5 -61 123.5s-60.167 60.333 -99.5 79s-84.333 28 -135 28h-196l-116 -955h196c66.667 0 126.667 13.167 180 39.5
s98.666 63.833 135.999 112.5s66 107.667 86 177s30 147.333 30 234z" />
    <glyph glyph-name="E" unicode="E" horiz-adv-x="1036" 
d="M1060 1206h-539l-44 -352h413l-32 -242h-411l-44 -361h543l-32 -251h-870l180 1457h868z" />
    <glyph glyph-name="F" unicode="F" horiz-adv-x="1024" 
d="M1060 1206h-539l-48 -384h451l-34 -251h-448l-70 -571h-328l180 1457h868z" />
    <glyph glyph-name="G" unicode="G" horiz-adv-x="1306" 
d="M710 235c40 0 76 3.5 108 10.5s62.667 16.833 92 29.5l28 238h-124c-18.667 0 -33 4.33301 -43 13s-15 20.334 -15 35.001l22 188h486l-76 -609c-37.333 -27.333 -76 -50.833 -116 -70.5s-81.833 -35.834 -125.5 -48.501s-89.667 -22 -138 -28s-99.833 -9 -154.5 -9
c-90 0 -172.167 16.5 -246.5 49.5s-138 78.5 -191 136.5s-94 126.667 -123 206s-43.5 165.333 -43.5 258c0 80.667 9.16699 157.5 27.5 230.5s44.5 140.5 78.5 202.5s74.833 118 122.5 168s100.667 92.667 159 128s121.166 62.5 188.499 81.5s138 28.5 212 28.5
c62 0 118.167 -5.66699 168.5 -17s95.5 -26.5 135.5 -45.5s75.667 -41 107 -66s59 -50.833 83 -77.5l-106 -131c-24 -29.333 -51 -44 -81 -44c-18 0 -36.333 6 -55 18c-24 15.333 -46.333 28.833 -67 40.5s-41.5 21.334 -62.5 29.001s-43.333 13.5 -67 17.5
s-50.167 6 -79.5 6c-63.333 0 -121.333 -13.5 -174 -40.5s-98 -65 -136 -114s-67.5 -107.833 -88.5 -176.5s-31.5 -144.334 -31.5 -227.001c0 -64 7.83301 -121.5 23.5 -172.5s37.834 -94 66.501 -129s63 -61.833 103 -80.5s84.333 -28 133 -28z" />
    <glyph glyph-name="H" unicode="H" horiz-adv-x="1392" 
d="M1226 0h-328l76 620h-526l-76 -620h-328l180 1457h328l-76 -615h526l76 615h328z" />
    <glyph glyph-name="I" unicode="I" horiz-adv-x="592" 
d="M400 0h-328l178 1457h328z" />
    <glyph glyph-name="J" unicode="J" horiz-adv-x="788" 
d="M688 523c-10 -81.333 -28.333 -155 -55 -221s-62 -122.667 -106 -170s-96.5 -83.833 -157.5 -109.5s-130.833 -38.5 -209.5 -38.5c-35.333 0 -69.833 2 -103.5 6s-68.5 10.667 -104.5 20l24 187c2 16.667 7.83301 30.5 17.5 41.5s25.167 16.5 46.5 16.5
c16 0 34 -1.83301 54 -5.5s42 -5.5 66 -5.5c54 0 98.333 21.167 133 63.5s57.667 111.5 69 207.5l114 942h326z" />
    <glyph glyph-name="K" unicode="K" horiz-adv-x="1320" 
d="M474 861l48 -0.000976562c23.333 0 44 3.83301 62 11.5s32.667 19.834 44 36.501l346 483c18.667 26 40 43.333 64 52s52 13 84 13h282l-458 -595c-15.333 -20.667 -31.333 -37.667 -48 -51s-34 -24.666 -52 -33.999c22.667 -9.33301 42.667 -21.833 60 -37.5
s32 -36.834 44 -63.501l308 -676h-290c-18.667 -0 -34.5 1.33301 -47.5 4s-24 6.5 -33 11.5s-16.5 11.333 -22.5 19s-11 16.167 -15 25.5l-226 512c-8.66699 19.333 -21.167 32.833 -37.5 40.5s-38.5 11.5 -66.5 11.5h-75l-77 -624h-324l178 1457h326z" />
    <glyph glyph-name="L" unicode="L" horiz-adv-x="956" 
d="M402 260h490l-32 -260h-816l180 1457h326z" />
    <glyph glyph-name="M" unicode="M" horiz-adv-x="1732" 
d="M830 640c14 -42 25.998 -85 35.998 -129c10.667 22 21.834 43.667 33.501 65l36.5 64l446 767c13.333 22.667 30 36.667 50 42s39.333 8 58 8h256l-180 -1457h-286l102 848c2 18 5.16699 37.833 9.5 59.5s9.16602 44.167 14.499 67.5l-438 -752
c-13.333 -22.667 -30.666 -39.5 -51.999 -50.5s-44.666 -16.5 -69.999 -16.5h-44c-25.333 0 -47.5 5.66699 -66.5 17s-32.167 28 -39.5 50l-256 754c-1.33301 -22.667 -2.5 -44.667 -3.5 -66s-2.5 -40.666 -4.5 -57.999l-100 -853h-288l180 1457h248
c14 0 26.333 -0.333008 37 -1s20.167 -2.5 28.5 -5.5s15.5 -7.83301 21.5 -14.5s11 -16.334 15 -29.001l256 -767v0z" />
    <glyph glyph-name="N" unicode="N" horiz-adv-x="1392" 
d="M396 1457c14 0 25.832 -0.49707 35.499 -1.49707s18.334 -3.33301 26.001 -7s14.5 -8.83398 20.5 -15.501s12 -15.334 18 -26.001l511 -900c1.33301 23.333 3.33301 45.666 6 66.999s5 41.333 7 60l98 823h288l-180 -1457h-170c-25.333 0 -46.333 3.66699 -63 11
s-31 21.666 -43 42.999l-509 899c-1.33301 -18.667 -2.83301 -36.667 -4.5 -54s-3.16699 -33.666 -4.5 -48.999l-100 -850h-288l180 1457h172v0z" />
    <glyph glyph-name="O" unicode="O" horiz-adv-x="1464" 
d="M1468 822c0 -78.667 -9.16602 -153.999 -27.499 -225.999s-44.333 -139 -78 -201s-74.334 -118.333 -122.001 -169s-101.167 -93.834 -160.5 -129.501s-123.666 -63.334 -192.999 -83.001s-142.333 -29.5 -219 -29.5c-96 0 -182.167 16.833 -258.5 50.5
s-141.166 79.667 -194.499 138s-94.166 127 -122.499 206s-42.5 164.167 -42.5 255.5c0 78.667 9.16699 154.167 27.5 226.5s44.333 139.5 78 201.5s74.5 118.333 122.5 169s101.667 93.834 161 129.501s123.666 63.334 192.999 83.001s142.666 29.5 219.999 29.5
c95.333 0 181.166 -16.833 257.499 -50.5s141 -79.834 194 -138.501s93.667 -127.667 122 -207s42.5 -164.333 42.5 -255zM1134 814.001c0 60 -7.16602 114.5 -21.499 163.5s-35.333 91 -63 126s-61.5 62 -101.5 81s-85.333 28.5 -136 28.5
c-66.667 0 -126.334 -13.833 -179.001 -41.5s-97.5 -66.5 -134.5 -116.5s-65.333 -110.167 -85 -180.5s-29.5 -148.166 -29.5 -233.499c0 -60 7 -114.333 21 -163s34.5 -90.334 61.5 -125.001s60.5 -61.5 100.5 -80.5s85.667 -28.5 137 -28.5
c66.667 0 126.5 13.667 179.5 41s98 66 135 116s65.5 110 85.5 180s30 147.667 30 233z" />
    <glyph glyph-name="P" unicode="P" horiz-adv-x="1180" 
d="M428 491l-60.002 -491h-324l178 1457h482c86.667 0 160.834 -10.5 222.501 -31.5s112.334 -50 152.001 -87s68.834 -80.667 87.501 -131s28 -104.5 28 -162.5c0 -79.333 -12.167 -152.833 -36.5 -220.5s-61.5 -126.167 -111.5 -175.5s-113.333 -88 -190 -116
s-167.334 -42 -272.001 -42h-156zM517.998 1214l-59.0039 -478h157c46.667 0 85.834 6.83301 117.501 20.5s57.334 33 77.001 58s33.834 54.833 42.501 89.5s13 72.667 13 114c0 28.667 -3.83301 55 -11.5 79s-19.5 44.667 -35.5 62s-36.167 30.833 -60.5 40.5
s-53.166 14.5 -86.499 14.5h-154z" />
    <glyph glyph-name="Q" unicode="Q" horiz-adv-x="1464" 
d="M1468 822c0 -74 -7.99805 -144.999 -23.998 -212.999s-39 -131.833 -69 -191.5s-66.333 -114.334 -109 -164.001s-90.334 -92.834 -143.001 -129.501l291 -398h-268c-38 0 -72.333 4.5 -103 13.5s-55.667 27.833 -75 56.5l-141 203c-51.333 -10 -104.333 -15 -159 -15
c-96 0 -182.167 16.833 -258.5 50.5s-141.166 79.667 -194.499 138s-94.166 127 -122.499 206s-42.5 164.167 -42.5 255.5c0 78.667 9.16699 154.167 27.5 226.5s44.333 139.5 78 201.5s74.5 118.333 122.5 169s101.667 93.834 161 129.501s123.666 63.334 192.999 83.001
s142.666 29.5 219.999 29.5c95.333 0 181.166 -16.833 257.499 -50.5s141 -79.834 194 -138.501s93.667 -127.667 122 -207s42.5 -164.333 42.5 -255zM1134 814.001c0 60 -7.16602 114.5 -21.499 163.5s-35.333 91 -63 126s-61.5 62 -101.5 81s-85.333 28.5 -136 28.5
c-66.667 0 -126.334 -13.833 -179.001 -41.5s-97.5 -66.5 -134.5 -116.5s-65.333 -110.167 -85 -180.5s-29.5 -148.166 -29.5 -233.499c0 -60 7 -114.333 21 -163s34.5 -90.334 61.5 -125.001s60.5 -61.5 100.5 -80.5s85.667 -28.5 137 -28.5
c66.667 0 126.5 13.667 179.5 41s98 66 135 116s65.5 110 85.5 180s30 147.667 30 233z" />
    <glyph glyph-name="R" unicode="R" horiz-adv-x="1228" 
d="M435 544l-67.001 -544.001h-324l178 1457h442c89.333 0 165.5 -9.5 228.5 -28.5s114.5 -45.167 154.5 -78.5s69.167 -72.833 87.5 -118.5s27.5 -95.167 27.5 -148.5c0 -54 -7.16699 -105 -21.5 -153s-35.166 -92.167 -62.499 -132.5s-60.833 -76 -100.5 -107
s-84.834 -56.5 -135.501 -76.5c20 -11.333 38.833 -25 56.5 -41s31.5 -36 41.5 -60l212 -513h-294c-27.333 0 -50.333 5.33301 -69 16s-31.667 26 -39 46l-158 431c-7.33301 18.667 -17.166 31.834 -29.499 39.501s-30.5 11.5 -54.5 11.5h-73zM517.999 1214l-55 -445h119
c46.667 0 86.334 7.16699 119.001 21.5s59.167 33.5 79.5 57.5s35 52 44 84s13.5 65.667 13.5 101c0 27.333 -4 52.166 -12 74.499s-20.5 41.333 -37.5 57s-38.333 27.834 -64 36.501s-55.834 13 -90.501 13h-116z" />
    <glyph glyph-name="S" unicode="S" horiz-adv-x="1000" 
d="M942 1165c-11.333 -16 -22.8359 -27.665 -34.5029 -34.998s-25.5 -11 -41.5 -11c-15.333 0 -30.666 5 -45.999 15l-51.5 33c-19 12 -40.833 23 -65.5 33s-53.667 15 -87 15c-30.667 0 -57.5 -4.33301 -80.5 -13s-42.167 -20.667 -57.5 -36s-26.833 -33.333 -34.5 -54
s-11.5 -43.334 -11.5 -68.001c0 -26.667 7.5 -49 22.5 -67s35 -33.833 60 -47.5s53.167 -26.167 84.5 -37.5s63.5 -23.666 96.5 -36.999s65.333 -28.666 97 -45.999s60 -39 85 -65s45 -57.333 60 -94s22.5 -80.667 22.5 -132c0 -73.333 -12.667 -142.333 -38 -207
s-61.666 -121.167 -108.999 -169.5s-104.833 -86.666 -172.5 -114.999s-143.834 -42.5 -228.501 -42.5c-42 0 -84.167 4.66699 -126.5 14s-83 22.5 -122 39.5s-75.167 37.167 -108.5 60.5s-61.666 49.333 -84.999 78l116 152c8.66699 11.333 20 20.666 34 27.999
s28 11 42 11c18.667 0 36.834 -6.5 54.501 -19.5l58.5 -43c21.333 -15.667 46.166 -30 74.499 -43s63.166 -19.5 104.499 -19.5c60.667 0 107.5 16.5 140.5 49.5s49.5 81.833 49.5 146.5c0 30 -7.5 54.667 -22.5 74s-34.667 35.666 -59 48.999
s-52.166 25.166 -83.499 35.499s-63.333 21.5 -96 33.5s-64.667 26.167 -96 42.5s-59.166 37.666 -83.499 63.999s-44 58.666 -59 96.999s-22.5 85.5 -22.5 141.5c0 64.667 12.167 126.834 36.5 186.501s59.166 112.5 104.499 158.5s100.333 82.667 165 110
s137.334 41 218.001 41c41.333 0 81.5 -4.33301 120.5 -13s75.5 -20.667 109.5 -36s65 -33.5 93 -54.5s51.667 -43.833 71 -68.5z" />
    <glyph glyph-name="T" unicode="T" horiz-adv-x="1104" 
d="M1206 1457l-34 -258h-370l-148 -1199h-324l146 1199h-372l32 258h1070z" />
    <glyph glyph-name="U" unicode="U" horiz-adv-x="1334" 
d="M640 256c40.667 0 77.6699 7.83496 111.003 23.502s62.666 38 87.999 67s46.333 64.167 63 105.5s28 87.666 34 138.999l106 866h326l-106 -866c-11.333 -88.667 -34.833 -170.167 -70.5 -244.5s-82 -138.333 -139 -192s-123.167 -95.5 -198.5 -125.5s-158 -45 -248 -45
c-81.333 0 -153.833 12.333 -217.5 37s-117.334 59.5 -161.001 104.5s-76.834 98.833 -99.501 161.5s-34 131.667 -34 207c0 31.333 2 63.666 6 96.999l104 866h326l-106 -866c-1.33301 -12 -2.33301 -23.833 -3 -35.5s-1 -23.167 -1 -34.5
c0 -82.667 18.833 -147.5 56.5 -194.5s92.167 -70.5 163.5 -70.5z" />
    <glyph glyph-name="V" unicode="V" horiz-adv-x="1368" 
d="M118 1457l262.004 -0.00195312c28 0 50.333 -6.66699 67 -20s27 -30.333 31 -51l152 -803c6 -32.667 13.167 -69.5 21.5 -110.5s15.166 -82.5 20.499 -124.5c14 42 30 83.167 48 123.5l48 111.5l340 803c4 8.66699 9.66699 17.334 17 26.001s16.166 16.334 26.499 23.001
s21.666 12 33.999 16s25.166 6 38.499 6h264l-716 -1457h-296z" />
    <glyph glyph-name="W" unicode="W" horiz-adv-x="1980" 
d="M128 1457h255.998c28 0 50.5 -6.5 67.5 -19.5s27.167 -30.167 30.5 -51.5l102 -785c2.66699 -18.667 4.66699 -37.834 6 -57.501s2.66602 -37.5 3.99902 -53.5c1.33301 -19.333 2 -38 2 -56c10 31.333 20.5 60.833 31.5 88.5l30.5 78.5l298 785
c7.33301 18 21.333 34.333 42 49s44.667 22 72 22h76c28 0 50.833 -6.5 68.5 -19.5s28.167 -30.167 31.5 -51.5l112 -785l10.5 -76.5c3.66699 -27.667 6.83398 -56.5 9.50098 -86.5l26 86c8.66699 27.333 17.334 53 26.001 77l288 785
c6.66699 18.667 20.834 35.167 42.501 49.5s46.167 21.5 73.5 21.5h258l-594 -1457h-296l-134 920c-2 14.667 -4.33301 30.834 -7 48.501s-5 36.167 -7 55.5l-21.5 -55.5l-18.5 -48.5l-356 -920h-294z" />
    <glyph glyph-name="X" unicode="X" horiz-adv-x="1324" 
d="M472 777l-315.999 680.001h296c21.333 0 36.5 -2.83301 45.5 -8.5s16.5 -15.167 22.5 -28.5l192 -460c3.33301 6.66699 7 13 11 19l13 20l256 416c9.33301 15.333 19.5 26.166 30.5 32.499s24.167 9.5 39.5 9.5h342l-485 -664l351 -793h-292
c-21.333 -0 -38 5.33301 -50 16s-20.667 22.667 -26 36l-215 535c-2.66699 -4.66699 -5.5 -9 -8.5 -13s-5.83301 -8 -8.5 -12l-322 -510c-12.667 -19.333 -27.334 -32.833 -44.001 -40.5s-34.667 -11.5 -54 -11.5h-326z" />
    <glyph glyph-name="Y" unicode="Y" horiz-adv-x="1256" 
d="M799 558l-68.999 -558.002h-326l69 555l-375 902h290c28 0 49.833 -6.5 65.5 -19.5s27.167 -30.167 34.5 -51.5l140 -441c9.33301 -29.333 17.833 -57.666 25.5 -84.999s14.167 -53.666 19.5 -78.999c12.667 25.333 26.667 51.5 42 78.5l49 85.5l248 441
c10 18 24.667 34.333 44 49s42.666 22 69.999 22h270z" />
    <glyph glyph-name="Z" unicode="Z" horiz-adv-x="1120" 
d="M1212 1457l-14 -98c-2 -13.333 -6.16699 -26 -12.5 -38s-13.5 -23.667 -21.5 -35l-736 -1035h616l-32 -251h-1040l12 96c2 13.333 6.16699 26 12.5 38s13.5 23.667 21.5 35l737 1037h-583l32 251h1008z" />
    <glyph glyph-name="bracketleft" unicode="[" horiz-adv-x="552" 
d="M-22 -320l230 1875h420l-14 -114c-2.66699 -19.333 -12.167 -36 -28.5 -50s-35.5 -21 -57.5 -21h-93l-186 -1504h97c20 0 36.167 -6.16699 48.5 -18.5s18.5 -27.5 18.5 -45.5c0 -0.666992 -0.166992 -2 -0.5 -4s-1 -6.83301 -2 -14.5l-4.5 -36l-8 -67.5h-420z" />
    <glyph glyph-name="backslash" unicode="\" horiz-adv-x="748" 
d="M100 1459l126 0.000976562c35.333 0 64.833 -9 88.5 -27s40.167 -43 49.5 -75l324 -1458h-126c-31.333 0 -60.5 9.16699 -87.5 27.5s-45.167 45.166 -54.5 80.499z" />
    <glyph glyph-name="bracketright" unicode="]" horiz-adv-x="552" 
d="M-30 -207c3.33301 20 12.668 37.167 28.001 51.5s34 21.5 56 21.5h95l186 1504h-97c-20.667 0 -37.334 6 -50.001 18s-19 26.667 -19 44c0 1.33301 0.166992 2.83301 0.5 4.5s0.5 3.16699 0.5 4.5l16 114h420l-232 -1875h-420z" />
    <glyph glyph-name="asciicircum" unicode="^" 
d="M1114 768l-228 -0.00195312c-18 0 -33 4.5 -45 13.5s-21.667 20.5 -29 34.5l-124 237l-31.5 61c-9.66699 19.333 -18.167 38.666 -25.5 57.999c-6.66699 -19.333 -14.334 -38.666 -23.001 -57.999s-18.667 -39.666 -30 -60.999l-120 -237
c-7.33301 -13.333 -17.166 -24.666 -29.499 -33.999s-28.5 -14 -48.5 -14h-240l386 689h202z" />
    <glyph glyph-name="underscore" unicode="_" horiz-adv-x="726" 
d="M652 -114l-24 -186h-726l24 186h726z" />
    <glyph glyph-name="grave" unicode="`" horiz-adv-x="612" 
d="M278 1471c29.333 0 50.833 -4.83301 64.5 -14.5s24.167 -24.167 31.5 -43.5l94 -245h-170c-22 0 -39.5 3 -52.5 9s-25.5 16.333 -37.5 31l-210 263h280z" />
    <glyph glyph-name="a" unicode="a" horiz-adv-x="1058" 
d="M897 0l-166 0.00195312c-19.333 0 -35.5 2.5 -48.5 7.5s-23.333 11.833 -31 20.5s-13 19 -16 31s-4.5 25 -4.5 39v74c-42.667 -58.667 -90 -104.667 -142 -138s-109.333 -50 -172 -50c-37.333 0 -73.333 7.5 -108 22.5s-65.334 37.667 -92.001 68s-48 69 -64 116
s-24 102.5 -24 166.5c0 94 17.167 183.167 51.5 267.5s82.333 158.166 144 221.499s134.834 113.666 219.501 150.999s177.667 56 279 56c49.333 0 99.333 -3.33301 150 -10s100.667 -18.667 150 -36zM441 229.002c22.667 0 44.668 8.5 66.001 25.5s41.5 40.167 60.5 69.5
s36.5 63.666 52.5 102.999s29.667 81.333 41 126l36 287h-18c-50.667 0 -96.834 -11.333 -138.501 -34s-77.5 -53.5 -107.5 -92.5s-53.167 -84.333 -69.5 -136s-24.5 -106.834 -24.5 -165.501c0 -33.333 2.66699 -61.666 8 -84.999s12.5 -42.166 21.5 -56.499
s19.667 -24.833 32 -31.5s25.833 -10 40.5 -10z" />
    <glyph glyph-name="b" unicode="b" horiz-adv-x="1100" 
d="M43 0l182.001 1497h304l-77 -623c46 56 96.167 99.833 150.5 131.5s111.833 47.5 172.5 47.5c42.667 0 81.667 -7.5 117 -22.5s65.833 -38.5 91.5 -70.5s45.667 -72.833 60 -122.5s21.5 -108.834 21.5 -177.501c0 -90.667 -13.833 -176.834 -41.5 -258.501
s-64.834 -153.5 -111.501 -215.5s-100.5 -111.167 -161.5 -147.5s-124.833 -54.5 -191.5 -54.5c-51.333 0 -96.5 9.83301 -135.5 29.5s-72.167 45.5 -99.5 77.5l-3 -10c-9.33301 -28 -21.333 -48.5 -36 -61.5s-38.667 -19.5 -72 -19.5h-170zM651.001 818.002
c-22 0 -44.833 -8.33301 -68.5 -25s-46.5 -39.5 -68.5 -68.5s-42.5 -63 -61.5 -102s-34.833 -80.5 -47.5 -124.5l-30 -242c19.333 -16 41 -27.333 65 -34s47 -10 69 -10c36 0 69.167 12 99.5 36s56.5 55.5 78.5 94.5s39.167 83.5 51.5 133.5s18.5 101 18.5 153
c0 66 -9.66699 114 -29 144s-45 45 -77 45z" />
    <glyph glyph-name="c" unicode="c" horiz-adv-x="876" 
d="M855 182c-33.333 -36.667 -65.335 -67.666 -96.002 -92.999s-62.334 -45.666 -95.001 -60.999s-67.5 -26.5 -104.5 -33.5s-77.833 -10.5 -122.5 -10.5c-60.667 0 -115.334 10.333 -164.001 31s-90.167 50 -124.5 88s-60.833 84 -79.5 138s-28 114.667 -28 182
c0 84.667 13.833 165 41.5 241s66.334 142.667 116.001 200s108.5 102.833 176.5 136.5s142.667 50.5 224 50.5c69.333 0 128.833 -11.833 178.5 -35.5s94.167 -60.834 133.5 -111.501l-100 -115c-7.33301 -7.33301 -15.666 -13.833 -24.999 -19.5
s-19.666 -8.5 -30.999 -8.5c-13.333 0 -24.5 2.83301 -33.5 8.5l-29.5 18c-10.667 6.33301 -23.667 12.333 -39 18s-35.333 8.5 -60 8.5c-30.667 0 -60.5 -8.83301 -89.5 -26.5s-54.833 -43.167 -77.5 -76.5s-40.834 -74.333 -54.501 -123s-20.5 -104 -20.5 -166
c0 -34.667 4 -64.834 12 -90.501s19 -47 33 -64s30.333 -29.833 49 -38.5s38.667 -13 60 -13c32 0 57.833 4.5 77.5 13.5s36.834 18.833 51.501 29.5l41 29.5c12.667 9 28 13.5 46 13.5c10 0 19.833 -2.33301 29.5 -7s17.834 -11 24.501 -19l80 -94v0z" />
    <glyph glyph-name="d" unicode="d" horiz-adv-x="1102" 
d="M765 0c-19.333 0 -35.502 2.49805 -48.502 7.49805s-23.333 11.833 -31 20.5s-13 19 -16 31s-4.5 25 -4.5 39v87c-47.333 -62.667 -99.666 -111.834 -156.999 -147.501s-118.333 -53.5 -183 -53.5c-42.667 0 -81.667 7.5 -117 22.5s-65.833 38.5 -91.5 70.5
s-45.667 72.833 -60 122.5s-21.5 109.167 -21.5 178.5c0 60 6.33301 118.5 19 175.5s30.334 110.5 53.001 160.5s49.667 95.833 81 137.5s65.833 77.334 103.5 107.001s77.5 52.834 119.5 69.501s85.333 25 130 25c42.667 0 81.167 -7.16699 115.5 -21.5
s64.5 -33.166 90.5 -56.499l66 522h304l-186 -1497h-166zM448.998 219.998c21.333 0 43.499 8 66.499 24s45.333 38 67 66s41.834 60.833 60.501 98.5s34.667 78.167 48 121.5l32 252c-19.333 15.333 -40.833 26.333 -64.5 33s-46.167 10 -67.5 10
c-36 0 -69.167 -12 -99.5 -36s-56.5 -55.5 -78.5 -94.5s-39.167 -83.5 -51.5 -133.5s-18.5 -101 -18.5 -153c0 -66 9.66699 -113.833 29 -143.5s45 -44.5 77 -44.5z" />
    <glyph glyph-name="e" unicode="e" horiz-adv-x="968" 
d="M951 782c0 -47.333 -9.33398 -90.668 -28.001 -130.001s-51.167 -74.166 -97.5 -104.499s-108.666 -56.166 -186.999 -77.499s-176.833 -38 -295.5 -50c1.33301 -70.667 16.833 -122.334 46.5 -155.001s73.5 -49 131.5 -49c27.333 0 51 2.33301 71 7s37.5 10.667 52.5 18
s28.5 15 40.5 23l34.5 23c11 7.33301 22.5 13.333 34.5 18s25.667 7 41 7c10 0 19.667 -2.5 29 -7.5s17.666 -11.5 24.999 -19.5l80 -93c-36.667 -36 -72.5 -67.167 -107.5 -93.5s-71 -48 -108 -65s-76.333 -29.5 -118 -37.5s-87.167 -12 -136.5 -12
c-61.333 0 -117.666 10.5 -168.999 31.5s-95.5 50.667 -132.5 89s-65.667 84.5 -86 138.5s-30.5 114 -30.5 180c0 55.333 6.16699 109.333 18.5 162s30 102.167 53 148.5s51.167 89 84.5 128s70.833 72.5 112.5 100.5s87.334 49.833 137.001 65.5s102.5 23.5 158.5 23.5
c55.333 0 104.5 -8 147.5 -24s79.167 -36.833 108.5 -62.5s51.666 -54.5 66.999 -86.5s23 -64 23 -96zM586.999 841.998c-51.333 0 -96.334 -20.499 -135.001 -61.499s-67.667 -97.167 -87 -168.5c64.667 10 117 20.5 157 31.5s71 23 93 36s36.833 27 44.5 42
s11.5 31.167 11.5 48.5s-6.66699 33.666 -20 48.999s-34.666 23 -63.999 23z" />
    <glyph glyph-name="f" unicode="f" horiz-adv-x="664" 
d="M484 823l-93.001 -773.002l-54 -174c-12 -38.667 -30.333 -68.667 -55 -90s-59.667 -32 -105 -32h-126l129 1070l-61 14c-17.333 4 -31.833 11.167 -43.5 21.5s-17.5 24.5 -17.5 42.5c0 4.66699 0.333008 8.33398 1 11.001l16 122h131l7 59
c7.33301 59.333 23.666 113 48.999 161s57.666 89 96.999 123s84.833 60.333 136.5 79s107.5 28 167.5 28c23.333 0 44.833 -1.5 64.5 -4.5s39.5 -7.83301 59.5 -14.5l-28 -156c-3.33301 -17.333 -12.666 -28.666 -27.999 -33.999s-30.666 -8 -45.999 -8
c-51.333 0 -92.166 -13.667 -122.499 -41s-49.5 -75 -57.5 -143l-6 -49h210l-28 -212h-197z" />
    <glyph glyph-name="g" unicode="g" horiz-adv-x="1008" 
d="M901 727c0 -42.667 -5.83594 -78.9941 -17.5029 -108.994s-24.5 -58.333 -38.5 -85s-26.833 -54 -38.5 -82s-17.5 -61 -17.5 -99c0 -27.333 4.5 -52.5 13.5 -75.5s18.833 -46.5 29.5 -70.5s20.5 -49.333 29.5 -76s13.5 -57.334 13.5 -92.001
c0 -53.333 -11.667 -103.833 -35 -151.5s-57 -89.334 -101 -125.001s-98.167 -64 -162.5 -85s-137.5 -31.5 -219.5 -31.5c-67.333 0 -127.666 7 -180.999 21s-98.5 33 -135.5 57s-65.5 52.5 -85.5 85.5s-30 68.5 -30 106.5c0 58.667 14.833 107.5 44.5 146.5
s67.834 70.333 114.501 94s98.334 40.334 155.001 50.001s112 14.5 166 14.5c30.667 0 59.834 -1.33301 87.501 -4s53.167 -6.33398 76.5 -11.001c-1.33301 8 -2 16.167 -2 24.5v26.5c0 35.333 9 75.666 27 120.999c-26 -17.333 -55.833 -31 -89.5 -41s-75.5 -15 -125.5 -15
c-39.333 0 -77 6.5 -113 19.5s-67.833 32.833 -95.5 59.5s-49.834 60.167 -66.501 100.5s-25 88.166 -25 143.499c0 51.333 9.83301 101.5 29.5 150.5s49 92.667 88 131s87.333 69.166 145 92.499s124.834 35 201.501 35c39.333 0 77.166 -4.5 113.499 -13.5
s69.833 -22.5 100.5 -40.5h298l-14 -97c-6 -40.667 -25.333 -66.334 -58 -77.001l-88 -30c4 -22 6 -44.667 6 -68zM468.997 501.006c24.667 0 46.1689 6.33203 64.502 18.999s33.666 29.167 45.999 49.5s21.666 43.166 27.999 68.499s9.5 51 9.5 77c0 43.333 -9 77 -27 101
s-45.667 36 -83 36c-24.667 0 -46.167 -5.83301 -64.5 -17.5s-33.5 -27.167 -45.5 -46.5s-21 -41.666 -27 -66.999s-9 -51.666 -9 -78.999c0 -44 9 -78.5 27 -103.5s45 -37.5 81 -37.5zM592.999 14.0049l-0.000976562 11.999c0 4 -0.333008 7.66699 -1 11
c-34 5.33301 -65.167 9.33301 -93.5 12s-54.166 4 -77.499 4c-36 0 -66.833 -2.66699 -92.5 -8s-46.667 -12.5 -63 -21.5s-28.166 -19.667 -35.499 -32s-11 -25.166 -11 -38.499c0 -34 12.5 -59.667 37.5 -77s67.167 -26 126.5 -26c30.667 0 59 4 85 12
s48.167 19.167 66.5 33.5s32.666 31.5 42.999 51.5s15.5 42.333 15.5 67z" />
    <glyph glyph-name="h" unicode="h" horiz-adv-x="1108" 
d="M43 0l182.002 1497h310l-73 -596c47.333 52 97.333 90.333 150 115s107 37 163 37c38.667 0 74.5 -7 107.5 -21s61.167 -34.5 84.5 -61.5s41.666 -60.167 54.999 -99.5s20 -84.666 20 -135.999c0 -12 -0.5 -24.333 -1.5 -37s-2.16699 -25.667 -3.5 -39l-78 -659h-310
l78 659c1.33301 10.667 2.33301 20.5 3 29.5s1 17.5 1 25.5c0 36 -6.33301 61 -19 75s-31.667 21 -57 21c-20.667 0 -42.334 -6.16699 -65.001 -18.5s-44.5 -29.833 -65.5 -52.5s-40.667 -50 -59 -82s-33.5 -67.667 -45.5 -107l-67 -550h-310z" />
    <glyph glyph-name="i" unicode="i" horiz-adv-x="540" 
d="M485 1037l-124 -1037h-306l124 1037h306zM543 1321c0 -24.667 -5.33594 -47.835 -16.0029 -69.502s-24.667 -40.667 -42 -57s-37.166 -29.333 -59.499 -39s-45.166 -14.5 -68.499 -14.5s-45.666 4.83301 -66.999 14.5s-40.166 22.667 -56.499 39s-29.5 35.333 -39.5 57
s-15 44.834 -15 69.501s5 48 15 70s23.5 41.333 40.5 58s36.167 29.834 57.5 39.501s43.666 14.5 66.999 14.5c24 0 47 -4.66699 69 -14s41.5 -22.333 58.5 -39s30.667 -36 41 -58s15.5 -45.667 15.5 -71z" />
    <glyph glyph-name="j" unicode="j" horiz-adv-x="534" 
d="M487 1037l-125.997 -1039c-6 -48.667 -18.167 -94.5 -36.5 -137.5s-43.333 -80.667 -75 -113s-70.167 -57.833 -115.5 -76.5s-97.666 -28 -156.999 -28c-29.333 0 -54.333 1.5 -75 4.5s-41.667 7.5 -63 13.5l30 163c2.66699 14 8.5 24.333 17.5 31s24.5 10 46.5 10
c21.333 0 39.166 2 53.499 6s26.166 11 35.499 21s16.666 23.5 21.999 40.5s9.66602 38.833 12.999 65.5l126 1039h304zM533.003 1321c0 -24.667 -5.33594 -47.835 -16.0029 -69.502s-24.667 -40.667 -42 -57s-37.166 -29.333 -59.499 -39s-45.166 -14.5 -68.499 -14.5
s-45.666 4.83301 -66.999 14.5s-40.166 22.667 -56.499 39s-29.5 35.333 -39.5 57s-15 44.834 -15 69.501s5 48 15 70s23.5 41.333 40.5 58s36.167 29.834 57.5 39.501s43.666 14.5 66.999 14.5c24 0 47 -4.66699 69 -14s41.5 -22.333 58.5 -39s30.667 -36 41 -58
s15.5 -45.667 15.5 -71z" />
    <glyph glyph-name="k" unicode="k" horiz-adv-x="1074" 
d="M537 1497l-103.002 -839.001h21c17.333 0 31.333 2.66699 42 8s21.334 15 32.001 29l214 292c12.667 17.333 26.667 30 42 38s34 12 56 12h278l-290 -369c-13.333 -17.333 -28 -32.666 -44 -45.999s-32.667 -25 -50 -35c14 -11.333 26.167 -24.5 36.5 -39.5
s19.5 -32.167 27.5 -51.5l208 -496h-270c-22 -0 -40.167 3.83301 -54.5 11.5s-25.5 21.167 -33.5 40.5l-144 367c-7.33301 16.667 -15.166 27.5 -23.499 32.5s-21.833 7.5 -40.5 7.5h-32l-56 -459h-306l184 1497h306z" />
    <glyph glyph-name="l" unicode="l" horiz-adv-x="520" 
d="M43 0l182 1497h306l-182 -1497h-306z" />
    <glyph glyph-name="m" unicode="m" horiz-adv-x="1594" 
d="M35 0l125.997 1037h160c32 0 57 -7.5 75 -22.5s27 -39.5 27 -73.5v-61c44 58.667 90.333 102.167 139 130.5s99.667 42.5 153 42.5c58.667 0 107.334 -19 146.001 -57s63.334 -93.333 74.001 -166c46 76.667 96.333 133 151 169s116.334 54 185.001 54
c38.667 0 73.834 -6.83301 105.501 -20.5s58.667 -33.834 81 -60.501s39.666 -59.334 51.999 -98.001s18.5 -83.334 18.5 -134.001c0 -12.667 -0.5 -25.834 -1.5 -39.501s-2.16699 -27.5 -3.5 -41.5l-78 -659h-306l78 659c1.33301 11.333 2.33301 21.666 3 30.999
s1 18.333 1 27c0 34 -5.33301 57.667 -16 71s-26.667 20 -48 20c-20.667 0 -40.5 -5.5 -59.5 -16.5s-37 -27 -54 -48s-32.5 -46.333 -46.5 -76s-26.333 -62.834 -37 -99.501l-67 -568h-306l78 659c1.33301 11.333 2.33301 21.666 3 30.999s1 18.333 1 27
c0 34 -5.33301 57.667 -16 71s-26.667 20 -48 20c-20.667 0 -40.667 -5.66699 -60 -17s-37.5 -27.666 -54.5 -48.999s-32.5 -47.166 -46.5 -77.499s-26.333 -64.166 -37 -101.499l-68 -563h-304z" />
    <glyph glyph-name="n" unicode="n" horiz-adv-x="1100" 
d="M641 0l78.0049 658.997c1.33301 10.667 2.33301 20.5 3 29.5s1 17.5 1 25.5c0 35.333 -6.16699 59.833 -18.5 73.5s-30.833 20.5 -55.5 20.5c-22.667 0 -46.334 -7 -71.001 -21s-48.167 -33.667 -70.5 -59s-42.833 -56.166 -61.5 -92.499s-33.334 -76.5 -44.001 -120.5
l-57 -515h-310l124 1037h160c32 0 57 -7.5 75 -22.5s27 -39.5 27 -73.5v-83c50 66.667 104.667 115.834 164 147.501s120.666 47.5 183.999 47.5c38.667 0 74.167 -7 106.5 -21s60.166 -34.5 83.499 -61.5s41.666 -60.167 54.999 -99.5s20 -84.666 20 -135.999
c0 -12 -0.5 -24.333 -1.5 -37s-2.16699 -25.667 -3.5 -39l-78 -659h-310z" />
    <glyph glyph-name="o" unicode="o" horiz-adv-x="1034" 
d="M471 214c34.667 0 65.667 10.5029 93 31.5029s50.5 49.667 69.5 86s33.667 78.666 44 126.999s15.5 99.833 15.5 154.5c0 75.333 -10.167 129.166 -30.5 161.499s-53.5 48.5 -99.5 48.5c-34.667 0 -65.667 -10.5 -93 -31.5s-50.5 -49.5 -69.5 -85.5
s-33.667 -78.333 -44 -127s-15.5 -100.334 -15.5 -155.001c0 -74 10.167 -127.5 30.5 -160.5s53.5 -49.5 99.5 -49.5zM443 -15.9971c-58 0 -112.167 9.66699 -162.5 29s-94 47.5 -131 84.5s-66 82.667 -87 137s-31.5 116.833 -31.5 187.5c0 92 15.167 176.5 45.5 253.5
s71.166 143.5 122.499 199.5s110.833 99.667 178.5 131s138.834 47 213.501 47c58 0 112 -9.66699 162 -29s93.5 -47.5 130.5 -84.5s66.167 -82.667 87.5 -137s32 -116.833 32 -187.5c0 -90.667 -15.167 -174.5 -45.5 -251.5s-71.166 -143.667 -122.499 -200
s-110.833 -100.333 -178.5 -132s-138.834 -47.5 -213.501 -47.5z" />
    <glyph glyph-name="p" unicode="p" horiz-adv-x="1082" 
d="M-5 -329l166.001 1366h160c32 0 57 -7.5 75 -22.5s27 -39.5 27 -73.5v-94c47.333 64 100 114.333 158 151s120 55 186 55c42.667 0 81.667 -7.5 117 -22.5s65.833 -38.5 91.5 -70.5s45.667 -72.833 60 -122.5s21.5 -108.834 21.5 -177.501
c0 -90.667 -13.833 -176.834 -41.5 -258.501s-64.834 -153.5 -111.501 -215.5s-100.5 -111.167 -161.5 -147.5s-124.833 -54.5 -191.5 -54.5c-43.333 0 -82 7 -116 21s-64 32.667 -90 56l-48 -390h-302zM643.001 818.002c-21.333 0 -43.667 -8.16797 -67 -24.501
s-45.833 -38.666 -67.5 -66.999s-42 -61.5 -61 -99.5s-34.833 -78.667 -47.5 -122l-31 -250c19.333 -15.333 40.833 -26.333 64.5 -33s46.167 -10 67.5 -10c36 0 69.167 12 99.5 36s56.5 55.5 78.5 94.5s39.167 83.5 51.5 133.5s18.5 101 18.5 153
c0 66 -9.66699 114 -29 144s-45 45 -77 45z" />
    <glyph glyph-name="q" unicode="q" horiz-adv-x="1058" 
d="M855 -329l-204.002 -0.000976562c-17.333 0 -31.666 2.83301 -42.999 8.5s-20.666 12.834 -27.999 21.501s-12.5 18.334 -15.5 29.001s-4.5 21.334 -4.5 32.001c0 6.66699 0.333008 11.667 1 15l47 365c-40.667 -50 -85.167 -88.833 -133.5 -116.5
s-100.833 -41.5 -157.5 -41.5c-37.333 0 -73.333 7.5 -108 22.5s-65.334 37.667 -92.001 68s-48 69 -64 116s-24 102.5 -24 166.5c0 94 17.167 183.167 51.5 267.5s82.333 158.166 144 221.499s134.834 113.666 219.501 150.999s177.667 56 279 56
c49.333 0 99.333 -3.33301 150 -10s100.667 -18.667 150 -36zM440.998 228.999c22 0 43.668 8.49902 65.001 25.499s41.5 40 60.5 69s36.5 63 52.5 102s29.667 80.5 41 124.5l37 290h-18c-50.667 0 -96.834 -11.333 -138.501 -34s-77.5 -53.5 -107.5 -92.5
s-53.167 -84.333 -69.5 -136s-24.5 -106.834 -24.5 -165.501c0 -33.333 2.66699 -61.666 8 -84.999s12.5 -42.166 21.5 -56.499s19.667 -24.833 32 -31.5s25.833 -10 40.5 -10z" />
    <glyph glyph-name="r" unicode="r" horiz-adv-x="750" 
d="M35 0l126.001 1037h160c32 0 57 -7.5 75 -22.5s27 -39.5 27 -73.5v-118c40 70.667 83.333 125 130 163s95 57 145 57c28 0 55.667 -6.33301 83 -19l-56 -287c-34 14.667 -66.333 22 -97 22c-51.333 0 -96.833 -23.167 -136.5 -69.5s-71.834 -120.833 -96.501 -223.5
l-56 -466h-304z" />
    <glyph glyph-name="s" unicode="s" horiz-adv-x="790" 
d="M743 819c-9.33301 -12 -17.9961 -20.6719 -25.9961 -26.0049s-18.667 -8 -32 -8s-26.5 3 -39.5 9s-27 12.833 -42 20.5s-32 14.5 -51 20.5s-40.833 9 -65.5 9c-46 0 -78.833 -8.83301 -98.5 -26.5s-29.5 -40.5 -29.5 -68.5c0 -18 5.5 -33.333 16.5 -46s25.5 -24 43.5 -34
s38.5 -19.167 61.5 -27.5s46.5 -17.666 70.5 -27.999s47.5 -22.166 70.5 -35.499s43.5 -29.666 61.5 -48.999s32.5 -42.333 43.5 -69s16.5 -58.334 16.5 -95.001c0 -52 -10.333 -101.167 -31 -147.5s-50.334 -86.666 -89.001 -120.999s-85.5 -61.666 -140.5 -81.999
s-116.833 -30.5 -185.5 -30.5c-32.667 0 -65 3.33301 -97 10s-62.167 15.667 -90.5 27s-54.166 24.833 -77.499 40.5s-42.333 32.5 -57 50.5l76 114c9.33301 13.333 20.166 23.833 32.499 31.5s27.5 11.5 45.5 11.5c16.667 0 31 -4 43 -12l39 -26
c14 -9.33301 30.667 -18 50 -26s44.666 -12 75.999 -12c44 0 76.667 9.83301 98 29.5s32 42.834 32 69.501c0 20.667 -5.5 37.667 -16.5 51s-25.5 24.833 -43.5 34.5s-38.333 18.334 -61 26.001s-46 16.167 -70 25.5s-47.333 20.166 -70 32.499s-43 27.833 -61 46.5
s-32.5 41.667 -43.5 69s-16.5 60.333 -16.5 99c0 48 8.83301 94.667 26.5 140s44 85.5 79 120.5s78.5 63.167 130.5 84.5s112.667 32 182 32s131.166 -12 185.499 -36s99.166 -53.333 134.499 -88z" />
    <glyph glyph-name="t" unicode="t" horiz-adv-x="730" 
d="M135 224l0.00195312 17.001c0 6.66699 0.5 16.167 1.5 28.5s2.66699 28.666 5 48.999l9.5 80.5l53 424h-83c-12.667 0 -23.334 4.16699 -32.001 12.5s-13 20.833 -13 37.5c0 0.666992 0.666992 6.5 2 17.5s2.66602 22.667 3.99902 35s2.66602 23.833 3.99902 34.5
s2 16.667 2 18l3 27l157 32l87 253c10 32 32.667 48 68 48h168l-38 -303h232l-26 -212h-232l-50 -407c-3.33301 -27.333 -5.83301 -48.833 -7.5 -64.5s-3 -27.667 -4 -36s-1.66699 -14 -2 -17s-0.5 -4.83301 -0.5 -5.5c0 -19.333 4.5 -35.5 13.5 -48.5
s23.167 -19.5 42.5 -19.5c10.667 0 19.5 1.16699 26.5 3.5s13.167 5 18.5 8s10.333 5.66699 15 8s10 3.5 16 3.5c9.33301 0 16.333 -2.16699 21 -6.5s9 -11.166 13 -20.499l68 -147c-41.333 -30 -85.666 -52.5 -132.999 -67.5s-95 -22.5 -143 -22.5c-40 0 -76 5.5 -108 16.5
s-59.5 27 -82.5 48s-41 46.167 -54 75.5s-20.167 62.666 -21.5 99.999z" />
    <glyph glyph-name="u" unicode="u" horiz-adv-x="1098" 
d="M459 1037l-77.999 -657.999c-1.33301 -10.667 -2.33301 -20.5 -3 -29.5s-1 -17.5 -1 -25.5c0 -35.333 6.16699 -60 18.5 -74s30.833 -21 55.5 -21c20.667 0 42.5 6.16699 65.5 18.5s45.167 29.666 66.5 51.999s41.166 49.5 59.499 81.5s33.5 67.667 45.5 107l67 549h310
l-126 -1037h-158c-73.333 0 -110 34 -110 102v66c-50 -62.667 -103.667 -109 -161 -139s-117 -45 -179 -45c-38.667 0 -74.167 7 -106.5 21s-60.333 34.5 -84 61.5s-42 60.333 -55 100s-19.5 85.167 -19.5 136.5c0 12 0.5 24.333 1.5 37s2.16699 25.667 3.5 39l78 658h310z
" />
    <glyph glyph-name="v" unicode="v" horiz-adv-x="1032" 
d="M63 1037h255.999c21.333 0 38.333 -5.16699 51 -15.5s20.334 -23.166 23.001 -38.499l68 -465c6 -39.333 11 -77.833 15 -115.5s7.33301 -75.5 10 -113.5c12 37.333 25.167 74.666 39.5 111.999l45.5 117l182 465c6 16 16.667 29 32 39s32 15 50 15h246l-504 -1037h-262z
" />
    <glyph glyph-name="w" unicode="w" horiz-adv-x="1510" 
d="M73 1037l238.001 0.00195312c20 0 37 -5 51 -15s21.667 -23 23 -39l30 -465c0 -2.66699 0.166992 -5.16699 0.5 -7.5s0.5 -4.83301 0.5 -7.5c2 -32 3.66699 -63 5 -93s2.33301 -60 3 -90c12 32 24.833 64.333 38.5 97l40.5 101l174 466
c5.33301 15.333 15.833 28.166 31.5 38.499s32.5 15.5 50.5 15.5h134c21.333 0 38.5 -5.16699 51.5 -15.5s20.5 -23.166 22.5 -38.499l60 -466l13.5 -100c4.33301 -32.667 8.16602 -65 11.499 -97c9.33301 32 19.333 64 30 96l33 101l146 465
c5.33301 15.333 15.5 28.166 30.5 38.499s31.5 15.5 49.5 15.5h228l-422 -1037h-242c-12 0 -21.833 4 -29.5 12s-13.167 21.333 -16.5 40l-76 517c-2 14.667 -3.83301 29.167 -5.5 43.5s-3.16699 28.833 -4.5 43.5c-5.33301 -15.333 -11 -30.333 -17 -45
s-11.667 -29.334 -17 -44.001l-198 -515c-14 -34.667 -36 -52 -66 -52h-232z" />
    <glyph glyph-name="x" unicode="x" horiz-adv-x="1070" 
d="M346 562l-233 474.998h284c20 0 34.5 -2.66699 43.5 -8s16.5 -14.666 22.5 -27.999l115 -267c4.66699 8.66699 9.66699 17 15 25l16 25l136 211c17.333 28 39.333 42 66 42h282l-360 -474l258 -563h-284c-20 0 -35.833 5.33301 -47.5 16s-20.5 23.334 -26.5 38.001
l-129 317c-3.33301 -7.33301 -7 -14.333 -11 -21s-8 -12.667 -12 -18l-184 -278c-9.33301 -14 -20.5 -26.5 -33.5 -37.5s-29.167 -16.5 -48.5 -16.5h-274z" />
    <glyph glyph-name="y" unicode="y" horiz-adv-x="1032" 
d="M421 -270c-10.667 -20.667 -23.833 -35.665 -39.5 -44.998s-34.5 -14 -56.5 -14h-232l237 422l-257 944h262c22 0 38.5 -5.33301 49.5 -16s18.5 -23.334 22.5 -38.001l90 -447c4 -19.333 7.66699 -38.5 11 -57.5s6 -38.167 8 -57.5c8 19.333 16.667 38.833 26 58.5
l27 58.5l192 445c8 15.333 19.667 28.166 35 38.499s31 15.5 47 15.5h250z" />
    <glyph glyph-name="z" unicode="z" horiz-adv-x="892" 
d="M889 913c-2.66699 -21.333 -8.83105 -41.667 -18.498 -61s-20.167 -36 -31.5 -50l-448 -572h408l-28 -230h-776l16 126c1.33301 12.667 6.66602 28.5 15.999 47.5s20.666 37.167 33.999 54.5l452 579h-394l28 230h758z" />
    <glyph glyph-name="braceleft" unicode="{" horiz-adv-x="552" 
d="M96 432c0 30 -6.16992 54.5049 -18.5029 73.5049s-33.5 28.5 -63.5 28.5l22 167c24.667 0 44.667 5.33301 60 16s27.333 26.5 36 47.5s14.5 47.5 17.5 79.5s4.5 69.333 4.5 112c0 7.33301 -0.166992 16.666 -0.5 27.999s-0.5 23.166 -0.5 35.499
s-0.166992 24.166 -0.5 35.499s-0.5 21 -0.5 29c0 76 8.33301 143.167 25 201.5s42.5 107.5 77.5 147.5s79.833 70.333 134.5 91s119.667 31 195 31h46l-16 -130c-1.33301 -10 -4.5 -18.333 -9.5 -25s-10.833 -12.334 -17.5 -17.001s-13.5 -8 -20.5 -10s-13.167 -3 -18.5 -3
c-38 0 -67 -13.667 -87 -41s-33 -65 -39 -113c-4.66699 -36.667 -7.66699 -71.167 -9 -103.5s-2.5 -63.666 -3.5 -93.999l-3 -89c-1 -29 -3.16699 -58.5 -6.5 -88.5c-3.33301 -25.333 -9.66602 -49.833 -18.999 -73.5s-21.5 -45.5 -36.5 -65.5s-32.667 -37.333 -53 -52
s-43.5 -26 -69.5 -34c42 -14.667 73.167 -39.334 93.5 -74.001s30.5 -73 30.5 -115c0 -38 -3.83301 -75.167 -11.5 -111.5s-16.167 -72.5 -25.5 -108.5s-17.833 -72.333 -25.5 -109s-11.5 -74.667 -11.5 -114c0 -36 7.33301 -64.667 22 -86s38 -32 70 -32
c10.667 0 22 -4.16699 34 -12.5s18 -21.166 18 -38.499c0 -4.66699 -0.666992 -13.334 -2 -26.001s-3 -26.167 -5 -40.5l-5.5 -41l-3.5 -27.5h-48c-59.333 0 -110.5 7.16699 -153.5 21.5s-78.333 34.666 -106 60.999s-48 57.833 -61 94.5s-19.5 77 -19.5 121
c0 42.667 4.33301 83.5 13 122.5s18.334 76.833 29.001 113.5s20.334 73 29.001 109s13 72.333 13 109z" />
    <glyph glyph-name="bar" unicode="|" horiz-adv-x="600" 
d="M120 1557h240v-1886h-240v1886z" />
    <glyph glyph-name="braceright" unicode="}" horiz-adv-x="552" 
d="M430 151c0 -76 -8.33496 -143.17 -25.002 -201.503s-42.5 -107.5 -77.5 -147.5s-79.667 -70.333 -134 -91s-118.833 -31 -193.5 -31h-48l18 128c3.33301 20 12.666 34.667 27.999 44s28.666 14 39.999 14c37.333 0.666992 65.833 14.5 85.5 41.5s32.5 64.167 38.5 111.5
c4.66699 36 7.83398 70.167 9.50098 102.5s2.83398 63.666 3.50098 93.999s1.5 60 2.5 89s3.16699 58.167 6.5 87.5c2.66699 25.333 8.66699 49.833 18 73.5s21.5 45.5 36.5 65.5s32.667 37.333 53 52s43.166 26 68.499 34c-42 14.667 -73.167 39.5 -93.5 74.5
s-30.5 74.167 -30.5 117.5c0 37.333 4 74 12 110s16.667 72 26 108s18 72.5 26 109.5s12 75.167 12 114.5c0 35.333 -7.16699 63.833 -21.5 85.5s-37.166 32.834 -68.499 33.501c-5.33301 0 -11.166 0.833008 -17.499 2.5s-12.166 4.5 -17.499 8.5s-9.83301 9 -13.5 15
s-5.5 13.333 -5.5 22c0 0.666992 0.666992 6.33398 2 17.001s2.66602 22.5 3.99902 35.5s2.66602 25 3.99902 36s2 16.833 2 17.5l4 31h48c58.667 0 109.334 -7.16699 152.001 -21.5s77.834 -34.666 105.501 -60.999s48 -58 61 -95s19.5 -77.833 19.5 -122.5
c0 -42 -4.33301 -82.5 -13 -121.5s-18 -76.833 -28 -113.5s-19.333 -73 -28 -109s-13 -72 -13 -108c0 -30 5.83301 -54.5 17.5 -73.5s32.5 -28.5 62.5 -28.5l-20 -167c-24.667 0 -44.667 -5.16699 -60 -15.5s-27.333 -26.166 -36 -47.499s-14.5 -48 -17.5 -80
s-4.5 -69.667 -4.5 -113v-127z" />
    <glyph glyph-name="asciitilde" unicode="~" 
d="M670 677c32 0 56.667 10.333 74 31s26 51 26 91h250c0 -56.667 -7.5 -107.667 -22.5 -153s-36.5 -83.833 -64.5 -115.5s-62.5 -56 -103.5 -73s-87.5 -25.5 -139.5 -25.5c-35.333 0 -68.5 3.83301 -99.5 11.5s-59.833 16.334 -86.5 26.001l-73.5 26
c-22.333 7.66699 -42.5 11.5 -60.5 11.5c-32 0 -56.667 -10.333 -74 -31s-26 -51 -26 -91h-250c0 56.667 7.5 107.667 22.5 153s36.5 83.833 64.5 115.5s62.5 56 103.5 73s87.5 25.5 139.5 25.5c35.333 0 68.5 -3.83301 99.5 -11.5s59.833 -16.334 86.5 -26.001l73.5 -26
c22.333 -7.66699 42.5 -11.5 60.5 -11.5z" />
    <glyph glyph-name="uni00A0" unicode="&#xa0;" horiz-adv-x="386" 
 />
    <glyph glyph-name="exclamdown" unicode="&#xa1;" horiz-adv-x="698" 
d="M110 -331l66 529c7.33301 61.333 18.333 122.166 33 182.499s31.667 121.833 51 184.5h204c1.33301 -25.333 2.5 -50.166 3.5 -74.499s1.5 -48.833 1.5 -73.5c0 -36.667 -1 -73.167 -3 -109.5s-5.33301 -72.833 -10 -109.5l-64 -529h-282zM222 882
c0 24 4.5 46.333 13.5 67s21.333 38.667 37 54s34.167 27.5 55.5 36.5s44.666 13.5 69.999 13.5c24.667 0 47.667 -4.5 69 -13.5s40 -21.167 56 -36.5s28.5 -33.333 37.5 -54s13.5 -43 13.5 -67s-4.5 -46.5 -13.5 -67.5s-21.5 -39.167 -37.5 -54.5s-34.667 -27.333 -56 -36
s-44.333 -13 -69 -13c-25.333 0 -48.666 4.33301 -69.999 13s-39.833 20.667 -55.5 36s-28 33.5 -37 54.5s-13.5 43.5 -13.5 67.5z" />
    <glyph glyph-name="cent" unicode="&#xa2;" 
d="M461 -7c-51.333 10 -98.332 27.5 -140.999 52.5s-79.667 56.667 -111 95s-55.666 83.166 -72.999 134.499s-26 108.333 -26 171c0 82 13.167 158.667 39.5 230s64.5 133.833 114.5 187.5s111.167 96.834 183.5 129.501s154.5 51 246.5 55l32 144
c2 8.66699 5.66699 17.167 11 25.5s11.833 15.833 19.5 22.5s16.334 12.167 26.001 16.5s20.167 6.5 31.5 6.5h110l-51 -229c50 -10.667 94.667 -27.167 134 -49.5s75 -50.5 107 -84.5l-90 -102c-9.33301 -11.333 -18.5 -19.5 -27.5 -24.5s-21.167 -7.5 -36.5 -7.5
c-10 0 -19.5 1.66699 -28.5 5s-18.833 7.66602 -29.5 12.999l-34.5 16.5c-12.333 5.66699 -26.5 11.167 -42.5 16.5l-135 -613c30.667 4 56.667 10.333 78 19s40.166 17.5 56.499 26.5l44.5 24c13.333 7 27.666 10.5 42.999 10.5c25.333 0 42.666 -7.66699 51.999 -23
l70 -103c-29.333 -28.667 -60 -53.167 -92 -73.5s-64.667 -37.166 -98 -50.499s-67 -23.666 -101 -30.999s-67.667 -12.333 -101 -15l-28 -129c-4 -18.667 -14.167 -35.334 -30.5 -50.001s-35.5 -22 -57.5 -22h-110zM404.001 460
c0 -56.667 9.16602 -104.668 27.499 -144.001s45.5 -68.666 81.5 -87.999l132 599c-42 -7.33301 -78.333 -21 -109 -41s-55.667 -45.833 -75 -77.5s-33.666 -68.5 -42.999 -110.5s-14 -88 -14 -138z" />
    <glyph glyph-name="sterling" unicode="&#xa3;" 
d="M929 662c-1.33301 -8.66699 -4.49902 -17.334 -9.49902 -26.001s-11.5 -16.334 -19.5 -23.001s-17.167 -12 -27.5 -16s-21.5 -6 -33.5 -6h-342l-19 -165c-5.33301 -42 -15 -79.5 -29 -112.5s-33.667 -63.833 -59 -92.5c32.667 7.33301 65.167 13.166 97.5 17.499
s64.5 6.5 96.5 6.5h518l-16 -120c-2 -14.667 -7 -29.334 -15 -44.001s-18.167 -28 -30.5 -40s-26.833 -21.833 -43.5 -29.5s-34.334 -11.5 -53.001 -11.5h-956l24 180c45.333 9.33301 79.833 26.833 103.5 52.5s38.5 63.5 44.5 113.5l30 245h-146l15 117
c1.33301 8.66699 4.5 17.167 9.5 25.5s11.5 15.833 19.5 22.5s17.167 12.167 27.5 16.5s21.5 6.5 33.5 6.5h64l27 221c8 63.333 26.167 123.5 54.5 180.5s66 107 113 150s102.833 77.167 167.5 102.5s137 38 217 38c58.667 0 110 -6.66699 154 -20
s82.333 -31.666 115 -54.999s60 -51.5 82 -84.5s40.333 -68.833 55 -107.5l-130 -77c-11.333 -7.33301 -23 -12.166 -35 -14.499s-23.667 -3.5 -35 -3.5c-30.667 0 -56 12 -76 36c-12 14.667 -23.167 27.334 -33.5 38.001s-21.333 19.334 -33 26.001s-25 11.5 -40 14.5
s-32.833 4.5 -53.5 4.5c-57.333 0 -105.5 -19.5 -144.5 -58.5s-62.833 -94.833 -71.5 -167.5l-27 -223h424l-14 -117v0z" />
    <glyph glyph-name="currency" unicode="&#xa4;" 
d="M238 674c0 32.667 3.83301 64.002 11.5 94.002s18.5 58.333 32.5 85l-154 153l156 148l150 -148c27.333 14.667 56.333 26 87 34s63 12 97 12c32 0 62.833 -3.83301 92.5 -11.5s57.834 -18.5 84.501 -32.5l153 152l154 -150l-153 -151
c15.333 -27.333 27.333 -56.5 36 -87.5s13 -63.5 13 -97.5c0 -32.667 -3.83301 -64 -11.5 -94s-18.834 -58.333 -33.501 -85l155 -152l-156 -149l-151 148c-27.333 -14.667 -56.333 -26 -87 -34s-62.667 -12 -96 -12c-32 0 -62.833 3.66699 -92.5 11
s-57.834 17.666 -84.501 30.999l-153 -150l-154 150l152 150c-15.333 27.333 -27.166 56.666 -35.499 87.999s-12.5 64 -12.5 98zM466 674.002c0 -21.333 4 -41.666 12 -60.999s18.833 -36.333 32.5 -51s29.667 -26.167 48 -34.5s38.166 -12.5 59.499 -12.5
s41.333 4.16699 60 12.5s35 19.833 49 34.5s25 31.667 33 51s12 39.666 12 60.999c0 22.667 -4 43.667 -12 63s-19 36.333 -33 51s-30.333 26.167 -49 34.5s-38.667 12.5 -60 12.5s-41.166 -4.16699 -59.499 -12.5s-34.333 -19.833 -48 -34.5s-24.5 -31.667 -32.5 -51
s-12 -40.333 -12 -63z" />
    <glyph glyph-name="yen" unicode="&#xa5;" 
d="M142 637h253l-291 818h250c27.333 0 49 -6.5 65 -19.5s27 -30.167 33 -51.5l124 -439c9.33301 -34 17.333 -65.333 24 -94s11.667 -57 15 -85c9.33301 28 20.833 56.333 34.5 85l46.5 94l226 439c9.33301 18.667 23.833 35.167 43.5 49.5s43.167 21.5 70.5 21.5h252
l-495 -818h255l-20 -160h-303l-11 -88h302l-20 -159h-302l-28 -230h-298l28 230h-306l22 159h303l11 88h-304z" />
    <glyph glyph-name="brokenbar" unicode="&#xa6;" horiz-adv-x="600" 
d="M120 1557h240v-819h-240v819zM120 490h240v-819h-240v819z" />
    <glyph glyph-name="section" unicode="&#xa7;" horiz-adv-x="934" 
d="M860 1232c-9.33301 -12.667 -18.666 -21.6641 -27.999 -26.9971s-20.666 -8 -33.999 -8c-14 0 -27.5 3.16699 -40.5 9.5l-42 21.5c-15 8 -31.5 15.167 -49.5 21.5s-39.333 9.5 -64 9.5c-23.333 0 -43.5 -2.83301 -60.5 -8.5s-31 -13.5 -42 -23.5s-19.333 -21.667 -25 -35
s-8.5 -27.333 -8.5 -42c0 -22.667 10.833 -42.334 32.5 -59.001s48.834 -33.167 81.501 -49.5l106 -51.5c38 -18 73.333 -39.167 106 -63.5s59.834 -53.166 81.501 -86.499s32.5 -73.666 32.5 -120.999c0 -58.667 -14 -112.834 -42 -162.501s-73.667 -90.167 -137 -121.5
c20 -21.333 36.167 -45.833 48.5 -73.5s18.5 -59.5 18.5 -95.5c0 -54.667 -10 -105.334 -30 -152.001s-49.167 -87.167 -87.5 -121.5s-85.5 -61.166 -141.5 -80.499s-120.333 -29 -193 -29c-32.667 0 -65.167 3.16699 -97.5 9.5s-63 15.166 -92 26.499
s-55.667 24.666 -80 39.999s-44.5 32 -60.5 50l84 111c9.33301 13.333 20.166 23.333 32.499 30s28.166 10 47.499 10c16.667 0 31.167 -4 43.5 -12l40.5 -26c14.667 -9.33301 32.334 -18 53.001 -26s47.667 -12 81 -12c41.333 0 73.666 9.83301 96.999 29.5
s35 47.5 35 83.5c0 29.333 -10.833 53.666 -32.5 72.999s-48.834 36.666 -81.501 51.999s-68 30.833 -106 46.5s-73.333 35 -106 58s-59.834 51.5 -81.501 85.5s-32.5 77 -32.5 129c0 60.667 15 114.834 45 162.501s75.333 85.5 136 113.5
c-20.667 23.333 -37.334 50 -50.001 80s-19 65.667 -19 107c0 48.667 9 95 27 139s45 82.833 81 116.5s80.5 60.334 133.5 80.001s114.5 29.5 184.5 29.5c34.667 0 67.834 -3.33301 99.501 -10s61 -15.834 88 -27.501s51.333 -25.667 73 -42s40.167 -33.833 55.5 -52.5z
M358 714.003c0 -21.333 6.5 -40.165 19.5 -56.498s30.167 -31.333 51.5 -45s45.333 -26.834 72 -39.501l82 -40c19.333 13.333 33 28.666 41 45.999s12 36 12 56c0 22 -6.33301 41.167 -19 57.5s-29.5 31.166 -50.5 44.499s-44.833 26.166 -71.5 38.499l-82 39.5
c-20 -13.333 -34.167 -28.166 -42.5 -44.499s-12.5 -35.166 -12.5 -56.499z" />
    <glyph glyph-name="dieresis" unicode="&#xa8;" horiz-adv-x="612" 
d="M376 1317c0 -21.333 -4.33301 -41.333 -13 -60s-20.5 -34.834 -35.5 -48.501s-32.333 -24.5 -52 -32.5s-40.834 -12 -63.501 -12c-21.333 0 -41.5 4 -60.5 12s-35.667 18.833 -50 32.5s-25.833 29.834 -34.5 48.501s-13 38.667 -13 60c0 22 4.33301 42.667 13 62
s20.167 36.166 34.5 50.499s31 25.666 50 33.999s39.167 12.5 60.5 12.5c22.667 0 43.834 -4.16699 63.501 -12.5s37 -19.666 52 -33.999s26.833 -31.166 35.5 -50.499s13 -40 13 -62zM762 1317c0 -21.333 -4.16699 -41.333 -12.5 -60s-19.833 -34.834 -34.5 -48.501
s-31.834 -24.5 -51.501 -32.5s-40.834 -12 -63.501 -12c-22 0 -42.667 4 -62 12s-36.333 18.833 -51 32.5s-26.167 29.834 -34.5 48.501s-12.5 38.667 -12.5 60c0 22 4.16699 42.667 12.5 62s19.833 36.166 34.5 50.499s31.667 25.666 51 33.999s40 12.5 62 12.5
c22.667 0 43.834 -4.16699 63.501 -12.5s36.834 -19.666 51.501 -33.999s26.167 -31.166 34.5 -50.499s12.5 -40 12.5 -62z" />
    <glyph glyph-name="copyright" unicode="&#xa9;" horiz-adv-x="1570" 
d="M1014 542c8 0 15.666 -1.99805 22.999 -5.99805s13.666 -9 18.999 -15l102 -105c-36 -50 -83.167 -87.833 -141.5 -113.5s-125.833 -38.5 -202.5 -38.5c-67.333 0 -128.166 12.167 -182.499 36.5s-100.5 57.666 -138.5 99.999s-67.333 91.833 -88 148.5
s-31 117.667 -31 183c0 68 12 130.5 36 187.5s56.833 106.333 98.5 148s90.5 74 146.5 97s116.333 34.5 181 34.5c76.667 0 142.667 -13.333 198 -40s100 -60 134 -100l-82 -109c-4.66699 -6 -11.167 -12.333 -19.5 -19s-19.166 -10 -32.499 -10s-24.833 3 -34.5 9l-32.5 20
c-12 7.33301 -26.833 14 -44.5 20s-41.167 9 -70.5 9c-67.333 0 -118.166 -22.167 -152.499 -66.5s-51.5 -104.5 -51.5 -180.5c0 -40 4.5 -75.333 13.5 -106s21.5 -56.334 37.5 -77.001s35.167 -36.334 57.5 -47.001s46.833 -16 73.5 -16
c31.333 0 56.166 2.83301 74.499 8.5s33.5 11.834 45.5 18.501s22.333 13 31 19s19.667 9.33301 33 10zM69.999 729.002c0 68.667 8.83301 134.667 26.5 198s42.667 122.5 75 177.5s71.166 105.167 116.499 150.5s95.666 84.166 150.999 116.499s114.5 57.333 177.5 75
s128.833 26.5 197.5 26.5s134.834 -8.83301 198.501 -26.5s123 -42.667 178 -75s105.333 -71.166 151 -116.499s84.667 -95.5 117 -150.5s57.333 -114.167 75 -177.5s26.5 -129.333 26.5 -198c0 -68 -8.83301 -133.667 -26.5 -197s-42.667 -122.5 -75 -177.5
s-71.333 -105.167 -117 -150.5s-96 -84.166 -151 -116.499s-114.333 -57.333 -178 -75s-129.834 -26.5 -198.501 -26.5s-134.5 8.83301 -197.5 26.5s-122.167 42.667 -177.5 75s-105.666 71.166 -150.999 116.499s-84.166 95.5 -116.499 150.5s-57.333 114 -75 177
s-26.5 128.833 -26.5 197.5zM235.999 729.002c0 -84.667 14.832 -163.667 44.499 -237s70.5 -137.166 122.5 -191.499s113.167 -97 183.5 -128s146.166 -46.5 227.499 -46.5c82 0 158.5 15.5 229.5 46.5s132.833 73.667 185.5 128s94 118.166 124 191.499s45 152.333 45 237
c0 56.667 -6.83301 111 -20.5 163s-33 100.5 -58 145.5s-55.167 86 -90.5 123s-74.666 68.5 -117.999 94.5s-90 46.167 -140 60.5s-102.333 21.5 -157 21.5c-81.333 0 -157.166 -15.667 -227.499 -47s-131.5 -74.5 -183.5 -129.5s-92.833 -119.5 -122.5 -193.5
s-44.5 -153.333 -44.5 -238z" />
    <glyph glyph-name="ordfeminine" unicode="&#xaa;" horiz-adv-x="652" 
d="M542 842c-19.333 0 -33.832 2.49902 -43.499 7.49902s-17.167 15.833 -22.5 32.5l-8 27c-15.333 -12.667 -30 -23.667 -44 -33s-28.167 -17.166 -42.5 -23.499s-29.333 -11 -45 -14s-33.167 -4.5 -52.5 -4.5c-51.333 0 -90.833 13 -118.5 39s-41.5 62.333 -41.5 109
c0 24 4.83301 49 14.5 75s27.5 50 53.5 72s62.167 40.667 108.5 56s106.166 24 179.499 26l2 18c0 10 -0.333008 20 -1 30s-2.66699 18.833 -6 26.5s-8.5 14 -15.5 19s-16.833 7.5 -29.5 7.5c-18 0 -32.833 -2.16699 -44.5 -6.5s-22.5 -9 -32.5 -14
s-20.167 -9.5 -30.5 -13.5s-23.166 -6 -38.499 -6s-27.333 3.83301 -36 11.5s-15.334 16.5 -20.001 26.5l-30 67c41.333 35.333 85.5 60.833 132.5 76.5s96.167 23.5 147.5 23.5c32 0 61 -5.66699 87 -17s48.333 -27 67 -47s33.167 -43.5 43.5 -70.5
s15.5 -55.833 15.5 -86.5v-13.5c0 -4.33301 -0.333008 -8.83301 -1 -13.5l-48 -387h-100zM372.001 973.999c15.333 0 29.501 2.99902 42.501 8.99902s27.167 16.333 42.5 31l8 71c-28 -1.33301 -50.667 -4.16602 -68 -8.49902s-31 -10 -41 -17s-16.833 -15 -20.5 -24
s-5.5 -18.5 -5.5 -28.5c0 -12 3.16699 -20.5 9.5 -25.5s17.166 -7.5 32.499 -7.5z" />
    <glyph glyph-name="guillemotleft" unicode="&#xab;" horiz-adv-x="964" 
d="M111 525l6.00098 36.999l292 400l92 -44c25.333 -12 38 -29.333 38 -52c0 -9.33301 -2 -18.666 -6 -27.999s-9.33301 -19.333 -16 -30l-132 -219c-6 -10 -12.5 -18.833 -19.5 -26.5s-14.167 -14.167 -21.5 -19.5c5.33301 -6 10.666 -12.667 15.999 -20
s9.66602 -15.666 12.999 -24.999l80 -219c2.66699 -7.33301 4.83398 -14.333 6.50098 -21s2.5 -13.334 2.5 -20.001c0 -31.333 -17.667 -55 -53 -71l-104 -44zM449.001 524.999l6.00098 36.999l292 400l92 -44c25.333 -12 38 -29.333 38 -52
c0 -9.33301 -2 -18.666 -6 -27.999s-9.33301 -19.333 -16 -30l-132 -219c-6 -10 -12.5 -18.833 -19.5 -26.5s-14.167 -14.167 -21.5 -19.5c5.33301 -6 10.666 -12.667 15.999 -20s9.66602 -15.666 12.999 -24.999l80 -219c2.66699 -7.33301 4.83398 -14.333 6.50098 -21
s2.5 -13.334 2.5 -20.001c0 -31.333 -17.667 -55 -53 -71l-104 -44z" />
    <glyph glyph-name="logicalnot" unicode="&#xac;" 
d="M162 779h906l-62 -493h-252l35 279h-653z" />
    <glyph glyph-name="uni00AD" unicode="&#xad;" horiz-adv-x="686" 
d="M122 728h502l-32 -242h-500z" />
    <glyph glyph-name="registered" unicode="&#xae;" horiz-adv-x="1570" 
d="M64 729c0 68.667 8.83301 134.667 26.5 198s42.667 122.5 75 177.5s71.166 105.167 116.499 150.5s95.666 84.166 150.999 116.499s114.5 57.333 177.5 75s128.833 26.5 197.5 26.5s134.834 -8.83301 198.501 -26.5s123 -42.667 178 -75s105.333 -71.166 151 -116.499
s84.667 -95.5 117 -150.5s57.333 -114.167 75 -177.5s26.5 -129.333 26.5 -198c0 -68 -8.83301 -133.667 -26.5 -197s-42.667 -122.5 -75 -177.5s-71.333 -105.167 -117 -150.5s-96 -84.166 -151 -116.499s-114.333 -57.333 -178 -75s-129.834 -26.5 -198.501 -26.5
s-134.5 8.83301 -197.5 26.5s-122.167 42.667 -177.5 75s-105.666 71.166 -150.999 116.499s-84.166 95.5 -116.499 150.5s-57.333 114 -75 177s-26.5 128.833 -26.5 197.5zM230 729c0 -84.667 14.833 -163.667 44.5 -237s70.5 -137.166 122.5 -191.499
s113.167 -97 183.5 -128s146.166 -46.5 227.499 -46.5c76.667 0 148.5 13.667 215.5 41s126.5 65.333 178.5 114h-216c-36.667 0 -62 13 -76 39l-92 231c-5.33301 12 -12.666 20.333 -21.999 25s-22 7 -38 7h-32v-302h-268v901h352c66.667 0 124.167 -6 172.5 -18
s88 -29.333 119 -52s53.833 -50.667 68.5 -84s22 -71.333 22 -114c0 -28 -3.33301 -54.833 -10 -80.5s-16.834 -49.334 -30.501 -71.001s-31.334 -41.167 -53.001 -58.5s-47.5 -31.666 -77.5 -42.999c19.333 -10 35.666 -22.833 48.999 -38.5s25.333 -34.5 36 -56.5
l124 -257c50.667 54 90.334 116.667 119.001 188s43 148.666 43 231.999c0 56.667 -6.83301 111 -20.5 163s-33 100.5 -58 145.5s-55.167 86 -90.5 123s-74.666 68.5 -117.999 94.5s-90 46.167 -140 60.5s-102.333 21.5 -157 21.5c-81.333 0 -157.166 -15.667 -227.499 -47
s-131.5 -74.5 -183.5 -129.5s-92.833 -119.5 -122.5 -193.5s-44.5 -153.333 -44.5 -238zM726 767l64.0029 0.000976562c32 0 57.167 2.5 75.5 7.5s32.166 12.167 41.499 21.5s15.166 21.166 17.499 35.499s3.5 30.5 3.5 48.5c0 17.333 -1.16699 32.5 -3.5 45.5
s-7.5 24 -15.5 33s-19.833 15.833 -35.5 20.5s-36.834 7 -63.501 7h-84v-219z" />
    <glyph glyph-name="macron" unicode="&#xaf;" horiz-adv-x="612" 
d="M132 1387h574l-24 -184h-574z" />
    <glyph glyph-name="degree" unicode="&#xb0;" horiz-adv-x="794" 
d="M112 1119c0 49.333 9.33301 95.666 28 138.999s44.334 81 77.001 113s71.167 57.333 115.5 76s92.166 28 143.499 28s99.333 -9.33301 144 -28s83.5 -44 116.5 -76s58.833 -69.667 77.5 -113s28 -89.666 28 -138.999c0 -48 -9.33301 -93.5 -28 -136.5
s-44.5 -80.5 -77.5 -112.5s-71.833 -57.5 -116.5 -76.5s-92.667 -28.5 -144 -28.5s-99.166 9.5 -143.499 28.5s-82.833 44.5 -115.5 76.5s-58.334 69.5 -77.001 112.5s-28 88.5 -28 136.5zM326 1117c0 -22 3.66699 -42.5 11 -61.5s17.666 -35.667 30.999 -50
s29.166 -25.5 47.499 -33.5s38.5 -12 60.5 -12s42.167 4 60.5 12s34.166 19.167 47.499 33.5s23.666 31 30.999 50s11 39.5 11 61.5c0 22.667 -3.66699 43.834 -11 63.501s-17.666 36.667 -30.999 51s-29.166 25.666 -47.499 33.999s-38.5 12.5 -60.5 12.5
s-42.167 -4.16699 -60.5 -12.5s-34.166 -19.666 -47.499 -33.999s-23.666 -31.333 -30.999 -51s-11 -40.834 -11 -63.501z" />
    <glyph glyph-name="plusminus" unicode="&#xb1;" 
d="M796 1266l-42 -340h374l-28 -214h-372l-40 -324h-242l40 324h-372l26 214h372l42 340h242zM62 295h988l-28 -215h-986z" />
    <glyph glyph-name="twosuperior" unicode="&#xb2;" horiz-adv-x="668" 
d="M492 1656c38.667 0 72.5 -5.33594 101.5 -16.0029s53 -25 72 -43s33.167 -39 42.5 -63s14 -49.333 14 -76c0 -30.667 -5 -58.667 -15 -84s-23.5 -49.166 -40.5 -71.499s-36.5 -43.833 -58.5 -64.5l-68 -63l-121 -110c22.667 6.66699 44.834 11.834 66.501 15.501
s41.167 5.5 58.5 5.5h80c20.667 0 36.167 -4.83301 46.5 -14.5s15.5 -22.834 15.5 -39.501c0 -3.33301 -0.833008 -11.833 -2.5 -25.5s-3.16699 -28.5 -4.5 -44.5c-2.66699 -18.667 -5 -39.334 -7 -62.001h-566l10 67c2 12.667 6.5 26.334 13.5 41.001s17.167 28 30.5 40
l224 197c16.667 14.667 32.167 30.334 46.5 47.001s27 33.334 38 50.001s19.667 33 26 49s9.5 31 9.5 45c0 15.333 -3.33301 28.333 -10 39s-18 16 -34 16c-15.333 0 -27.833 -3.66699 -37.5 -11s-19.834 -19 -30.501 -35c-9.33301 -14 -19.666 -24.667 -30.999 -32
s-26 -11 -44 -11c-8.66699 0 -18.334 1 -29.001 3l-116 19c22 80 61.333 138.667 118 176s124 56 202 56z" />
    <glyph glyph-name="threesuperior" unicode="&#xb3;" horiz-adv-x="668" 
d="M514 1656c38 0 71.168 -5.33301 99.501 -16s52 -24.5 71 -41.5s33.333 -36.333 43 -58s14.5 -43.5 14.5 -65.5c0 -44 -8.66699 -80.667 -26 -110s-48 -52.666 -92 -69.999c30 -12 52.5 -28.333 67.5 -49s22.5 -47.667 22.5 -81c0 -48 -9.33301 -89.167 -28 -123.5
s-42.5 -62.666 -71.5 -84.999s-61.667 -38.666 -98 -48.999s-71.833 -15.5 -106.5 -15.5s-66 3 -94 9s-53 16.667 -75 32s-40.833 36.166 -56.5 62.499s-27.834 60.166 -36.501 101.499l98 38c16 6 31.667 9 47 9c14.667 0 27.167 -2.66699 37.5 -8s17.5 -13.333 21.5 -24
c6 -16.667 15 -29 27 -37s25.667 -12 41 -12c24 0 43.333 7.33301 58 22s22 35.667 22 63c0 25.333 -9.16699 42 -27.5 50s-49.833 12 -94.5 12l18 144c26.667 0 48.834 1.33301 66.501 4s31.667 7.16699 42 13.5s17.5 14.666 21.5 24.999s6 23.166 6 38.499
c0 14.667 -3.5 27 -10.5 37s-20.167 15 -39.5 15c-18 0 -31.833 -3.33301 -41.5 -10s-18.5 -16.667 -26.5 -30c-10 -15.333 -20.167 -26.666 -30.5 -33.999s-23.5 -11 -39.5 -11c-8 0 -18 1 -30 3l-108 19c10.667 40 26.167 74.5 46.5 103.5s44 53 71 72
s56.667 33.167 89 42.5s66.166 14 101.499 14z" />
    <glyph glyph-name="acute" unicode="&#xb4;" horiz-adv-x="612" 
d="M802 1471l-274 -263c-16 -15.333 -31.5 -25.833 -46.5 -31.5s-33.5 -8.5 -55.5 -8.5h-178l154 245c12 18.667 26.167 33 42.5 43s39.5 15 69.5 15h288z" />
    <glyph glyph-name="mu" unicode="&#xb5;" horiz-adv-x="1072" 
d="M456 1035l-81.9971 -658.002c-1.33301 -7.33301 -2 -14.166 -2 -20.499v-18.5c0 -41.333 8.5 -73 25.5 -95s42.5 -33 76.5 -33c29.333 0 57.666 6.83301 84.999 20.5s54.333 32.167 81 55.5l94 749h298l-128 -1035h-186c-36 0 -58 16.667 -66 50l-10 61
c-19.333 -17.333 -37.333 -31.833 -54 -43.5s-33.334 -21 -50.001 -28s-33.834 -12 -51.501 -15s-36.5 -4.5 -56.5 -4.5c-27.333 0 -52.333 4 -75 12s-43 19.333 -61 34c4 -26 6 -53.333 6 -82c0 -17.333 -0.666992 -34.166 -2 -50.499l-4 -47.5l-26 -217h-148
c-38 0 -67 8.83301 -87 26.5s-30 42.5 -30 74.5v9.5c0 3 0.333008 6.16699 1 9.5l154 1246h298z" />
    <glyph glyph-name="paragraph" unicode="&#xb6;" horiz-adv-x="1458" 
d="M1550 1457l-32.002 -250.998h-209l-175 -1422h-270l175 1422h-196l-175 -1422h-270l101 822c-63.333 0 -120.666 9.5 -171.999 28.5s-95 45.167 -131 78.5s-63.667 72.666 -83 117.999s-29 94.666 -29 147.999c0 64 12.667 124.833 38 182.5s60.833 108.5 106.5 152.5
s100.334 78.833 164.001 104.5s134.167 38.5 211.5 38.5h946z" />
    <glyph glyph-name="periodcentered" unicode="&#xb7;" horiz-adv-x="570" 
d="M78 596c0 30 5.83301 58.333 17.5 85s27.667 49.834 48 69.501s44 35.167 71 46.5s56.167 17 87.5 17s60.833 -5.66699 88.5 -17s51.667 -26.833 72 -46.5s36.333 -42.834 48 -69.501s17.5 -55 17.5 -85s-5.83301 -58.167 -17.5 -84.5s-27.667 -49.333 -48 -69
s-44.333 -35.167 -72 -46.5s-57.167 -17 -88.5 -17s-60.5 5.66699 -87.5 17s-50.667 26.833 -71 46.5s-36.333 42.667 -48 69s-17.5 54.5 -17.5 84.5z" />
    <glyph glyph-name="cedilla" unicode="&#xb8;" horiz-adv-x="612" 
d="M96 -214c10 0 18.833 -1.66699 26.5 -5s17.5 -5 29.5 -5c15.333 0 26.5 4 33.5 12s10.5 16.667 10.5 26c0 13.333 -8.5 23.5 -25.5 30.5s-46.5 13.5 -88.5 19.5l60 153h186l-24 -64c47.333 -14 80.166 -32.5 98.499 -55.5s27.5 -48.167 27.5 -75.5
c0 -26 -6.83301 -49.5 -20.5 -70.5s-32.5 -38.833 -56.5 -53.5s-52.667 -25.834 -86 -33.501s-69.666 -11.5 -108.999 -11.5c-25.333 0 -48.5 1.33301 -69.5 4s-43.167 7.33398 -66.5 14.001l40 90c3.33301 7.33301 7.5 13.333 12.5 18s12.167 7 21.5 7z" />
    <glyph glyph-name="onesuperior" unicode="&#xb9;" horiz-adv-x="668" 
d="M226 1050h128.999l35 292l12 53l-58 -42c-7.33301 -5.33301 -14.666 -8.83301 -21.999 -10.5s-14.333 -2.5 -21 -2.5c-11.333 0 -21.333 2.33301 -30 7s-15 10 -19 16l-54 88l264 197h180l-74 -598h86l-18 -150h-430z" />
    <glyph glyph-name="ordmasculine" unicode="&#xba;" horiz-adv-x="728" 
d="M486 1475c42.667 0 81.3311 -6.49805 115.998 -19.498s64.334 -31.5 89.001 -55.5s43.667 -53 57 -87s20 -72 20 -114c0 -56.667 -9.16699 -107.834 -27.5 -153.501s-43.666 -84.5 -75.999 -116.5s-70.5 -56.5 -114.5 -73.5s-91.333 -25.5 -142 -25.5
c-43.333 0 -82.5 6.5 -117.5 19.5s-65 31.5 -90 55.5s-44.333 53.333 -58 88s-20.5 73.667 -20.5 117c0 56 9.33301 106.667 28 152s44.5 83.666 77.5 114.999s71.5 55.5 115.5 72.5s91.667 25.5 143 25.5zM429.997 998.002c39.333 0 66.834 17.168 82.501 51.501
s23.5 84.166 23.5 149.499c0 71.333 -23.333 107 -70 107c-24.667 0 -44.334 -4.83301 -59.001 -14.5s-26 -23.167 -34 -40.5s-13.167 -38.333 -15.5 -63s-3.5 -52 -3.5 -82c0 -72 25.333 -108 76 -108z" />
    <glyph glyph-name="guillemotright" unicode="&#xbb;" horiz-adv-x="964" 
d="M532 562l-4.00195 -36.9971l-292 -402l-92 44c-26 12.667 -39 30.667 -39 54c0 9.33301 1.83301 18.666 5.5 27.999s8.83398 19.333 15.501 30l134 219c5.33301 9.33301 11.5 17.666 18.5 24.999s14.167 13.666 21.5 18.999c-12 12 -21.333 27.667 -28 47l-82 219
c-5.33301 14 -8 26.667 -8 38c0 15.333 4.33301 29.333 13 42s22.334 22.667 41.001 30l104 44zM869.998 562.003l-4.00195 -36.9971l-292 -402l-92 44c-26 12.667 -39 30.667 -39 54c0 9.33301 1.83301 18.666 5.5 27.999s8.83398 19.333 15.501 30l134 219
c5.33301 9.33301 11.5 17.666 18.5 24.999s14.167 13.666 21.5 18.999c-12 12 -21.333 27.667 -28 47l-82 219c-5.33301 14 -8 26.667 -8 38c0 15.333 4.33301 29.333 13 42s22.334 22.667 41.001 30l104 44z" />
    <glyph glyph-name="onequarter" unicode="&#xbc;" horiz-adv-x="1475" 
d="M476 85c-23.333 -33.333 -47.834 -55.833 -73.501 -67.5s-54.5 -17.5 -86.5 -17.5h-122l951 1357c22.667 32 47.834 56.333 75.501 73s59.5 25 95.5 25h122zM1322 310h82l-14 -121c-2 -9.33301 -6.83301 -18 -14.5 -26s-17.5 -12 -29.5 -12h-44l-18 -151h-178l18 151
h-276c-18 0 -31.833 4.16699 -41.5 12.5s-15.167 18.833 -16.5 31.5l-8 102l388 451h206zM185.999 858h128.999l35 292l12 53l-58 -42c-13.333 -9.33301 -29 -14 -47 -14c-11.333 0 -20.666 2.5 -27.999 7.5s-13 10.5 -17 16.5l-54 88l264 197h180l-74 -598h86l-18 -150
h-430zM1156 413c4 36 11.667 77 23 123l-189 -226h153z" />
    <glyph glyph-name="onehalf" unicode="&#xbd;" horiz-adv-x="1475" 
d="M448 85c-23.333 -33.333 -47.834 -55.833 -73.501 -67.5s-54.5 -17.5 -86.5 -17.5h-122l951 1357c22.667 32 47.834 56.333 75.501 73s59.5 25 95.5 25h122zM1172 756c38.667 0 72.502 -5.33594 101.502 -16.0029s53 -25 72 -43s33.167 -39 42.5 -63s14 -49.333 14 -76
c0 -30.667 -5 -58.667 -15 -84s-23.5 -49.166 -40.5 -71.499s-36.5 -43.833 -58.5 -64.5l-68 -63l-121 -110c22.667 6.66699 44.834 11.834 66.501 15.501s41.167 5.5 58.5 5.5h80c20.667 0 36.167 -4.83301 46.5 -14.5s15.5 -22.834 15.5 -39.501
c0 -1.33301 -0.166992 -4.33301 -0.5 -9s-1.5 -16.334 -3.5 -35.001l-10 -88h-566l10 67c1.33301 12.667 5.66602 26.334 12.999 41.001s17.666 28 30.999 40l224 197c16.667 14.667 32.167 30.334 46.5 47.001s27 33.334 38 50.001s19.667 33 26 49s9.5 31 9.5 45
c0 15.333 -3.33301 28.333 -10 39s-18 16 -34 16c-15.333 0 -27.833 -3.83301 -37.5 -11.5s-19.834 -19.167 -30.501 -34.5c-10 -14 -20.333 -24.667 -31 -32s-25 -11 -43 -11c-4.66699 0 -10 0.333008 -16 1s-15.667 2 -29 4l-101 17c22 80 61.333 138.667 118 176
s124 56 202 56zM196.001 857.997h128.999l35 292l12 53l-58 -42c-13.333 -9.33301 -29 -14 -47 -14c-11.333 0 -20.666 2.5 -27.999 7.5s-13 10.5 -17 16.5l-54 88l264 197h180l-74 -598h86l-18 -150h-430z" />
    <glyph glyph-name="threequarters" unicode="&#xbe;" horiz-adv-x="1475" 
d="M488 85c-23.333 -33.333 -47.834 -55.833 -73.501 -67.5s-54.5 -17.5 -86.5 -17.5h-122l951 1357c22.667 32 47.834 56.333 75.501 73s59.5 25 95.5 25h122zM1332 310h82l-14 -121c-2 -9.33301 -6.83301 -18 -14.5 -26s-17.5 -12 -29.5 -12h-44l-18 -151h-178l18 151
h-276c-18 0 -31.833 4.16699 -41.5 12.5s-15.167 18.833 -16.5 31.5l-8 102l388 451h206zM485.999 1464c38 0 71.168 -5.33301 99.501 -16s52 -24.5 71 -41.5s33.333 -36.333 43 -58s14.5 -43.5 14.5 -65.5c0 -44 -8.66699 -80.667 -26 -110s-48 -52.666 -92 -69.999
c30 -12 52.5 -28.333 67.5 -49s22.5 -47.667 22.5 -81c0 -48 -9.33301 -89.167 -28 -123.5s-42.5 -62.666 -71.5 -84.999s-61.667 -38.666 -98 -48.999s-71.833 -15.5 -106.5 -15.5s-66 3 -94 9s-53 16.667 -75 32s-40.833 36.166 -56.5 62.499
s-27.834 60.166 -36.501 101.499l98 38c16 6 31.667 9 47 9c14.667 0 27.167 -2.66699 37.5 -8s17.5 -13.333 21.5 -24c6 -16.667 15 -29 27 -37s25.667 -12 41 -12c24 0 43.333 7.33301 58 22s22 35.667 22 63c0 25.333 -9.16699 42 -27.5 50s-49.833 12 -94.5 12l18 144
c26.667 0 48.834 1.33301 66.501 4s31.667 7.16699 42 13.5s17.5 14.666 21.5 24.999s6 23.166 6 38.499c0 14.667 -3.5 27 -10.5 37s-20.167 15 -39.5 15c-18 0 -31.833 -3.33301 -41.5 -10s-18.5 -16.667 -26.5 -30c-10 -15.333 -20.167 -26.666 -30.5 -33.999
s-23.5 -11 -39.5 -11c-8 0 -18 1 -30 3l-108 19c10.667 40 26.167 74.5 46.5 103.5s44 53 71 72s56.667 33.167 89 42.5s66.166 14 101.499 14zM1166 413c4 36 11.667 77 23 123l-189 -226h153z" />
    <glyph glyph-name="questiondown" unicode="&#xbf;" horiz-adv-x="820" 
d="M720 -198c-26 -20 -53.5049 -39.167 -82.5049 -57.5s-59.833 -34.166 -92.5 -47.499s-67.334 -24 -104.001 -32s-75.667 -12 -117 -12c-53.333 0 -101.166 7 -143.499 21s-78 34 -107 60s-51.167 57.5 -66.5 94.5s-23 78.5 -23 124.5c0 52.667 7.33301 97.834 22 135.501
s33.334 70.167 56.001 97.5s47.667 50.833 75 70.5l78.5 55.5c25 17.333 47.333 34.666 67 51.999s32.834 37.333 39.501 60l44 141h204v-162c0 -31.333 -7.16699 -59 -21.5 -83s-32.166 -46 -53.499 -66s-44.333 -38.833 -69 -56.5s-47.667 -35.834 -69 -54.501
s-39.166 -39 -53.499 -61s-21.5 -47.333 -21.5 -76c0 -40.667 9.5 -70.667 28.5 -90s42.167 -29 69.5 -29c31.333 0 58.166 3.66699 80.499 11s41.833 15.5 58.5 24.5s31.334 17.333 44.001 25s25 11.5 37 11.5c24.667 0 43.334 -11.333 56.001 -34zM321.995 883
c0 24 4.5 46.333 13.5 67s21.333 38.667 37 54s34.167 27.5 55.5 36.5s44.666 13.5 69.999 13.5c24.667 0 47.667 -4.5 69 -13.5s40 -21.167 56 -36.5s28.5 -33.333 37.5 -54s13.5 -43 13.5 -67s-4.5 -46.5 -13.5 -67.5s-21.5 -39.167 -37.5 -54.5s-34.667 -27.333 -56 -36
s-44.333 -13 -69 -13c-25.333 0 -48.666 4.33301 -69.999 13s-39.833 20.667 -55.5 36s-28 33.5 -37 54.5s-13.5 43.5 -13.5 67.5z" />
    <glyph glyph-name="Agrave" unicode="&#xc0;" horiz-adv-x="1326" 
d="M1288 0h-252.001c-28 0 -50.5 6.5 -67.5 19.5s-27.167 30.167 -30.5 51.5l-45 262h-495l-108 -262c-7.33301 -18.667 -21.666 -35.167 -42.999 -49.5s-45 -21.5 -71 -21.5h-256l696 1457h334zM488.999 555l366 -0.000976562l-71 416
c-6 34.667 -12.5 69.834 -19.5 105.501s-12.833 68.167 -17.5 97.5c-5.33301 -16 -12.333 -34.167 -21 -54.5l-25.5 -59.5l-24 -54c-7.66699 -16.667 -13.167 -29 -16.5 -37zM711.999 1796c14.667 0 27 -0.666992 37 -2s19 -3.5 27 -6.5s15.333 -7.5 22 -13.5
s14 -13.333 22 -22l142 -201h-256c-22 0 -39.167 3.5 -51.5 10.5s-25.833 17.167 -40.5 30.5l-232 204h330z" />
    <glyph glyph-name="Aacute" unicode="&#xc1;" horiz-adv-x="1326" 
d="M1288 0h-252.001c-28 0 -50.5 6.5 -67.5 19.5s-27.167 30.167 -30.5 51.5l-45 262h-495l-108 -262c-7.33301 -18.667 -21.666 -35.167 -42.999 -49.5s-45 -21.5 -71 -21.5h-256l696 1457h334zM488.999 555l366 -0.000976562l-71 416
c-6 34.667 -12.5 69.834 -19.5 105.501s-12.833 68.167 -17.5 97.5c-5.33301 -16 -12.333 -34.167 -21 -54.5l-25.5 -59.5l-24 -54c-7.66699 -16.667 -13.167 -29 -16.5 -37zM1274 1796l-281.998 -204c-21.333 -15.333 -40.333 -26 -57 -32s-35.334 -9 -56.001 -9h-245
l192 201c10 8.66699 19 16 27 22s16.5 10.5 25.5 13.5s18.667 5.16699 29 6.5s23.166 2 38.499 2h328z" />
    <glyph glyph-name="Acircumflex" unicode="&#xc2;" horiz-adv-x="1326" 
d="M1288 0h-252.001c-28 0 -50.5 6.5 -67.5 19.5s-27.167 30.167 -30.5 51.5l-45 262h-495l-108 -262c-7.33301 -18.667 -21.666 -35.167 -42.999 -49.5s-45 -21.5 -71 -21.5h-256l696 1457h334zM488.999 555l366 -0.000976562l-71 416
c-6 34.667 -12.5 69.834 -19.5 105.501s-12.833 68.167 -17.5 97.5c-5.33301 -16 -12.333 -34.167 -21 -54.5l-25.5 -59.5l-24 -54c-7.66699 -16.667 -13.167 -29 -16.5 -37zM1166 1551l-226.001 -0.000976562c-11.333 0 -23.666 1.33301 -36.999 4
s-23.666 7.33398 -30.999 14.001l-72 63l-88 -63c-8.66699 -6 -19.834 -10.5 -33.501 -13.5s-26.5 -4.5 -38.5 -4.5h-224l252 225h300z" />
    <glyph glyph-name="Atilde" unicode="&#xc3;" horiz-adv-x="1326" 
d="M1288 0h-252.001c-28 0 -50.5 6.5 -67.5 19.5s-27.167 30.167 -30.5 51.5l-45 262h-495l-108 -262c-7.33301 -18.667 -21.666 -35.167 -42.999 -49.5s-45 -21.5 -71 -21.5h-256l696 1457h334zM488.999 555l366 -0.000976562l-71 416
c-6 34.667 -12.5 69.834 -19.5 105.501s-12.833 68.167 -17.5 97.5c-5.33301 -16 -12.333 -34.167 -21 -54.5l-25.5 -59.5l-24 -54c-7.66699 -16.667 -13.167 -29 -16.5 -37zM929.999 1723c12 0 22.8359 4.16211 32.5029 12.4951s15.5 21.833 17.5 40.5h162
c-4.66699 -36 -13.334 -68.667 -26.001 -98s-29 -54.666 -49 -75.999s-42.833 -37.833 -68.5 -49.5s-53.834 -17.5 -84.501 -17.5c-22.667 0 -44.5 3.33301 -65.5 10s-40.833 13.834 -59.5 21.501l-51.5 21.5c-15.667 6.66699 -28.834 10 -39.501 10
c-12 0 -22.5 -4.66699 -31.5 -14s-14.5 -23.666 -16.5 -42.999h-164c4.66699 36 13.5 68.833 26.5 98.5s29.5 55.334 49.5 77.001s42.833 38.334 68.5 50.001s53.5 17.5 83.5 17.5c22.667 0 44.667 -3.16699 66 -9.5s41.333 -13.333 60 -21l50.5 -21
c15 -6.33301 28.167 -9.5 39.5 -9.5z" />
    <glyph glyph-name="Adieresis" unicode="&#xc4;" horiz-adv-x="1326" 
d="M1288 0h-252.001c-28 0 -50.5 6.5 -67.5 19.5s-27.167 30.167 -30.5 51.5l-45 262h-495l-108 -262c-7.33301 -18.667 -21.666 -35.167 -42.999 -49.5s-45 -21.5 -71 -21.5h-256l696 1457h334zM488.999 555l366 -0.000976562l-71 416
c-6 34.667 -12.5 69.834 -19.5 105.501s-12.833 68.167 -17.5 97.5c-5.33301 -16 -12.333 -34.167 -21 -54.5l-25.5 -59.5l-24 -54c-7.66699 -16.667 -13.167 -29 -16.5 -37zM737.999 1666c0 -18.667 -3.66699 -36 -11 -52s-17.5 -30 -30.5 -42s-28.167 -21.333 -45.5 -28
s-35.666 -10 -54.999 -10c-18 0 -35.167 3.33301 -51.5 10s-30.833 16 -43.5 28s-22.667 26 -30 42s-11 33.333 -11 52s3.66699 36.5 11 53.5s17.333 31.667 30 44s27.167 22.166 43.5 29.499s33.5 11 51.5 11c19.333 0 37.666 -3.66699 54.999 -11
s32.5 -17.166 45.5 -29.499s23.167 -27 30.5 -44s11 -34.833 11 -53.5zM1096 1666c0 -18.667 -3.66699 -36 -11 -52s-17.333 -30 -30 -42s-27.5 -21.333 -44.5 -28s-35.167 -10 -54.5 -10s-37.333 3.33301 -54 10s-31.167 16 -43.5 28s-22.166 26 -29.499 42
s-11 33.333 -11 52s3.66699 36.5 11 53.5s17.166 31.667 29.499 44s26.833 22.166 43.5 29.499s34.667 11 54 11s37.5 -3.66699 54.5 -11s31.833 -17.166 44.5 -29.499s22.667 -27 30 -44s11 -34.833 11 -53.5z" />
    <glyph glyph-name="Aring" unicode="&#xc5;" horiz-adv-x="1326" 
d="M1288 0h-252.001c-28 0 -50.5 6.5 -67.5 19.5s-27.167 30.167 -30.5 51.5l-45 262h-495l-108 -262c-7.33301 -18.667 -21.666 -35.167 -42.999 -49.5s-45 -21.5 -71 -21.5h-256l696 1457h334zM488.999 555l366 -0.000976562l-71 416
c-6 34.667 -12.5 69.834 -19.5 105.501s-12.833 68.167 -17.5 97.5c-5.33301 -16 -12.333 -34.167 -21 -54.5l-25.5 -59.5l-24 -54c-7.66699 -16.667 -13.167 -29 -16.5 -37zM567.999 1701c0 30.667 6.16699 58.5 18.5 83.5s28.666 46.333 48.999 64
s43.833 31.334 70.5 41.001s54.667 14.5 84 14.5c30.667 0 59.667 -4.83301 87 -14.5s51.5 -23.334 72.5 -41.001s37.667 -39 50 -64s18.5 -52.833 18.5 -83.5c0 -29.333 -6.16699 -56.166 -18.5 -80.499s-29 -45.166 -50 -62.499s-45.167 -30.666 -72.5 -39.999
s-56.333 -14 -87 -14c-29.333 0 -57.333 4.66699 -84 14s-50.167 22.666 -70.5 39.999s-36.666 38.166 -48.999 62.499s-18.5 51.166 -18.5 80.499zM713.999 1701c0 -23.333 6.5 -42.5 19.5 -57.5s33.167 -22.5 60.5 -22.5c24 0 43 7.5 57 22.5s21 34.167 21 57.5
c0 25.333 -7 45.333 -21 60s-33 22 -57 22c-27.333 0 -47.5 -7.33301 -60.5 -22s-19.5 -34.667 -19.5 -60z" />
    <glyph glyph-name="AE" unicode="&#xc6;" horiz-adv-x="1716" 
d="M716 1457h1056l-32 -251h-598v-354h426l-30 -242h-396v-359h482l-32 -251h-758v333h-429l-131 -262c-9.33301 -19.333 -25.166 -36 -47.499 -50s-47.166 -21 -74.499 -21h-254zM515.998 555h318v643c-14 -34 -28 -66 -42 -96s-28.667 -57.667 -44 -83z" />
    <glyph glyph-name="Ccedilla" unicode="&#xc7;" horiz-adv-x="1182" 
d="M486 -214c10 0 18.833 -1.66895 26.5 -5.00195s17.5 -5 29.5 -5c15.333 0 26.5 4 33.5 12s10.5 16.667 10.5 26c0 13.333 -8.5 23.5 -25.5 30.5s-46.5 13.5 -88.5 19.5l50 128c-76 11.333 -143.333 35 -202 71s-108 81.5 -148 136.5s-70.333 118.167 -91 189.5
s-31 148 -31 230c0 83.333 9.33301 162.333 28 237s45 143.667 79 207s74.833 120.333 122.5 171s100.5 93.667 158.5 129s120.333 62.5 187 81.5s136.334 28.5 209.001 28.5c54.667 0 104.5 -5.16699 149.5 -15.5s85.667 -24.666 122 -42.999s68.833 -40.166 97.5 -65.499
s53.667 -53.333 75 -84l-114 -132c-8 -9.33301 -17.333 -17.666 -28 -24.999s-24.667 -11 -42 -11c-11.333 0 -21.666 2.66699 -30.999 8s-18.833 11.833 -28.5 19.5l-32.5 25.5c-12 9.33301 -26.333 17.833 -43 25.5s-36.5 14.167 -59.5 19.5s-50.167 8 -81.5 8
c-61.333 0 -118.5 -13 -171.5 -39s-99 -63.167 -138 -111.5s-69.5 -107 -91.5 -176s-33 -146.167 -33 -231.5c0 -62 7.5 -117.333 22.5 -166s35.5 -89.834 61.5 -123.501s57 -59.334 93 -77.001s75 -26.5 117 -26.5c36.667 0 68.5 2.83301 95.5 8.5
s50.167 12.834 69.5 21.501s35.666 18.167 48.999 28.5l36 28.5c10.667 8.66699 20.667 15.834 30 21.501s19.333 8.5 30 8.5s19.5 -1.83301 26.5 -5.5s12.167 -7.83398 15.5 -12.501l114 -137c-55.333 -65.333 -119.333 -117 -192 -155s-154.334 -61.667 -245.001 -71
l-13 -35c47.333 -14 80.166 -32.5 98.499 -55.5s27.5 -48.167 27.5 -75.5c0 -26 -6.83301 -49.5 -20.5 -70.5s-32.5 -38.833 -56.5 -53.5s-52.667 -25.834 -86 -33.501s-69.666 -11.5 -108.999 -11.5c-25.333 0 -48.5 1.33301 -69.5 4s-43.167 7.33398 -66.5 14.001l40 90
c3.33301 7.33301 7.5 13.333 12.5 18s12.167 7 21.5 7z" />
    <glyph glyph-name="Egrave" unicode="&#xc8;" horiz-adv-x="1036" 
d="M1060 1206h-539l-44 -352h413l-32 -242h-411l-44 -361h543l-32 -251h-870l180 1457h868zM590 1796c14.667 0 27 -0.666992 37 -2s19 -3.5 27 -6.5s15.333 -7.5 22 -13.5s14 -13.333 22 -22l142 -201h-256c-22 0 -39.167 3.5 -51.5 10.5s-25.833 17.167 -40.5 30.5
l-232 204h330z" />
    <glyph glyph-name="Eacute" unicode="&#xc9;" horiz-adv-x="1036" 
d="M1060 1206h-539l-44 -352h413l-32 -242h-411l-44 -361h543l-32 -251h-870l180 1457h868zM1122 1796l-281.998 -204c-21.333 -15.333 -40.333 -26 -57 -32s-35.334 -9 -56.001 -9h-245l192 201c10 8.66699 19 16 27 22s16.5 10.5 25.5 13.5s18.667 5.16699 29 6.5
s23.166 2 38.499 2h328z" />
    <glyph glyph-name="Ecircumflex" unicode="&#xca;" horiz-adv-x="1036" 
d="M1060 1206h-539l-44 -352h413l-32 -242h-411l-44 -361h543l-32 -251h-870l180 1457h868zM1044 1551l-226.001 -0.000976562c-11.333 0 -23.666 1.33301 -36.999 4s-23.666 7.33398 -30.999 14.001l-72 63l-88 -63c-8.66699 -6 -19.834 -10.5 -33.501 -13.5
s-26.5 -4.5 -38.5 -4.5h-224l252 225h300z" />
    <glyph glyph-name="Edieresis" unicode="&#xcb;" horiz-adv-x="1036" 
d="M1060 1206h-539l-44 -352h413l-32 -242h-411l-44 -361h543l-32 -251h-870l180 1457h868zM616 1666c0 -18.667 -3.66699 -36 -11 -52s-17.5 -30 -30.5 -42s-28.167 -21.333 -45.5 -28s-35.666 -10 -54.999 -10c-18 0 -35.167 3.33301 -51.5 10s-30.833 16 -43.5 28
s-22.667 26 -30 42s-11 33.333 -11 52s3.66699 36.5 11 53.5s17.333 31.667 30 44s27.167 22.166 43.5 29.499s33.5 11 51.5 11c19.333 0 37.666 -3.66699 54.999 -11s32.5 -17.166 45.5 -29.499s23.167 -27 30.5 -44s11 -34.833 11 -53.5zM974 1666
c0 -18.667 -3.66699 -36 -11 -52s-17.333 -30 -30 -42s-27.5 -21.333 -44.5 -28s-35.167 -10 -54.5 -10s-37.333 3.33301 -54 10s-31.167 16 -43.5 28s-22.166 26 -29.499 42s-11 33.333 -11 52s3.66699 36.5 11 53.5s17.166 31.667 29.499 44s26.833 22.166 43.5 29.499
s34.667 11 54 11s37.5 -3.66699 54.5 -11s31.833 -17.166 44.5 -29.499s22.667 -27 30 -44s11 -34.833 11 -53.5z" />
    <glyph glyph-name="Igrave" unicode="&#xcc;" horiz-adv-x="592" 
d="M400 0h-328l178 1457h328zM349 1796c14.667 0 27 -0.666992 37 -2s19 -3.5 27 -6.5s15.333 -7.5 22 -13.5s14 -13.333 22 -22l142 -201h-256c-22 0 -39.167 3.5 -51.5 10.5s-25.833 17.167 -40.5 30.5l-232 204h330z" />
    <glyph glyph-name="Iacute" unicode="&#xcd;" horiz-adv-x="592" 
d="M400 0h-328l178 1457h328zM881 1796l-281.998 -204c-21.333 -15.333 -40.333 -26 -57 -32s-35.334 -9 -56.001 -9h-245l192 201c10 8.66699 19 16 27 22s16.5 10.5 25.5 13.5s18.667 5.16699 29 6.5s23.166 2 38.499 2h328z" />
    <glyph glyph-name="Icircumflex" unicode="&#xce;" horiz-adv-x="592" 
d="M400 0h-328l178 1457h328zM803 1551l-226.001 -0.000976562c-11.333 0 -23.666 1.33301 -36.999 4s-23.666 7.33398 -30.999 14.001l-72 63l-88 -63c-8.66699 -6 -19.834 -10.5 -33.501 -13.5s-26.5 -4.5 -38.5 -4.5h-224l252 225h300z" />
    <glyph glyph-name="Idieresis" unicode="&#xcf;" horiz-adv-x="592" 
d="M400 0h-328l178 1457h328zM375 1666c0 -18.667 -3.66699 -36 -11 -52s-17.5 -30 -30.5 -42s-28.167 -21.333 -45.5 -28s-35.666 -10 -54.999 -10c-18 0 -35.167 3.33301 -51.5 10s-30.833 16 -43.5 28s-22.667 26 -30 42s-11 33.333 -11 52s3.66699 36.5 11 53.5
s17.333 31.667 30 44s27.167 22.166 43.5 29.499s33.5 11 51.5 11c19.333 0 37.666 -3.66699 54.999 -11s32.5 -17.166 45.5 -29.499s23.167 -27 30.5 -44s11 -34.833 11 -53.5zM733 1666c0 -18.667 -3.66699 -36 -11 -52s-17.333 -30 -30 -42s-27.5 -21.333 -44.5 -28
s-35.167 -10 -54.5 -10s-37.333 3.33301 -54 10s-31.167 16 -43.5 28s-22.166 26 -29.499 42s-11 33.333 -11 52s3.66699 36.5 11 53.5s17.166 31.667 29.499 44s26.833 22.166 43.5 29.499s34.667 11 54 11s37.5 -3.66699 54.5 -11s31.833 -17.166 44.5 -29.499
s22.667 -27 30 -44s11 -34.833 11 -53.5z" />
    <glyph glyph-name="Eth" unicode="&#xd0;" horiz-adv-x="1458" 
d="M92 819l148.002 0.000976562l78 638h524c96 0 182.167 -16.167 258.5 -48.5s141.166 -76.833 194.499 -133.5s94.166 -123.667 122.499 -201s42.5 -161.333 42.5 -252c0 -79.333 -9 -154.5 -27 -225.5s-43.667 -137 -77 -198s-73.833 -116 -121.5 -165
s-101 -90.833 -160 -125.5s-123 -61.334 -192 -80.001s-141.833 -28 -218.5 -28h-524l78 641h-150zM1126 814.001c0 59.333 -6.83301 113.167 -20.5 161.5s-34 89.5 -61 123.5s-60.167 60.333 -99.5 79s-84.333 28 -135 28h-196l-46 -387h312l-22 -178h-312l-46 -390h196
c66.667 0 126.5 13.167 179.5 39.5s98 63.833 135 112.5s65.5 107.667 85.5 177s30 147.333 30 234z" />
    <glyph glyph-name="Ntilde" unicode="&#xd1;" horiz-adv-x="1392" 
d="M396 1457c14 0 25.832 -0.49707 35.499 -1.49707s18.334 -3.33301 26.001 -7s14.5 -8.83398 20.5 -15.501s12 -15.334 18 -26.001l511 -900c1.33301 23.333 3.33301 45.666 6 66.999s5 41.333 7 60l98 823h288l-180 -1457h-170c-25.333 0 -46.333 3.66699 -63 11
s-31 21.666 -43 42.999l-509 899c-1.33301 -18.667 -2.83301 -36.667 -4.5 -54s-3.16699 -33.666 -4.5 -48.999l-100 -850h-288l180 1457h172v0zM955.999 1723c12 0 22.8359 4.16211 32.5029 12.4951s15.5 21.833 17.5 40.5h162c-4.66699 -36 -13.334 -68.667 -26.001 -98
s-29 -54.666 -49 -75.999s-42.833 -37.833 -68.5 -49.5s-53.834 -17.5 -84.501 -17.5c-22.667 0 -44.5 3.33301 -65.5 10s-40.833 13.834 -59.5 21.501l-51.5 21.5c-15.667 6.66699 -28.834 10 -39.501 10c-12 0 -22.5 -4.66699 -31.5 -14s-14.5 -23.666 -16.5 -42.999h-164
c4.66699 36 13.5 68.833 26.5 98.5s29.5 55.334 49.5 77.001s42.833 38.334 68.5 50.001s53.5 17.5 83.5 17.5c22.667 0 44.667 -3.16699 66 -9.5s41.333 -13.333 60 -21l50.5 -21c15 -6.33301 28.167 -9.5 39.5 -9.5z" />
    <glyph glyph-name="Ograve" unicode="&#xd2;" horiz-adv-x="1464" 
d="M1468 822c0 -78.667 -9.16602 -153.999 -27.499 -225.999s-44.333 -139 -78 -201s-74.334 -118.333 -122.001 -169s-101.167 -93.834 -160.5 -129.501s-123.666 -63.334 -192.999 -83.001s-142.333 -29.5 -219 -29.5c-96 0 -182.167 16.833 -258.5 50.5
s-141.166 79.667 -194.499 138s-94.166 127 -122.499 206s-42.5 164.167 -42.5 255.5c0 78.667 9.16699 154.167 27.5 226.5s44.333 139.5 78 201.5s74.5 118.333 122.5 169s101.667 93.834 161 129.501s123.666 63.334 192.999 83.001s142.666 29.5 219.999 29.5
c95.333 0 181.166 -16.833 257.499 -50.5s141 -79.834 194 -138.501s93.667 -127.667 122 -207s42.5 -164.333 42.5 -255zM1134 814.001c0 60 -7.16602 114.5 -21.499 163.5s-35.333 91 -63 126s-61.5 62 -101.5 81s-85.333 28.5 -136 28.5
c-66.667 0 -126.334 -13.833 -179.001 -41.5s-97.5 -66.5 -134.5 -116.5s-65.333 -110.167 -85 -180.5s-29.5 -148.166 -29.5 -233.499c0 -60 7 -114.333 21 -163s34.5 -90.334 61.5 -125.001s60.5 -61.5 100.5 -80.5s85.667 -28.5 137 -28.5
c66.667 0 126.5 13.667 179.5 41s98 66 135 116s65.5 110 85.5 180s30 147.667 30 233zM778.002 1796c14.667 0 27 -0.666992 37 -2s19 -3.5 27 -6.5s15.333 -7.5 22 -13.5s14 -13.333 22 -22l142 -201h-256c-22 0 -39.167 3.5 -51.5 10.5s-25.833 17.167 -40.5 30.5
l-232 204h330z" />
    <glyph glyph-name="Oacute" unicode="&#xd3;" horiz-adv-x="1464" 
d="M1468 822c0 -78.667 -9.16602 -153.999 -27.499 -225.999s-44.333 -139 -78 -201s-74.334 -118.333 -122.001 -169s-101.167 -93.834 -160.5 -129.501s-123.666 -63.334 -192.999 -83.001s-142.333 -29.5 -219 -29.5c-96 0 -182.167 16.833 -258.5 50.5
s-141.166 79.667 -194.499 138s-94.166 127 -122.499 206s-42.5 164.167 -42.5 255.5c0 78.667 9.16699 154.167 27.5 226.5s44.333 139.5 78 201.5s74.5 118.333 122.5 169s101.667 93.834 161 129.501s123.666 63.334 192.999 83.001s142.666 29.5 219.999 29.5
c95.333 0 181.166 -16.833 257.499 -50.5s141 -79.834 194 -138.501s93.667 -127.667 122 -207s42.5 -164.333 42.5 -255zM1134 814.001c0 60 -7.16602 114.5 -21.499 163.5s-35.333 91 -63 126s-61.5 62 -101.5 81s-85.333 28.5 -136 28.5
c-66.667 0 -126.334 -13.833 -179.001 -41.5s-97.5 -66.5 -134.5 -116.5s-65.333 -110.167 -85 -180.5s-29.5 -148.166 -29.5 -233.499c0 -60 7 -114.333 21 -163s34.5 -90.334 61.5 -125.001s60.5 -61.5 100.5 -80.5s85.667 -28.5 137 -28.5
c66.667 0 126.5 13.667 179.5 41s98 66 135 116s65.5 110 85.5 180s30 147.667 30 233zM1310 1796l-281.998 -204c-21.333 -15.333 -40.333 -26 -57 -32s-35.334 -9 -56.001 -9h-245l192 201c10 8.66699 19 16 27 22s16.5 10.5 25.5 13.5s18.667 5.16699 29 6.5
s23.166 2 38.499 2h328z" />
    <glyph glyph-name="Ocircumflex" unicode="&#xd4;" horiz-adv-x="1464" 
d="M1468 822c0 -78.667 -9.16602 -153.999 -27.499 -225.999s-44.333 -139 -78 -201s-74.334 -118.333 -122.001 -169s-101.167 -93.834 -160.5 -129.501s-123.666 -63.334 -192.999 -83.001s-142.333 -29.5 -219 -29.5c-96 0 -182.167 16.833 -258.5 50.5
s-141.166 79.667 -194.499 138s-94.166 127 -122.499 206s-42.5 164.167 -42.5 255.5c0 78.667 9.16699 154.167 27.5 226.5s44.333 139.5 78 201.5s74.5 118.333 122.5 169s101.667 93.834 161 129.501s123.666 63.334 192.999 83.001s142.666 29.5 219.999 29.5
c95.333 0 181.166 -16.833 257.499 -50.5s141 -79.834 194 -138.501s93.667 -127.667 122 -207s42.5 -164.333 42.5 -255zM1134 814.001c0 60 -7.16602 114.5 -21.499 163.5s-35.333 91 -63 126s-61.5 62 -101.5 81s-85.333 28.5 -136 28.5
c-66.667 0 -126.334 -13.833 -179.001 -41.5s-97.5 -66.5 -134.5 -116.5s-65.333 -110.167 -85 -180.5s-29.5 -148.166 -29.5 -233.499c0 -60 7 -114.333 21 -163s34.5 -90.334 61.5 -125.001s60.5 -61.5 100.5 -80.5s85.667 -28.5 137 -28.5
c66.667 0 126.5 13.667 179.5 41s98 66 135 116s65.5 110 85.5 180s30 147.667 30 233zM1232 1551l-226.001 -0.000976562c-11.333 0 -23.666 1.33301 -36.999 4s-23.666 7.33398 -30.999 14.001l-72 63l-88 -63c-8.66699 -6 -19.834 -10.5 -33.501 -13.5
s-26.5 -4.5 -38.5 -4.5h-224l252 225h300z" />
    <glyph glyph-name="Otilde" unicode="&#xd5;" horiz-adv-x="1464" 
d="M1468 822c0 -78.667 -9.16602 -153.999 -27.499 -225.999s-44.333 -139 -78 -201s-74.334 -118.333 -122.001 -169s-101.167 -93.834 -160.5 -129.501s-123.666 -63.334 -192.999 -83.001s-142.333 -29.5 -219 -29.5c-96 0 -182.167 16.833 -258.5 50.5
s-141.166 79.667 -194.499 138s-94.166 127 -122.499 206s-42.5 164.167 -42.5 255.5c0 78.667 9.16699 154.167 27.5 226.5s44.333 139.5 78 201.5s74.5 118.333 122.5 169s101.667 93.834 161 129.501s123.666 63.334 192.999 83.001s142.666 29.5 219.999 29.5
c95.333 0 181.166 -16.833 257.499 -50.5s141 -79.834 194 -138.501s93.667 -127.667 122 -207s42.5 -164.333 42.5 -255zM1134 814.001c0 60 -7.16602 114.5 -21.499 163.5s-35.333 91 -63 126s-61.5 62 -101.5 81s-85.333 28.5 -136 28.5
c-66.667 0 -126.334 -13.833 -179.001 -41.5s-97.5 -66.5 -134.5 -116.5s-65.333 -110.167 -85 -180.5s-29.5 -148.166 -29.5 -233.499c0 -60 7 -114.333 21 -163s34.5 -90.334 61.5 -125.001s60.5 -61.5 100.5 -80.5s85.667 -28.5 137 -28.5
c66.667 0 126.5 13.667 179.5 41s98 66 135 116s65.5 110 85.5 180s30 147.667 30 233zM996.002 1723c12 0 22.8359 4.16211 32.5029 12.4951s15.5 21.833 17.5 40.5h162c-4.66699 -36 -13.334 -68.667 -26.001 -98s-29 -54.666 -49 -75.999s-42.833 -37.833 -68.5 -49.5
s-53.834 -17.5 -84.501 -17.5c-22.667 0 -44.5 3.33301 -65.5 10s-40.833 13.834 -59.5 21.501l-51.5 21.5c-15.667 6.66699 -28.834 10 -39.501 10c-12 0 -22.5 -4.66699 -31.5 -14s-14.5 -23.666 -16.5 -42.999h-164c4.66699 36 13.5 68.833 26.5 98.5
s29.5 55.334 49.5 77.001s42.833 38.334 68.5 50.001s53.5 17.5 83.5 17.5c22.667 0 44.667 -3.16699 66 -9.5s41.333 -13.333 60 -21l50.5 -21c15 -6.33301 28.167 -9.5 39.5 -9.5z" />
    <glyph glyph-name="Odieresis" unicode="&#xd6;" horiz-adv-x="1464" 
d="M1468 822c0 -78.667 -9.16602 -153.999 -27.499 -225.999s-44.333 -139 -78 -201s-74.334 -118.333 -122.001 -169s-101.167 -93.834 -160.5 -129.501s-123.666 -63.334 -192.999 -83.001s-142.333 -29.5 -219 -29.5c-96 0 -182.167 16.833 -258.5 50.5
s-141.166 79.667 -194.499 138s-94.166 127 -122.499 206s-42.5 164.167 -42.5 255.5c0 78.667 9.16699 154.167 27.5 226.5s44.333 139.5 78 201.5s74.5 118.333 122.5 169s101.667 93.834 161 129.501s123.666 63.334 192.999 83.001s142.666 29.5 219.999 29.5
c95.333 0 181.166 -16.833 257.499 -50.5s141 -79.834 194 -138.501s93.667 -127.667 122 -207s42.5 -164.333 42.5 -255zM1134 814.001c0 60 -7.16602 114.5 -21.499 163.5s-35.333 91 -63 126s-61.5 62 -101.5 81s-85.333 28.5 -136 28.5
c-66.667 0 -126.334 -13.833 -179.001 -41.5s-97.5 -66.5 -134.5 -116.5s-65.333 -110.167 -85 -180.5s-29.5 -148.166 -29.5 -233.499c0 -60 7 -114.333 21 -163s34.5 -90.334 61.5 -125.001s60.5 -61.5 100.5 -80.5s85.667 -28.5 137 -28.5
c66.667 0 126.5 13.667 179.5 41s98 66 135 116s65.5 110 85.5 180s30 147.667 30 233zM804.002 1666c0 -18.667 -3.66699 -36 -11 -52s-17.5 -30 -30.5 -42s-28.167 -21.333 -45.5 -28s-35.666 -10 -54.999 -10c-18 0 -35.167 3.33301 -51.5 10s-30.833 16 -43.5 28
s-22.667 26 -30 42s-11 33.333 -11 52s3.66699 36.5 11 53.5s17.333 31.667 30 44s27.167 22.166 43.5 29.499s33.5 11 51.5 11c19.333 0 37.666 -3.66699 54.999 -11s32.5 -17.166 45.5 -29.499s23.167 -27 30.5 -44s11 -34.833 11 -53.5zM1162 1666
c0 -18.667 -3.66699 -36 -11 -52s-17.333 -30 -30 -42s-27.5 -21.333 -44.5 -28s-35.167 -10 -54.5 -10s-37.333 3.33301 -54 10s-31.167 16 -43.5 28s-22.166 26 -29.499 42s-11 33.333 -11 52s3.66699 36.5 11 53.5s17.166 31.667 29.499 44s26.833 22.166 43.5 29.499
s34.667 11 54 11s37.5 -3.66699 54.5 -11s31.833 -17.166 44.5 -29.499s22.667 -27 30 -44s11 -34.833 11 -53.5z" />
    <glyph glyph-name="multiply" unicode="&#xd7;" 
d="M1106 985l-351 -312l291 -332l-176 -151l-289 328l-371 -330l-138 151l374 333l-276 315l176 152l274 -312l348 310z" />
    <glyph glyph-name="Oslash" unicode="&#xd8;" horiz-adv-x="1464" 
d="M1468 822c0 -78.667 -9.16699 -153.997 -27.5 -225.997s-44.333 -139 -78 -201s-74.334 -118.333 -122.001 -169s-101.167 -93.834 -160.5 -129.501s-123.666 -63.334 -192.999 -83.001s-142.333 -29.5 -219 -29.5c-56 0 -108.5 5.66699 -157.5 17
s-94.5 27.666 -136.5 48.999l-62 -79c-12.667 -16 -26.667 -29.333 -42 -40s-31.166 -19.334 -47.499 -26.001s-32.833 -11.334 -49.5 -14.001s-32.334 -4 -47.001 -4h-128l221 281c-54.667 59.333 -96.5 128.666 -125.5 207.999s-43.5 165.333 -43.5 258
c0 78.667 9.16699 154.167 27.5 226.5s44.333 139.5 78 201.5s74.5 118.333 122.5 169s101.667 93.834 161 129.501s123.666 63.334 192.999 83.001s142.666 29.5 219.999 29.5c62.667 0 121 -7.33301 175 -22s103.667 -35.667 149 -63l44 56
c11.333 14.667 21.833 27 31.5 37s19.834 18 30.501 24s22.334 10.167 35.001 12.5s27.667 3.5 45 3.5h166l-205 -261c47.333 -58 83.333 -124.167 108 -198.5s37 -154.166 37 -239.499zM384 641.003c0 -82 13.001 -153.001 39.001 -213.001l571 729
c-24.667 18 -52.167 31.833 -82.5 41.5s-63.5 14.5 -99.5 14.5c-66.667 0 -126.334 -13.833 -179.001 -41.5s-97.5 -66.5 -134.5 -116.5s-65.333 -110.167 -85 -180.5s-29.5 -148.166 -29.5 -233.499zM1134 814.002c0 32 -2.16602 62.5 -6.49902 91.5
s-10.5 56.167 -18.5 81.5l-556 -708c43.333 -23.333 93.666 -35 150.999 -35c66.667 0 126.5 13.667 179.5 41s98 66 135 116s65.5 110 85.5 180s30 147.667 30 233z" />
    <glyph glyph-name="Ugrave" unicode="&#xd9;" horiz-adv-x="1334" 
d="M640 256c40.667 0 77.6699 7.83496 111.003 23.502s62.666 38 87.999 67s46.333 64.167 63 105.5s28 87.666 34 138.999l106 866h326l-106 -866c-11.333 -88.667 -34.833 -170.167 -70.5 -244.5s-82 -138.333 -139 -192s-123.167 -95.5 -198.5 -125.5s-158 -45 -248 -45
c-81.333 0 -153.833 12.333 -217.5 37s-117.334 59.5 -161.001 104.5s-76.834 98.833 -99.501 161.5s-34 131.667 -34 207c0 31.333 2 63.666 6 96.999l104 866h326l-106 -866c-1.33301 -12 -2.33301 -23.833 -3 -35.5s-1 -23.167 -1 -34.5
c0 -82.667 18.833 -147.5 56.5 -194.5s92.167 -70.5 163.5 -70.5zM718.003 1795c14.667 0 27 -0.666992 37 -2s19 -3.5 27 -6.5s15.333 -7.5 22 -13.5s14 -13.333 22 -22l142 -201h-256c-22 0 -39.167 3.5 -51.5 10.5s-25.833 17.167 -40.5 30.5l-232 204h330z" />
    <glyph glyph-name="Uacute" unicode="&#xda;" horiz-adv-x="1334" 
d="M640 256c40.667 0 77.6699 7.83496 111.003 23.502s62.666 38 87.999 67s46.333 64.167 63 105.5s28 87.666 34 138.999l106 866h326l-106 -866c-11.333 -88.667 -34.833 -170.167 -70.5 -244.5s-82 -138.333 -139 -192s-123.167 -95.5 -198.5 -125.5s-158 -45 -248 -45
c-81.333 0 -153.833 12.333 -217.5 37s-117.334 59.5 -161.001 104.5s-76.834 98.833 -99.501 161.5s-34 131.667 -34 207c0 31.333 2 63.666 6 96.999l104 866h326l-106 -866c-1.33301 -12 -2.33301 -23.833 -3 -35.5s-1 -23.167 -1 -34.5
c0 -82.667 18.833 -147.5 56.5 -194.5s92.167 -70.5 163.5 -70.5zM1250 1795l-281.998 -204c-21.333 -15.333 -40.333 -26 -57 -32s-35.334 -9 -56.001 -9h-245l192 201c10 8.66699 19 16 27 22s16.5 10.5 25.5 13.5s18.667 5.16699 29 6.5s23.166 2 38.499 2h328z" />
    <glyph glyph-name="Ucircumflex" unicode="&#xdb;" horiz-adv-x="1334" 
d="M640 256c40.667 0 77.6699 7.83496 111.003 23.502s62.666 38 87.999 67s46.333 64.167 63 105.5s28 87.666 34 138.999l106 866h326l-106 -866c-11.333 -88.667 -34.833 -170.167 -70.5 -244.5s-82 -138.333 -139 -192s-123.167 -95.5 -198.5 -125.5s-158 -45 -248 -45
c-81.333 0 -153.833 12.333 -217.5 37s-117.334 59.5 -161.001 104.5s-76.834 98.833 -99.501 161.5s-34 131.667 -34 207c0 31.333 2 63.666 6 96.999l104 866h326l-106 -866c-1.33301 -12 -2.33301 -23.833 -3 -35.5s-1 -23.167 -1 -34.5
c0 -82.667 18.833 -147.5 56.5 -194.5s92.167 -70.5 163.5 -70.5zM1172 1550l-226.001 -0.000976562c-11.333 0 -23.666 1.33301 -36.999 4s-23.666 7.33398 -30.999 14.001l-72 63l-88 -63c-8.66699 -6 -19.834 -10.5 -33.501 -13.5s-26.5 -4.5 -38.5 -4.5h-224l252 225
h300z" />
    <glyph glyph-name="Udieresis" unicode="&#xdc;" horiz-adv-x="1334" 
d="M640 256c40.667 0 77.6699 7.83496 111.003 23.502s62.666 38 87.999 67s46.333 64.167 63 105.5s28 87.666 34 138.999l106 866h326l-106 -866c-11.333 -88.667 -34.833 -170.167 -70.5 -244.5s-82 -138.333 -139 -192s-123.167 -95.5 -198.5 -125.5s-158 -45 -248 -45
c-81.333 0 -153.833 12.333 -217.5 37s-117.334 59.5 -161.001 104.5s-76.834 98.833 -99.501 161.5s-34 131.667 -34 207c0 31.333 2 63.666 6 96.999l104 866h326l-106 -866c-1.33301 -12 -2.33301 -23.833 -3 -35.5s-1 -23.167 -1 -34.5
c0 -82.667 18.833 -147.5 56.5 -194.5s92.167 -70.5 163.5 -70.5zM744.003 1665c0 -18.667 -3.66699 -36 -11 -52s-17.5 -30 -30.5 -42s-28.167 -21.333 -45.5 -28s-35.666 -10 -54.999 -10c-18 0 -35.167 3.33301 -51.5 10s-30.833 16 -43.5 28s-22.667 26 -30 42
s-11 33.333 -11 52s3.66699 36.5 11 53.5s17.333 31.667 30 44s27.167 22.166 43.5 29.499s33.5 11 51.5 11c19.333 0 37.666 -3.66699 54.999 -11s32.5 -17.166 45.5 -29.499s23.167 -27 30.5 -44s11 -34.833 11 -53.5zM1102 1665c0 -18.667 -3.66699 -36 -11 -52
s-17.333 -30 -30 -42s-27.5 -21.333 -44.5 -28s-35.167 -10 -54.5 -10s-37.333 3.33301 -54 10s-31.167 16 -43.5 28s-22.166 26 -29.499 42s-11 33.333 -11 52s3.66699 36.5 11 53.5s17.166 31.667 29.499 44s26.833 22.166 43.5 29.499s34.667 11 54 11
s37.5 -3.66699 54.5 -11s31.833 -17.166 44.5 -29.499s22.667 -27 30 -44s11 -34.833 11 -53.5z" />
    <glyph glyph-name="Yacute" unicode="&#xdd;" horiz-adv-x="1256" 
d="M799 558l-68.999 -558.002h-326l69 555l-375 902h290c28 0 49.833 -6.5 65.5 -19.5s27.167 -30.167 34.5 -51.5l140 -441c9.33301 -29.333 17.833 -57.666 25.5 -84.999s14.167 -53.666 19.5 -78.999c12.667 25.333 26.667 51.5 42 78.5l49 85.5l248 441
c10 18 24.667 34.333 44 49s42.666 22 69.999 22h270zM1236 1793l-281.998 -204c-21.333 -15.333 -40.333 -26 -57 -32s-35.334 -9 -56.001 -9h-245l192 201c10 8.66699 19 16 27 22s16.5 10.5 25.5 13.5s18.667 5.16699 29 6.5s23.166 2 38.499 2h328z" />
    <glyph glyph-name="Thorn" unicode="&#xde;" horiz-adv-x="1180" 
d="M578 1216h158.001c86 0 159.833 -10.5 221.5 -31.5s112.5 -49.667 152.5 -86s69.333 -79.333 88 -129s28 -103.5 28 -161.5c0 -80 -12.167 -153.833 -36.5 -221.5s-61.5 -126.167 -111.5 -175.5s-113.333 -87.833 -190 -115.5s-167.334 -41.5 -272.001 -41.5h-157
l-31 -254h-324l178 1457h326zM548.001 973l-59.0039 -474h159c46.667 0 85.834 6.83301 117.501 20.5s57.334 33 77.001 58s33.834 54.833 42.501 89.5s13 72.667 13 114c0 28.667 -3.83301 54.667 -11.5 78s-19.5 43.5 -35.5 60.5s-36.167 30.167 -60.5 39.5
s-53.166 14 -86.499 14h-156z" />
    <glyph glyph-name="germandbls" unicode="&#xdf;" horiz-adv-x="1214" 
d="M785 1483c75.333 0 138.324 -10.9951 188.991 -32.9951s91.334 -49.5 122.001 -82.5s52.5 -68.5 65.5 -106.5s19.5 -73.333 19.5 -106c0 -43.333 -6.5 -80 -19.5 -110s-29.167 -55.667 -48.5 -77s-40.333 -39.666 -63 -54.999l-63 -43.5
c-19.333 -13.667 -35.5 -27.834 -48.5 -42.501s-19.5 -32 -19.5 -52c0 -17.333 6.33301 -33 19 -47s28.334 -28.333 47.001 -43l61 -47c22 -16.667 42.333 -36.667 61 -60s34.334 -50.5 47.001 -81.5s19 -67.833 19 -110.5c0 -67.333 -12.333 -126.166 -37 -176.499
s-57.334 -92.166 -98.001 -125.499s-86.834 -58.333 -138.501 -75s-104.5 -25 -158.5 -25c-27.333 0 -54.666 3.33301 -81.999 10s-53.666 15.667 -78.999 27s-49 24.833 -71 40.5s-41.333 32.5 -58 50.5l84 110c9.33301 12 20.5 21.833 33.5 29.5s28.5 11.5 46.5 11.5
c16.667 0 31.334 -4 44.001 -12s25.334 -17 38.001 -27s26.5 -19 41.5 -27s33.167 -12 54.5 -12c11.333 0 22.666 3 33.999 9s21.5 14.5 30.5 25.5s16.167 24 21.5 39s8 31.5 8 49.5c0 24 -7.16699 44.667 -21.5 62s-32.166 33.5 -53.499 48.5s-44.666 30.167 -69.999 45.5
s-48.666 33.166 -69.999 53.499s-39.166 44.166 -53.499 71.499s-21.5 60.666 -21.5 99.999c0 47.333 7.33301 87.166 22 119.499s32.834 60.333 54.501 84s45.167 44.334 70.5 62.001s48.833 35.667 70.5 54s39.834 38.166 54.501 59.499s22 47.666 22 78.999
c0 38 -11.833 68.667 -35.5 92s-60.5 35 -110.5 35c-38.667 0 -72.5 -11.5 -101.5 -34.5s-53.833 -53 -74.5 -90s-37.334 -79 -50.001 -126s-22 -94.5 -28 -142.5l-100 -831l-54 -174c-12 -38.667 -30.333 -68.667 -55 -90s-59.667 -32 -105 -32h-126l130 1070l-76 18
c-20 4.66699 -36.167 11.667 -48.5 21s-18.5 22.666 -18.5 39.999c0 0.666992 0.166992 2 0.5 4s1 7.16699 2 15.5l4.5 38l8 70.5h169c20 59.333 47.667 116.166 83 170.499s77 102.333 125 144s101.833 75 161.5 100s124.167 37.5 193.5 37.5z" />
    <glyph glyph-name="agrave" unicode="&#xe0;" horiz-adv-x="1058" 
d="M897 0l-166 0.00195312c-19.333 0 -35.5 2.5 -48.5 7.5s-23.333 11.833 -31 20.5s-13 19 -16 31s-4.5 25 -4.5 39v74c-42.667 -58.667 -90 -104.667 -142 -138s-109.333 -50 -172 -50c-37.333 0 -73.333 7.5 -108 22.5s-65.334 37.667 -92.001 68s-48 69 -64 116
s-24 102.5 -24 166.5c0 94 17.167 183.167 51.5 267.5s82.333 158.166 144 221.499s134.834 113.666 219.501 150.999s177.667 56 279 56c49.333 0 99.333 -3.33301 150 -10s100.667 -18.667 150 -36zM441 229.002c22.667 0 44.668 8.5 66.001 25.5s41.5 40.167 60.5 69.5
s36.5 63.666 52.5 102.999s29.667 81.333 41 126l36 287h-18c-50.667 0 -96.834 -11.333 -138.501 -34s-77.5 -53.5 -107.5 -92.5s-53.167 -84.333 -69.5 -136s-24.5 -106.834 -24.5 -165.501c0 -33.333 2.66699 -61.666 8 -84.999s12.5 -42.166 21.5 -56.499
s19.667 -24.833 32 -31.5s25.833 -10 40.5 -10zM673.001 1471c29.333 0 50.833 -4.83301 64.5 -14.5s24.167 -24.167 31.5 -43.5l94 -245h-170c-22 0 -39.5 3 -52.5 9s-25.5 16.333 -37.5 31l-210 263h280z" />
    <glyph glyph-name="aacute" unicode="&#xe1;" horiz-adv-x="1058" 
d="M897 0l-166 0.00195312c-19.333 0 -35.5 2.5 -48.5 7.5s-23.333 11.833 -31 20.5s-13 19 -16 31s-4.5 25 -4.5 39v74c-42.667 -58.667 -90 -104.667 -142 -138s-109.333 -50 -172 -50c-37.333 0 -73.333 7.5 -108 22.5s-65.334 37.667 -92.001 68s-48 69 -64 116
s-24 102.5 -24 166.5c0 94 17.167 183.167 51.5 267.5s82.333 158.166 144 221.499s134.834 113.666 219.501 150.999s177.667 56 279 56c49.333 0 99.333 -3.33301 150 -10s100.667 -18.667 150 -36zM441 229.002c22.667 0 44.668 8.5 66.001 25.5s41.5 40.167 60.5 69.5
s36.5 63.666 52.5 102.999s29.667 81.333 41 126l36 287h-18c-50.667 0 -96.834 -11.333 -138.501 -34s-77.5 -53.5 -107.5 -92.5s-53.167 -84.333 -69.5 -136s-24.5 -106.834 -24.5 -165.501c0 -33.333 2.66699 -61.666 8 -84.999s12.5 -42.166 21.5 -56.499
s19.667 -24.833 32 -31.5s25.833 -10 40.5 -10zM1099 1471l-274 -263c-16 -15.333 -31.5 -25.833 -46.5 -31.5s-33.5 -8.5 -55.5 -8.5h-178l154 245c12 18.667 26.167 33 42.5 43s39.5 15 69.5 15h288z" />
    <glyph glyph-name="acircumflex" unicode="&#xe2;" horiz-adv-x="1058" 
d="M897 0l-166 0.00195312c-19.333 0 -35.5 2.5 -48.5 7.5s-23.333 11.833 -31 20.5s-13 19 -16 31s-4.5 25 -4.5 39v74c-42.667 -58.667 -90 -104.667 -142 -138s-109.333 -50 -172 -50c-37.333 0 -73.333 7.5 -108 22.5s-65.334 37.667 -92.001 68s-48 69 -64 116
s-24 102.5 -24 166.5c0 94 17.167 183.167 51.5 267.5s82.333 158.166 144 221.499s134.834 113.666 219.501 150.999s177.667 56 279 56c49.333 0 99.333 -3.33301 150 -10s100.667 -18.667 150 -36zM441 229.002c22.667 0 44.668 8.5 66.001 25.5s41.5 40.167 60.5 69.5
s36.5 63.666 52.5 102.999s29.667 81.333 41 126l36 287h-18c-50.667 0 -96.834 -11.333 -138.501 -34s-77.5 -53.5 -107.5 -92.5s-53.167 -84.333 -69.5 -136s-24.5 -106.834 -24.5 -165.501c0 -33.333 2.66699 -61.666 8 -84.999s12.5 -42.166 21.5 -56.499
s19.667 -24.833 32 -31.5s25.833 -10 40.5 -10zM1043 1168l-198.001 -0.000976562c-11.333 0 -22.166 2 -32.499 6s-17.5 8.66699 -21.5 14l-64 75l-10.5 10.5c-3.66699 3.66699 -7.16699 7.83398 -10.5 12.501l-14.5 -12.5l-12.5 -10.5l-84 -75
c-6 -5.33301 -14.5 -10 -25.5 -14s-22.5 -6 -34.5 -6h-206l252 287h282z" />
    <glyph glyph-name="atilde" unicode="&#xe3;" horiz-adv-x="1058" 
d="M897 0l-166 0.00195312c-19.333 0 -35.5 2.5 -48.5 7.5s-23.333 11.833 -31 20.5s-13 19 -16 31s-4.5 25 -4.5 39v74c-42.667 -58.667 -90 -104.667 -142 -138s-109.333 -50 -172 -50c-37.333 0 -73.333 7.5 -108 22.5s-65.334 37.667 -92.001 68s-48 69 -64 116
s-24 102.5 -24 166.5c0 94 17.167 183.167 51.5 267.5s82.333 158.166 144 221.499s134.834 113.666 219.501 150.999s177.667 56 279 56c49.333 0 99.333 -3.33301 150 -10s100.667 -18.667 150 -36zM441 229.002c22.667 0 44.668 8.5 66.001 25.5s41.5 40.167 60.5 69.5
s36.5 63.666 52.5 102.999s29.667 81.333 41 126l36 287h-18c-50.667 0 -96.834 -11.333 -138.501 -34s-77.5 -53.5 -107.5 -92.5s-53.167 -84.333 -69.5 -136s-24.5 -106.834 -24.5 -165.501c0 -33.333 2.66699 -61.666 8 -84.999s12.5 -42.166 21.5 -56.499
s19.667 -24.833 32 -31.5s25.833 -10 40.5 -10zM811.001 1381c14 0 25.832 4.49902 35.499 13.499s16.5 27.167 20.5 54.5h180c-5.33301 -40.667 -15.5 -77.5 -30.5 -110.5s-33.667 -61 -56 -84s-47.5 -40.833 -75.5 -53.5s-57.333 -19 -88 -19c-23.333 0 -44.333 4 -63 12
s-35.834 16.667 -51.501 26l-42.5 26c-12.667 8 -24.334 12 -35.001 12c-14 0 -25.667 -4.83301 -35 -14.5s-15.666 -28.167 -18.999 -55.5h-182c4.66699 40.667 14.834 77.5 30.501 110.5s34.667 61.333 57 85s47.5 41.834 75.5 54.501s57 19 87 19
c22.667 0 43.5 -4 62.5 -12s36.333 -16.667 52 -26l42.5 -26c12.667 -8 24.334 -12 35.001 -12z" />
    <glyph glyph-name="adieresis" unicode="&#xe4;" horiz-adv-x="1058" 
d="M897 0l-166 0.00195312c-19.333 0 -35.5 2.5 -48.5 7.5s-23.333 11.833 -31 20.5s-13 19 -16 31s-4.5 25 -4.5 39v74c-42.667 -58.667 -90 -104.667 -142 -138s-109.333 -50 -172 -50c-37.333 0 -73.333 7.5 -108 22.5s-65.334 37.667 -92.001 68s-48 69 -64 116
s-24 102.5 -24 166.5c0 94 17.167 183.167 51.5 267.5s82.333 158.166 144 221.499s134.834 113.666 219.501 150.999s177.667 56 279 56c49.333 0 99.333 -3.33301 150 -10s100.667 -18.667 150 -36zM441 229.002c22.667 0 44.668 8.5 66.001 25.5s41.5 40.167 60.5 69.5
s36.5 63.666 52.5 102.999s29.667 81.333 41 126l36 287h-18c-50.667 0 -96.834 -11.333 -138.501 -34s-77.5 -53.5 -107.5 -92.5s-53.167 -84.333 -69.5 -136s-24.5 -106.834 -24.5 -165.501c0 -33.333 2.66699 -61.666 8 -84.999s12.5 -42.166 21.5 -56.499
s19.667 -24.833 32 -31.5s25.833 -10 40.5 -10zM673.001 1317c0 -21.333 -4.33301 -41.333 -13 -60s-20.5 -34.834 -35.5 -48.501s-32.333 -24.5 -52 -32.5s-40.834 -12 -63.501 -12c-21.333 0 -41.5 4 -60.5 12s-35.667 18.833 -50 32.5s-25.833 29.834 -34.5 48.501
s-13 38.667 -13 60c0 22 4.33301 42.667 13 62s20.167 36.166 34.5 50.499s31 25.666 50 33.999s39.167 12.5 60.5 12.5c22.667 0 43.834 -4.16699 63.501 -12.5s37 -19.666 52 -33.999s26.833 -31.166 35.5 -50.499s13 -40 13 -62zM1059 1317
c0 -21.333 -4.16699 -41.333 -12.5 -60s-19.833 -34.834 -34.5 -48.501s-31.834 -24.5 -51.501 -32.5s-40.834 -12 -63.501 -12c-22 0 -42.667 4 -62 12s-36.333 18.833 -51 32.5s-26.167 29.834 -34.5 48.501s-12.5 38.667 -12.5 60c0 22 4.16699 42.667 12.5 62
s19.833 36.166 34.5 50.499s31.667 25.666 51 33.999s40 12.5 62 12.5c22.667 0 43.834 -4.16699 63.501 -12.5s36.834 -19.666 51.501 -33.999s26.167 -31.166 34.5 -50.499s12.5 -40 12.5 -62z" />
    <glyph glyph-name="aring" unicode="&#xe5;" horiz-adv-x="1058" 
d="M897 0l-166 0.00195312c-19.333 0 -35.5 2.5 -48.5 7.5s-23.333 11.833 -31 20.5s-13 19 -16 31s-4.5 25 -4.5 39v74c-42.667 -58.667 -90 -104.667 -142 -138s-109.333 -50 -172 -50c-37.333 0 -73.333 7.5 -108 22.5s-65.334 37.667 -92.001 68s-48 69 -64 116
s-24 102.5 -24 166.5c0 94 17.167 183.167 51.5 267.5s82.333 158.166 144 221.499s134.834 113.666 219.501 150.999s177.667 56 279 56c49.333 0 99.333 -3.33301 150 -10s100.667 -18.667 150 -36zM441 229.002c22.667 0 44.668 8.5 66.001 25.5s41.5 40.167 60.5 69.5
s36.5 63.666 52.5 102.999s29.667 81.333 41 126l36 287h-18c-50.667 0 -96.834 -11.333 -138.501 -34s-77.5 -53.5 -107.5 -92.5s-53.167 -84.333 -69.5 -136s-24.5 -106.834 -24.5 -165.501c0 -33.333 2.66699 -61.666 8 -84.999s12.5 -42.166 21.5 -56.499
s19.667 -24.833 32 -31.5s25.833 -10 40.5 -10zM481.001 1334c0 33.333 6.66699 63.5 20 90.5s31 50.167 53 69.5s47.667 34.166 77 44.499s60 15.5 92 15.5c32.667 0 64 -5.16699 94 -15.5s56.5 -25.166 79.5 -44.499s41.167 -42.5 54.5 -69.5s20 -57.167 20 -90.5
c0 -32.667 -6.66699 -62.167 -20 -88.5s-31.5 -48.833 -54.5 -67.5s-49.5 -33.167 -79.5 -43.5s-61.333 -15.5 -94 -15.5c-32 0 -62.667 5.16699 -92 15.5s-55 24.833 -77 43.5s-39.667 41.167 -53 67.5s-20 55.833 -20 88.5zM647.001 1334c0 -23.333 6.5 -42.5 19.5 -57.5
s33.167 -22.5 60.5 -22.5c24 0 43 7.5 57 22.5s21 34.167 21 57.5c0 25.333 -7 45.333 -21 60s-33 22 -57 22c-27.333 0 -47.5 -7.33301 -60.5 -22s-19.5 -34.667 -19.5 -60z" />
    <glyph glyph-name="ae" unicode="&#xe6;" horiz-adv-x="1473" 
d="M1122 1051c44.667 0 86.502 -7.33203 125.502 -21.999s73 -34.667 102 -60s51.667 -54.833 68 -88.5s24.5 -69.5 24.5 -107.5c0 -24 -3 -48.5 -9 -73.5s-17 -49.333 -33 -73s-37.667 -46 -65 -67s-62.5 -39.833 -105.5 -56.5s-94.5 -30.5 -154.5 -41.5
s-130.333 -17.833 -211 -20.5c2 -79.333 18.667 -136.666 50 -171.999s75.333 -53 132 -53c27.333 0 51 2.33301 71 7s37.5 10.667 52.5 18s28.5 15 40.5 23l34.5 23c11 7.33301 22.5 13.333 34.5 18s25.667 7 41 7c10 0 19.667 -2.5 29 -7.5s17.666 -11.5 24.999 -19.5
l80 -93c-36.667 -36 -72.5 -67.167 -107.5 -93.5s-71 -48 -108 -65s-76.333 -29.5 -118 -37.5s-87.167 -12 -136.5 -12c-61.333 0 -118.666 14.5 -171.999 43.5s-97 74.5 -131 136.5c-23.333 -31.333 -49.166 -58.333 -77.499 -81s-58.333 -41.334 -90 -56.001
s-64.334 -25.5 -98.001 -32.5s-66.834 -10.5 -99.501 -10.5c-108 0 -187.667 22.333 -239 67s-77 106.667 -77 186c0 28 3.83301 56.833 11.5 86.5s20.5 58.334 38.5 86.001s42 54 72 79s67.167 47 111.5 66s96.666 34.5 156.999 46.5s130.166 19 209.499 21
c3.33301 21.333 5.33301 36.666 6 45.999s1 17.666 1 24.999c0 46 -9.5 79.5 -28.5 100.5s-45.833 31.5 -80.5 31.5c-33.333 0 -60.833 -4.16699 -82.5 -12.5s-41.5 -17.333 -59.5 -27l-52.5 -27c-17 -8.33301 -36.833 -12.5 -59.5 -12.5c-20 0 -36.667 5 -50 15
s-23.333 22.333 -30 37l-42 94c64.667 54.667 130.334 95.5 197.001 122.5s137.667 40.5 213 40.5c68.667 0 124.334 -12.167 167.001 -36.5s74.667 -57.833 96 -100.5c42 42 90.167 74.667 144.5 98s115.166 35 182.499 35zM578.002 446.001
c-60.667 -3.33301 -109.832 -10.168 -147.499 -20.501s-67 -23.166 -88 -38.499s-35.333 -32.833 -43 -52.5s-11.5 -40.167 -11.5 -61.5c0 -61.333 28.667 -92 86 -92c24.667 0 48.167 4.33301 70.5 13s42.333 22.667 60 42s32.667 44.5 45 75.5s21.166 68.833 26.499 113.5
zM1082 843.999c-29.333 0 -55.501 -5.5 -78.501 -16.5s-43 -26.667 -60 -47s-31.167 -44.833 -42.5 -73.5s-20 -60.667 -26 -96c64 6 115.5 14.167 154.5 24.5s69 21.833 90 34.5s35 26.5 42 41.5s10.5 30.5 10.5 46.5c0 23.333 -6.66699 43.5 -20 60.5
s-36.666 25.5 -69.999 25.5z" />
    <glyph glyph-name="ccedilla" unicode="&#xe7;" horiz-adv-x="876" 
d="M293 -214c10 0 18.8301 -1.66699 26.4971 -5s17.5 -5 29.5 -5c15.333 0 26.5 4 33.5 12s10.5 16.667 10.5 26c0 13.333 -8.5 23.5 -25.5 30.5s-46.5 13.5 -88.5 19.5l51 132c-44.667 10.667 -84.834 28.334 -120.501 53.001s-66 55.167 -91 91.5
s-44.167 78.333 -57.5 126s-20 99.834 -20 156.501c0 84.667 13.833 165 41.5 241s66.334 142.667 116.001 200s108.5 102.833 176.5 136.5s142.667 50.5 224 50.5c69.333 0 128.833 -11.833 178.5 -35.5s94.167 -60.834 133.5 -111.501l-100 -115
c-7.33301 -7.33301 -15.666 -13.833 -24.999 -19.5s-19.666 -8.5 -30.999 -8.5c-13.333 0 -24.5 2.83301 -33.5 8.5l-29.5 18c-10.667 6.33301 -23.667 12.333 -39 18s-35.333 8.5 -60 8.5c-30.667 0 -60.5 -8.83301 -89.5 -26.5s-54.833 -43.167 -77.5 -76.5
s-40.834 -74.333 -54.501 -123s-20.5 -104 -20.5 -166c0 -34.667 4 -64.834 12 -90.501s19 -47 33 -64s30.333 -29.833 49 -38.5s38.667 -13 60 -13c32 0 57.833 4.5 77.5 13.5s36.834 18.833 51.501 29.5l41 29.5c12.667 9 28 13.5 46 13.5c10 0 19.833 -2.33301 29.5 -7
s17.834 -11 24.501 -19l80 -94c-28 -31.333 -55.167 -58.5 -81.5 -81.5s-53 -42.167 -80 -57.5s-55.167 -27.5 -84.5 -36.5s-61 -15.167 -95 -18.5l-13 -35c47.333 -14 80.166 -32.5 98.499 -55.5s27.5 -48.167 27.5 -75.5c0 -26 -6.83301 -49.5 -20.5 -70.5
s-32.5 -38.833 -56.5 -53.5s-52.667 -25.834 -86 -33.501s-69.666 -11.5 -108.999 -11.5c-25.333 0 -48.5 1.33301 -69.5 4s-43.167 7.33398 -66.5 14.001l40 90c3.33301 7.33301 7.5 13.333 12.5 18s12.167 7 21.5 7z" />
    <glyph glyph-name="egrave" unicode="&#xe8;" horiz-adv-x="968" 
d="M951 782c0 -47.333 -9.33398 -90.668 -28.001 -130.001s-51.167 -74.166 -97.5 -104.499s-108.666 -56.166 -186.999 -77.499s-176.833 -38 -295.5 -50c1.33301 -70.667 16.833 -122.334 46.5 -155.001s73.5 -49 131.5 -49c27.333 0 51 2.33301 71 7s37.5 10.667 52.5 18
s28.5 15 40.5 23l34.5 23c11 7.33301 22.5 13.333 34.5 18s25.667 7 41 7c10 0 19.667 -2.5 29 -7.5s17.666 -11.5 24.999 -19.5l80 -93c-36.667 -36 -72.5 -67.167 -107.5 -93.5s-71 -48 -108 -65s-76.333 -29.5 -118 -37.5s-87.167 -12 -136.5 -12
c-61.333 0 -117.666 10.5 -168.999 31.5s-95.5 50.667 -132.5 89s-65.667 84.5 -86 138.5s-30.5 114 -30.5 180c0 55.333 6.16699 109.333 18.5 162s30 102.167 53 148.5s51.167 89 84.5 128s70.833 72.5 112.5 100.5s87.334 49.833 137.001 65.5s102.5 23.5 158.5 23.5
c55.333 0 104.5 -8 147.5 -24s79.167 -36.833 108.5 -62.5s51.666 -54.5 66.999 -86.5s23 -64 23 -96zM586.999 841.998c-51.333 0 -96.334 -20.499 -135.001 -61.499s-67.667 -97.167 -87 -168.5c64.667 10 117 20.5 157 31.5s71 23 93 36s36.833 27 44.5 42
s11.5 31.167 11.5 48.5s-6.66699 33.666 -20 48.999s-34.666 23 -63.999 23zM552.998 1471c29.333 0 50.833 -4.83301 64.5 -14.5s24.167 -24.167 31.5 -43.5l94 -245h-170c-22 0 -39.5 3 -52.5 9s-25.5 16.333 -37.5 31l-210 263h280z" />
    <glyph glyph-name="eacute" unicode="&#xe9;" horiz-adv-x="968" 
d="M951 782c0 -47.333 -9.33398 -90.668 -28.001 -130.001s-51.167 -74.166 -97.5 -104.499s-108.666 -56.166 -186.999 -77.499s-176.833 -38 -295.5 -50c1.33301 -70.667 16.833 -122.334 46.5 -155.001s73.5 -49 131.5 -49c27.333 0 51 2.33301 71 7s37.5 10.667 52.5 18
s28.5 15 40.5 23l34.5 23c11 7.33301 22.5 13.333 34.5 18s25.667 7 41 7c10 0 19.667 -2.5 29 -7.5s17.666 -11.5 24.999 -19.5l80 -93c-36.667 -36 -72.5 -67.167 -107.5 -93.5s-71 -48 -108 -65s-76.333 -29.5 -118 -37.5s-87.167 -12 -136.5 -12
c-61.333 0 -117.666 10.5 -168.999 31.5s-95.5 50.667 -132.5 89s-65.667 84.5 -86 138.5s-30.5 114 -30.5 180c0 55.333 6.16699 109.333 18.5 162s30 102.167 53 148.5s51.167 89 84.5 128s70.833 72.5 112.5 100.5s87.334 49.833 137.001 65.5s102.5 23.5 158.5 23.5
c55.333 0 104.5 -8 147.5 -24s79.167 -36.833 108.5 -62.5s51.666 -54.5 66.999 -86.5s23 -64 23 -96zM586.999 841.998c-51.333 0 -96.334 -20.499 -135.001 -61.499s-67.667 -97.167 -87 -168.5c64.667 10 117 20.5 157 31.5s71 23 93 36s36.833 27 44.5 42
s11.5 31.167 11.5 48.5s-6.66699 33.666 -20 48.999s-34.666 23 -63.999 23zM1019 1471l-274 -263c-16 -15.333 -31.5 -25.833 -46.5 -31.5s-33.5 -8.5 -55.5 -8.5h-178l154 245c12 18.667 26.167 33 42.5 43s39.5 15 69.5 15h288z" />
    <glyph glyph-name="ecircumflex" unicode="&#xea;" horiz-adv-x="968" 
d="M951 782c0 -47.333 -9.33398 -90.668 -28.001 -130.001s-51.167 -74.166 -97.5 -104.499s-108.666 -56.166 -186.999 -77.499s-176.833 -38 -295.5 -50c1.33301 -70.667 16.833 -122.334 46.5 -155.001s73.5 -49 131.5 -49c27.333 0 51 2.33301 71 7s37.5 10.667 52.5 18
s28.5 15 40.5 23l34.5 23c11 7.33301 22.5 13.333 34.5 18s25.667 7 41 7c10 0 19.667 -2.5 29 -7.5s17.666 -11.5 24.999 -19.5l80 -93c-36.667 -36 -72.5 -67.167 -107.5 -93.5s-71 -48 -108 -65s-76.333 -29.5 -118 -37.5s-87.167 -12 -136.5 -12
c-61.333 0 -117.666 10.5 -168.999 31.5s-95.5 50.667 -132.5 89s-65.667 84.5 -86 138.5s-30.5 114 -30.5 180c0 55.333 6.16699 109.333 18.5 162s30 102.167 53 148.5s51.167 89 84.5 128s70.833 72.5 112.5 100.5s87.334 49.833 137.001 65.5s102.5 23.5 158.5 23.5
c55.333 0 104.5 -8 147.5 -24s79.167 -36.833 108.5 -62.5s51.666 -54.5 66.999 -86.5s23 -64 23 -96zM586.999 841.998c-51.333 0 -96.334 -20.499 -135.001 -61.499s-67.667 -97.167 -87 -168.5c64.667 10 117 20.5 157 31.5s71 23 93 36s36.833 27 44.5 42
s11.5 31.167 11.5 48.5s-6.66699 33.666 -20 48.999s-34.666 23 -63.999 23zM962.998 1168l-198.001 -0.000976562c-11.333 0 -22.166 2 -32.499 6s-17.5 8.66699 -21.5 14l-64 75l-10.5 10.5c-3.66699 3.66699 -7.16699 7.83398 -10.5 12.501l-14.5 -12.5l-12.5 -10.5
l-84 -75c-6 -5.33301 -14.5 -10 -25.5 -14s-22.5 -6 -34.5 -6h-206l252 287h282z" />
    <glyph glyph-name="edieresis" unicode="&#xeb;" horiz-adv-x="968" 
d="M951 782c0 -47.333 -9.33398 -90.668 -28.001 -130.001s-51.167 -74.166 -97.5 -104.499s-108.666 -56.166 -186.999 -77.499s-176.833 -38 -295.5 -50c1.33301 -70.667 16.833 -122.334 46.5 -155.001s73.5 -49 131.5 -49c27.333 0 51 2.33301 71 7s37.5 10.667 52.5 18
s28.5 15 40.5 23l34.5 23c11 7.33301 22.5 13.333 34.5 18s25.667 7 41 7c10 0 19.667 -2.5 29 -7.5s17.666 -11.5 24.999 -19.5l80 -93c-36.667 -36 -72.5 -67.167 -107.5 -93.5s-71 -48 -108 -65s-76.333 -29.5 -118 -37.5s-87.167 -12 -136.5 -12
c-61.333 0 -117.666 10.5 -168.999 31.5s-95.5 50.667 -132.5 89s-65.667 84.5 -86 138.5s-30.5 114 -30.5 180c0 55.333 6.16699 109.333 18.5 162s30 102.167 53 148.5s51.167 89 84.5 128s70.833 72.5 112.5 100.5s87.334 49.833 137.001 65.5s102.5 23.5 158.5 23.5
c55.333 0 104.5 -8 147.5 -24s79.167 -36.833 108.5 -62.5s51.666 -54.5 66.999 -86.5s23 -64 23 -96zM586.999 841.998c-51.333 0 -96.334 -20.499 -135.001 -61.499s-67.667 -97.167 -87 -168.5c64.667 10 117 20.5 157 31.5s71 23 93 36s36.833 27 44.5 42
s11.5 31.167 11.5 48.5s-6.66699 33.666 -20 48.999s-34.666 23 -63.999 23zM592.998 1317c0 -21.333 -4.33301 -41.333 -13 -60s-20.5 -34.834 -35.5 -48.501s-32.333 -24.5 -52 -32.5s-40.834 -12 -63.501 -12c-21.333 0 -41.5 4 -60.5 12s-35.667 18.833 -50 32.5
s-25.833 29.834 -34.5 48.501s-13 38.667 -13 60c0 22 4.33301 42.667 13 62s20.167 36.166 34.5 50.499s31 25.666 50 33.999s39.167 12.5 60.5 12.5c22.667 0 43.834 -4.16699 63.501 -12.5s37 -19.666 52 -33.999s26.833 -31.166 35.5 -50.499s13 -40 13 -62z
M978.998 1317c0 -21.333 -4.16699 -41.333 -12.5 -60s-19.833 -34.834 -34.5 -48.501s-31.834 -24.5 -51.501 -32.5s-40.834 -12 -63.501 -12c-22 0 -42.667 4 -62 12s-36.333 18.833 -51 32.5s-26.167 29.834 -34.5 48.501s-12.5 38.667 -12.5 60
c0 22 4.16699 42.667 12.5 62s19.833 36.166 34.5 50.499s31.667 25.666 51 33.999s40 12.5 62 12.5c22.667 0 43.834 -4.16699 63.501 -12.5s36.834 -19.666 51.501 -33.999s26.167 -31.166 34.5 -50.499s12.5 -40 12.5 -62z" />
    <glyph glyph-name="igrave" unicode="&#xec;" horiz-adv-x="540" 
d="M485 1037l-124 -1037h-306l124 1037h306zM285 1471c29.333 0 50.833 -4.83301 64.5 -14.5s24.167 -24.167 31.5 -43.5l94 -245h-170c-22 0 -39.5 3 -52.5 9s-25.5 16.333 -37.5 31l-210 263h280z" />
    <glyph glyph-name="iacute" unicode="&#xed;" horiz-adv-x="540" 
d="M485 1037l-124 -1037h-306l124 1037h306zM752 1471l-274 -263c-16 -15.333 -31.5 -25.833 -46.5 -31.5s-33.5 -8.5 -55.5 -8.5h-178l154 245c12 18.667 26.167 33 42.5 43s39.5 15 69.5 15h288z" />
    <glyph glyph-name="icircumflex" unicode="&#xee;" horiz-adv-x="540" 
d="M485 1037l-124 -1037h-306l124 1037h306zM696 1168l-198.001 -0.000976562c-11.333 0 -22.166 2 -32.499 6s-17.5 8.66699 -21.5 14l-64 75l-10.5 10.5c-3.66699 3.66699 -7.16699 7.83398 -10.5 12.501l-14.5 -12.5l-12.5 -10.5l-84 -75
c-6 -5.33301 -14.5 -10 -25.5 -14s-22.5 -6 -34.5 -6h-206l252 287h282z" />
    <glyph glyph-name="idieresis" unicode="&#xef;" horiz-adv-x="540" 
d="M485 1037l-124 -1037h-306l124 1037h306zM326 1317c0 -21.333 -4.33301 -41.333 -13 -60s-20.5 -34.834 -35.5 -48.501s-32.333 -24.5 -52 -32.5s-40.834 -12 -63.501 -12c-21.333 0 -41.5 4 -60.5 12s-35.667 18.833 -50 32.5s-25.833 29.834 -34.5 48.501
s-13 38.667 -13 60c0 22 4.33301 42.667 13 62s20.167 36.166 34.5 50.499s31 25.666 50 33.999s39.167 12.5 60.5 12.5c22.667 0 43.834 -4.16699 63.501 -12.5s37 -19.666 52 -33.999s26.833 -31.166 35.5 -50.499s13 -40 13 -62zM712 1317
c0 -21.333 -4.16699 -41.333 -12.5 -60s-19.833 -34.834 -34.5 -48.501s-31.834 -24.5 -51.501 -32.5s-40.834 -12 -63.501 -12c-22 0 -42.667 4 -62 12s-36.333 18.833 -51 32.5s-26.167 29.834 -34.5 48.501s-12.5 38.667 -12.5 60c0 22 4.16699 42.667 12.5 62
s19.833 36.166 34.5 50.499s31.667 25.666 51 33.999s40 12.5 62 12.5c22.667 0 43.834 -4.16699 63.501 -12.5s36.834 -19.666 51.501 -33.999s26.167 -31.166 34.5 -50.499s12.5 -40 12.5 -62z" />
    <glyph glyph-name="eth" unicode="&#xf0;" horiz-adv-x="1068" 
d="M405 1057c-5.33301 8 -8.00098 17.3271 -8.00098 27.9941c0 9.33301 2.5 17.833 7.5 25.5s11.167 13.834 18.5 18.501l104 60c-17.333 8 -35.333 15.5 -54 22.5l-59 21.5c-40.667 13.333 -61 35 -61 65c0 8 1.33301 16.333 4 25s6.66699 18 12 28l46 92
c66.667 -11.333 129.5 -28.5 188.5 -51.5s113.5 -52.5 163.5 -88.5l191 107l50 -95c5.33301 -10.667 8 -21 8 -31c0 -9.33301 -2.33301 -18 -7 -26s-12.667 -15.333 -24 -22l-91 -53c46 -57.333 81.667 -123.666 107 -198.999s38 -160.666 38 -255.999
c0 -116 -13.333 -220 -40 -312s-65 -170 -115 -234s-111 -113 -183 -147s-153.333 -51 -244 -51c-61.333 0 -117.5 9.83301 -168.5 29.5s-94.833 47.834 -131.5 84.501s-65.167 81.5 -85.5 134.5s-30.5 112.5 -30.5 178.5c0 70.667 12.5 137.834 37.5 201.501
s59.5 119.334 103.5 167.001s95.833 85.5 155.5 113.5s124.167 42 193.5 42c60.667 0 113.167 -10.833 157.5 -32.5s81.833 -53.167 112.5 -94.5c-3.33301 58.667 -14.166 111 -32.499 157s-46.833 87.333 -85.5 124l-222 -129zM492.999 204.994
c26 0 51.835 5.66797 77.502 17.001s49.667 30.666 72 57.999s42.333 64 60 110s31.5 104 41.5 174c-6.66699 21.333 -14.834 41.166 -24.501 59.499s-21.834 34.333 -36.501 48s-31.667 24.334 -51 32.001s-41.666 11.5 -66.999 11.5c-35.333 0 -67 -7.5 -95 -22.5
s-51.833 -35.5 -71.5 -61.5s-34.834 -56.667 -45.501 -92s-16 -73.666 -16 -114.999c0 -70.667 14.5 -124.834 43.5 -162.501s66.5 -56.5 112.5 -56.5z" />
    <glyph glyph-name="ntilde" unicode="&#xf1;" horiz-adv-x="1100" 
d="M641 0l78.0049 658.997c1.33301 10.667 2.33301 20.5 3 29.5s1 17.5 1 25.5c0 35.333 -6.16699 59.833 -18.5 73.5s-30.833 20.5 -55.5 20.5c-22.667 0 -46.334 -7 -71.001 -21s-48.167 -33.667 -70.5 -59s-42.833 -56.166 -61.5 -92.499s-33.334 -76.5 -44.001 -120.5
l-57 -515h-310l124 1037h160c32 0 57 -7.5 75 -22.5s27 -39.5 27 -73.5v-83c50 66.667 104.667 115.834 164 147.501s120.666 47.5 183.999 47.5c38.667 0 74.167 -7 106.5 -21s60.166 -34.5 83.499 -61.5s41.666 -60.167 54.999 -99.5s20 -84.666 20 -135.999
c0 -12 -0.5 -24.333 -1.5 -37s-2.16699 -25.667 -3.5 -39l-78 -659h-310zM771.005 1383c14 0 25.832 4.49902 35.499 13.499s16.5 27.167 20.5 54.5h180c-5.33301 -40.667 -15.5 -77.5 -30.5 -110.5s-33.667 -61 -56 -84s-47.5 -40.833 -75.5 -53.5s-57.333 -19 -88 -19
c-23.333 0 -44.333 4 -63 12s-35.834 16.667 -51.501 26l-42.5 26c-12.667 8 -24.334 12 -35.001 12c-14 0 -25.667 -4.83301 -35 -14.5s-15.666 -28.167 -18.999 -55.5h-182c4.66699 40.667 14.834 77.5 30.501 110.5s34.667 61.333 57 85s47.5 41.834 75.5 54.501
s57 19 87 19c22.667 0 43.5 -4 62.5 -12s36.333 -16.667 52 -26l42.5 -26c12.667 -8 24.334 -12 35.001 -12z" />
    <glyph glyph-name="ograve" unicode="&#xf2;" horiz-adv-x="1034" 
d="M471 214c34.667 0 65.667 10.5029 93 31.5029s50.5 49.667 69.5 86s33.667 78.666 44 126.999s15.5 99.833 15.5 154.5c0 75.333 -10.167 129.166 -30.5 161.499s-53.5 48.5 -99.5 48.5c-34.667 0 -65.667 -10.5 -93 -31.5s-50.5 -49.5 -69.5 -85.5
s-33.667 -78.333 -44 -127s-15.5 -100.334 -15.5 -155.001c0 -74 10.167 -127.5 30.5 -160.5s53.5 -49.5 99.5 -49.5zM443 -15.9971c-58 0 -112.167 9.66699 -162.5 29s-94 47.5 -131 84.5s-66 82.667 -87 137s-31.5 116.833 -31.5 187.5c0 92 15.167 176.5 45.5 253.5
s71.166 143.5 122.499 199.5s110.833 99.667 178.5 131s138.834 47 213.501 47c58 0 112 -9.66699 162 -29s93.5 -47.5 130.5 -84.5s66.167 -82.667 87.5 -137s32 -116.833 32 -187.5c0 -90.667 -15.167 -174.5 -45.5 -251.5s-71.166 -143.667 -122.499 -200
s-110.833 -100.333 -178.5 -132s-138.834 -47.5 -213.501 -47.5zM539 1473c29.333 0 50.833 -4.83301 64.5 -14.5s24.167 -24.167 31.5 -43.5l94 -245h-170c-22 0 -39.5 3 -52.5 9s-25.5 16.333 -37.5 31l-210 263h280z" />
    <glyph glyph-name="oacute" unicode="&#xf3;" horiz-adv-x="1034" 
d="M471 214c34.667 0 65.667 10.5029 93 31.5029s50.5 49.667 69.5 86s33.667 78.666 44 126.999s15.5 99.833 15.5 154.5c0 75.333 -10.167 129.166 -30.5 161.499s-53.5 48.5 -99.5 48.5c-34.667 0 -65.667 -10.5 -93 -31.5s-50.5 -49.5 -69.5 -85.5
s-33.667 -78.333 -44 -127s-15.5 -100.334 -15.5 -155.001c0 -74 10.167 -127.5 30.5 -160.5s53.5 -49.5 99.5 -49.5zM443 -15.9971c-58 0 -112.167 9.66699 -162.5 29s-94 47.5 -131 84.5s-66 82.667 -87 137s-31.5 116.833 -31.5 187.5c0 92 15.167 176.5 45.5 253.5
s71.166 143.5 122.499 199.5s110.833 99.667 178.5 131s138.834 47 213.501 47c58 0 112 -9.66699 162 -29s93.5 -47.5 130.5 -84.5s66.167 -82.667 87.5 -137s32 -116.833 32 -187.5c0 -90.667 -15.167 -174.5 -45.5 -251.5s-71.166 -143.667 -122.499 -200
s-110.833 -100.333 -178.5 -132s-138.834 -47.5 -213.501 -47.5zM1005 1473l-274 -263c-16 -15.333 -31.5 -25.833 -46.5 -31.5s-33.5 -8.5 -55.5 -8.5h-178l154 245c12 18.667 26.167 33 42.5 43s39.5 15 69.5 15h288z" />
    <glyph glyph-name="ocircumflex" unicode="&#xf4;" horiz-adv-x="1034" 
d="M471 214c34.667 0 65.667 10.5029 93 31.5029s50.5 49.667 69.5 86s33.667 78.666 44 126.999s15.5 99.833 15.5 154.5c0 75.333 -10.167 129.166 -30.5 161.499s-53.5 48.5 -99.5 48.5c-34.667 0 -65.667 -10.5 -93 -31.5s-50.5 -49.5 -69.5 -85.5
s-33.667 -78.333 -44 -127s-15.5 -100.334 -15.5 -155.001c0 -74 10.167 -127.5 30.5 -160.5s53.5 -49.5 99.5 -49.5zM443 -15.9971c-58 0 -112.167 9.66699 -162.5 29s-94 47.5 -131 84.5s-66 82.667 -87 137s-31.5 116.833 -31.5 187.5c0 92 15.167 176.5 45.5 253.5
s71.166 143.5 122.499 199.5s110.833 99.667 178.5 131s138.834 47 213.501 47c58 0 112 -9.66699 162 -29s93.5 -47.5 130.5 -84.5s66.167 -82.667 87.5 -137s32 -116.833 32 -187.5c0 -90.667 -15.167 -174.5 -45.5 -251.5s-71.166 -143.667 -122.499 -200
s-110.833 -100.333 -178.5 -132s-138.834 -47.5 -213.501 -47.5zM949 1170l-198.001 -0.000976562c-11.333 0 -22.166 2 -32.499 6s-17.5 8.66699 -21.5 14l-64 75l-10.5 10.5c-3.66699 3.66699 -7.16699 7.83398 -10.5 12.501l-14.5 -12.5l-12.5 -10.5l-84 -75
c-6 -5.33301 -14.5 -10 -25.5 -14s-22.5 -6 -34.5 -6h-206l252 287h282z" />
    <glyph glyph-name="otilde" unicode="&#xf5;" horiz-adv-x="1034" 
d="M471 214c34.667 0 65.667 10.5029 93 31.5029s50.5 49.667 69.5 86s33.667 78.666 44 126.999s15.5 99.833 15.5 154.5c0 75.333 -10.167 129.166 -30.5 161.499s-53.5 48.5 -99.5 48.5c-34.667 0 -65.667 -10.5 -93 -31.5s-50.5 -49.5 -69.5 -85.5
s-33.667 -78.333 -44 -127s-15.5 -100.334 -15.5 -155.001c0 -74 10.167 -127.5 30.5 -160.5s53.5 -49.5 99.5 -49.5zM443 -15.9971c-58 0 -112.167 9.66699 -162.5 29s-94 47.5 -131 84.5s-66 82.667 -87 137s-31.5 116.833 -31.5 187.5c0 92 15.167 176.5 45.5 253.5
s71.166 143.5 122.499 199.5s110.833 99.667 178.5 131s138.834 47 213.501 47c58 0 112 -9.66699 162 -29s93.5 -47.5 130.5 -84.5s66.167 -82.667 87.5 -137s32 -116.833 32 -187.5c0 -90.667 -15.167 -174.5 -45.5 -251.5s-71.166 -143.667 -122.499 -200
s-110.833 -100.333 -178.5 -132s-138.834 -47.5 -213.501 -47.5zM717 1383c14 0 25.832 4.49902 35.499 13.499s16.5 27.167 20.5 54.5h180c-5.33301 -40.667 -15.5 -77.5 -30.5 -110.5s-33.667 -61 -56 -84s-47.5 -40.833 -75.5 -53.5s-57.333 -19 -88 -19
c-23.333 0 -44.333 4 -63 12s-35.834 16.667 -51.501 26l-42.5 26c-12.667 8 -24.334 12 -35.001 12c-14 0 -25.667 -4.83301 -35 -14.5s-15.666 -28.167 -18.999 -55.5h-182c4.66699 40.667 14.834 77.5 30.501 110.5s34.667 61.333 57 85s47.5 41.834 75.5 54.501
s57 19 87 19c22.667 0 43.5 -4 62.5 -12s36.333 -16.667 52 -26l42.5 -26c12.667 -8 24.334 -12 35.001 -12z" />
    <glyph glyph-name="odieresis" unicode="&#xf6;" horiz-adv-x="1034" 
d="M471 214c34.667 0 65.667 10.5029 93 31.5029s50.5 49.667 69.5 86s33.667 78.666 44 126.999s15.5 99.833 15.5 154.5c0 75.333 -10.167 129.166 -30.5 161.499s-53.5 48.5 -99.5 48.5c-34.667 0 -65.667 -10.5 -93 -31.5s-50.5 -49.5 -69.5 -85.5
s-33.667 -78.333 -44 -127s-15.5 -100.334 -15.5 -155.001c0 -74 10.167 -127.5 30.5 -160.5s53.5 -49.5 99.5 -49.5zM443 -15.9971c-58 0 -112.167 9.66699 -162.5 29s-94 47.5 -131 84.5s-66 82.667 -87 137s-31.5 116.833 -31.5 187.5c0 92 15.167 176.5 45.5 253.5
s71.166 143.5 122.499 199.5s110.833 99.667 178.5 131s138.834 47 213.501 47c58 0 112 -9.66699 162 -29s93.5 -47.5 130.5 -84.5s66.167 -82.667 87.5 -137s32 -116.833 32 -187.5c0 -90.667 -15.167 -174.5 -45.5 -251.5s-71.166 -143.667 -122.499 -200
s-110.833 -100.333 -178.5 -132s-138.834 -47.5 -213.501 -47.5zM579 1319c0 -21.333 -4.33301 -41.333 -13 -60s-20.5 -34.834 -35.5 -48.501s-32.333 -24.5 -52 -32.5s-40.834 -12 -63.501 -12c-21.333 0 -41.5 4 -60.5 12s-35.667 18.833 -50 32.5
s-25.833 29.834 -34.5 48.501s-13 38.667 -13 60c0 22 4.33301 42.667 13 62s20.167 36.166 34.5 50.499s31 25.666 50 33.999s39.167 12.5 60.5 12.5c22.667 0 43.834 -4.16699 63.501 -12.5s37 -19.666 52 -33.999s26.833 -31.166 35.5 -50.499s13 -40 13 -62zM965 1319
c0 -21.333 -4.16699 -41.333 -12.5 -60s-19.833 -34.834 -34.5 -48.501s-31.834 -24.5 -51.501 -32.5s-40.834 -12 -63.501 -12c-22 0 -42.667 4 -62 12s-36.333 18.833 -51 32.5s-26.167 29.834 -34.5 48.501s-12.5 38.667 -12.5 60c0 22 4.16699 42.667 12.5 62
s19.833 36.166 34.5 50.499s31.667 25.666 51 33.999s40 12.5 62 12.5c22.667 0 43.834 -4.16699 63.501 -12.5s36.834 -19.666 51.501 -33.999s26.167 -31.166 34.5 -50.499s12.5 -40 12.5 -62z" />
    <glyph glyph-name="divide" unicode="&#xf7;" 
d="M122 779h988l-28 -214h-988zM472 1008c0 26 5.16602 50.333 15.499 73s24.333 42.5 42 59.5s38.167 30.333 61.5 40s48.333 14.5 75 14.5c22 0 42.333 -3.83301 61 -11.5s34.667 -18.334 48 -32.001s23.833 -29.667 31.5 -48s11.5 -37.833 11.5 -58.5
c0 -26 -5.33301 -50.333 -16 -73s-25 -42.167 -43 -58.5s-38.667 -29.166 -62 -38.499s-47.666 -14 -72.999 -14c-22.667 0 -43.334 3.83301 -62.001 11.5s-34.667 18 -48 31s-23.666 28.5 -30.999 46.5s-11 37.333 -11 58zM383.999 296c0 26 5.16602 50.333 15.499 73
s24.333 42.5 42 59.5s38.167 30.333 61.5 40s48.333 14.5 75 14.5c22 0 42.333 -3.83301 61 -11.5s34.667 -18.334 48 -32.001s23.833 -29.667 31.5 -48s11.5 -37.833 11.5 -58.5c0 -26 -5.33301 -50.333 -16 -73s-25 -42.167 -43 -58.5s-38.667 -29.166 -62 -38.499
s-47.666 -14 -72.999 -14c-22.667 0 -43.334 3.83301 -62.001 11.5s-34.667 18 -48 31s-23.666 28.5 -30.999 46.5s-11 37.333 -11 58z" />
    <glyph glyph-name="oslash" unicode="&#xf8;" horiz-adv-x="1034" 
d="M443 -16c-71.333 0 -136.333 14.334 -195 43.001c-24 -25.333 -51.167 -43.333 -81.5 -54s-60.166 -16 -89.499 -16h-112l141 192c-24 35.333 -42.5 75.666 -55.5 120.999s-19.5 96 -19.5 152c0 92 15.167 176.5 45.5 253.5s71.166 143.5 122.499 199.5
s110.833 99.667 178.5 131s138.834 47 213.501 47c70 0 134.667 -14.333 194 -43c10 13.333 19.333 24.666 28 33.999s18 17 28 23s21.167 10.333 33.5 13s27.166 4 44.499 4h152l-144 -196c24 -35.333 42.667 -75.666 56 -120.999s20 -96 20 -152
c0 -90.667 -15.167 -174.5 -45.5 -251.5s-71.166 -143.667 -122.499 -200s-110.833 -100.333 -178.5 -132s-138.834 -47.5 -213.501 -47.5zM471 195.001c34.667 0 66.666 9.83301 95.999 29.5s54.833 47.5 76.5 83.5s38.667 79.833 51 131.5s18.5 109.5 18.5 173.5
c0 3.33301 -0.166992 6.33301 -0.5 9s-0.5 5.66699 -0.5 9l-303 -422c18.667 -9.33301 39.334 -14 62.001 -14zM320.999 407.001l301.001 422.001c-18.667 8.66699 -38.334 13 -59.001 13c-34.667 0 -66.667 -9.66699 -96 -29s-54.833 -47 -76.5 -83
s-38.667 -79.833 -51 -131.5s-18.5 -109.834 -18.5 -174.501v-17z" />
    <glyph glyph-name="ugrave" unicode="&#xf9;" horiz-adv-x="1098" 
d="M459 1037l-77.999 -657.999c-1.33301 -10.667 -2.33301 -20.5 -3 -29.5s-1 -17.5 -1 -25.5c0 -35.333 6.16699 -60 18.5 -74s30.833 -21 55.5 -21c20.667 0 42.5 6.16699 65.5 18.5s45.167 29.666 66.5 51.999s41.166 49.5 59.499 81.5s33.5 67.667 45.5 107l67 549h310
l-126 -1037h-158c-73.333 0 -110 34 -110 102v66c-50 -62.667 -103.667 -109 -161 -139s-117 -45 -179 -45c-38.667 0 -74.167 7 -106.5 21s-60.333 34.5 -84 61.5s-42 60.333 -55 100s-19.5 85.167 -19.5 136.5c0 12 0.5 24.333 1.5 37s2.16699 25.667 3.5 39l78 658h310z
M565.001 1473c29.333 0 50.833 -4.83301 64.5 -14.5s24.167 -24.167 31.5 -43.5l94 -245h-170c-22 0 -39.5 3 -52.5 9s-25.5 16.333 -37.5 31l-210 263h280z" />
    <glyph glyph-name="uacute" unicode="&#xfa;" horiz-adv-x="1098" 
d="M459 1037l-77.999 -657.999c-1.33301 -10.667 -2.33301 -20.5 -3 -29.5s-1 -17.5 -1 -25.5c0 -35.333 6.16699 -60 18.5 -74s30.833 -21 55.5 -21c20.667 0 42.5 6.16699 65.5 18.5s45.167 29.666 66.5 51.999s41.166 49.5 59.499 81.5s33.5 67.667 45.5 107l67 549h310
l-126 -1037h-158c-73.333 0 -110 34 -110 102v66c-50 -62.667 -103.667 -109 -161 -139s-117 -45 -179 -45c-38.667 0 -74.167 7 -106.5 21s-60.333 34.5 -84 61.5s-42 60.333 -55 100s-19.5 85.167 -19.5 136.5c0 12 0.5 24.333 1.5 37s2.16699 25.667 3.5 39l78 658h310z
M1031 1473l-274 -263c-16 -15.333 -31.5 -25.833 -46.5 -31.5s-33.5 -8.5 -55.5 -8.5h-178l154 245c12 18.667 26.167 33 42.5 43s39.5 15 69.5 15h288z" />
    <glyph glyph-name="ucircumflex" unicode="&#xfb;" horiz-adv-x="1098" 
d="M459 1037l-77.999 -657.999c-1.33301 -10.667 -2.33301 -20.5 -3 -29.5s-1 -17.5 -1 -25.5c0 -35.333 6.16699 -60 18.5 -74s30.833 -21 55.5 -21c20.667 0 42.5 6.16699 65.5 18.5s45.167 29.666 66.5 51.999s41.166 49.5 59.499 81.5s33.5 67.667 45.5 107l67 549h310
l-126 -1037h-158c-73.333 0 -110 34 -110 102v66c-50 -62.667 -103.667 -109 -161 -139s-117 -45 -179 -45c-38.667 0 -74.167 7 -106.5 21s-60.333 34.5 -84 61.5s-42 60.333 -55 100s-19.5 85.167 -19.5 136.5c0 12 0.5 24.333 1.5 37s2.16699 25.667 3.5 39l78 658h310z
M975.001 1170l-198.001 -0.000976562c-11.333 0 -22.166 2 -32.499 6s-17.5 8.66699 -21.5 14l-64 75l-10.5 10.5c-3.66699 3.66699 -7.16699 7.83398 -10.5 12.501l-14.5 -12.5l-12.5 -10.5l-84 -75c-6 -5.33301 -14.5 -10 -25.5 -14s-22.5 -6 -34.5 -6h-206l252 287h282z
" />
    <glyph glyph-name="udieresis" unicode="&#xfc;" horiz-adv-x="1098" 
d="M459 1037l-77.999 -657.999c-1.33301 -10.667 -2.33301 -20.5 -3 -29.5s-1 -17.5 -1 -25.5c0 -35.333 6.16699 -60 18.5 -74s30.833 -21 55.5 -21c20.667 0 42.5 6.16699 65.5 18.5s45.167 29.666 66.5 51.999s41.166 49.5 59.499 81.5s33.5 67.667 45.5 107l67 549h310
l-126 -1037h-158c-73.333 0 -110 34 -110 102v66c-50 -62.667 -103.667 -109 -161 -139s-117 -45 -179 -45c-38.667 0 -74.167 7 -106.5 21s-60.333 34.5 -84 61.5s-42 60.333 -55 100s-19.5 85.167 -19.5 136.5c0 12 0.5 24.333 1.5 37s2.16699 25.667 3.5 39l78 658h310z
M605.001 1319c0 -21.333 -4.33301 -41.333 -13 -60s-20.5 -34.834 -35.5 -48.501s-32.333 -24.5 -52 -32.5s-40.834 -12 -63.501 -12c-21.333 0 -41.5 4 -60.5 12s-35.667 18.833 -50 32.5s-25.833 29.834 -34.5 48.501s-13 38.667 -13 60c0 22 4.33301 42.667 13 62
s20.167 36.166 34.5 50.499s31 25.666 50 33.999s39.167 12.5 60.5 12.5c22.667 0 43.834 -4.16699 63.501 -12.5s37 -19.666 52 -33.999s26.833 -31.166 35.5 -50.499s13 -40 13 -62zM991.001 1319c0 -21.333 -4.16699 -41.333 -12.5 -60s-19.833 -34.834 -34.5 -48.501
s-31.834 -24.5 -51.501 -32.5s-40.834 -12 -63.501 -12c-22 0 -42.667 4 -62 12s-36.333 18.833 -51 32.5s-26.167 29.834 -34.5 48.501s-12.5 38.667 -12.5 60c0 22 4.16699 42.667 12.5 62s19.833 36.166 34.5 50.499s31.667 25.666 51 33.999s40 12.5 62 12.5
c22.667 0 43.834 -4.16699 63.501 -12.5s36.834 -19.666 51.501 -33.999s26.167 -31.166 34.5 -50.499s12.5 -40 12.5 -62z" />
    <glyph glyph-name="yacute" unicode="&#xfd;" horiz-adv-x="1032" 
d="M421 -270c-10.667 -20.667 -23.833 -35.665 -39.5 -44.998s-34.5 -14 -56.5 -14h-232l237 422l-257 944h262c22 0 38.5 -5.33301 49.5 -16s18.5 -23.334 22.5 -38.001l90 -447c4 -19.333 7.66699 -38.5 11 -57.5s6 -38.167 8 -57.5c8 19.333 16.667 38.833 26 58.5
l27 58.5l192 445c8 15.333 19.667 28.166 35 38.499s31 15.5 47 15.5h250zM1005 1473l-274 -263c-16 -15.333 -31.5 -25.833 -46.5 -31.5s-33.5 -8.5 -55.5 -8.5h-178l154 245c12 18.667 26.167 33 42.5 43s39.5 15 69.5 15h288z" />
    <glyph glyph-name="thorn" unicode="&#xfe;" horiz-adv-x="1090" 
d="M3 -329l221.998 1826h306l-77 -621c45.333 54.667 95 97.834 149 129.501s111.333 47.5 172 47.5c42.667 0 81.667 -7.5 117 -22.5s65.833 -38.5 91.5 -70.5s45.667 -72.833 60 -122.5s21.5 -108.834 21.5 -177.501c0 -90.667 -13.833 -176.834 -41.5 -258.501
s-64.834 -153.5 -111.501 -215.5s-100.5 -111.167 -161.5 -147.5s-124.833 -54.5 -191.5 -54.5c-43.333 0 -82 7 -116 21s-64 32.667 -90 56l-36 -292c-1.33301 -12.667 -5.16602 -24.834 -11.499 -36.501s-14.666 -22 -24.999 -31s-22.666 -16.333 -36.999 -22
s-29.833 -8.5 -46.5 -8.5h-194zM650.998 818.002c-21.333 0 -43.667 -8.16797 -67 -24.501s-45.833 -38.666 -67.5 -66.999s-42 -61.5 -61 -99.5s-34.833 -78.667 -47.5 -122l-31 -250c19.333 -15.333 40.833 -26.333 64.5 -33s46.167 -10 67.5 -10c36 0 69.167 12 99.5 36
s56.5 55.5 78.5 94.5s39.167 83.5 51.5 133.5s18.5 101 18.5 153c0 66 -9.66699 114 -29 144s-45 45 -77 45z" />
    <glyph glyph-name="ydieresis" unicode="&#xff;" horiz-adv-x="1032" 
d="M421 -270c-10.667 -20.667 -23.833 -35.665 -39.5 -44.998s-34.5 -14 -56.5 -14h-232l237 422l-257 944h262c22 0 38.5 -5.33301 49.5 -16s18.5 -23.334 22.5 -38.001l90 -447c4 -19.333 7.66699 -38.5 11 -57.5s6 -38.167 8 -57.5c8 19.333 16.667 38.833 26 58.5
l27 58.5l192 445c8 15.333 19.667 28.166 35 38.499s31 15.5 47 15.5h250zM579.001 1319c0 -21.333 -4.33301 -41.333 -13 -60s-20.5 -34.834 -35.5 -48.501s-32.333 -24.5 -52 -32.5s-40.834 -12 -63.501 -12c-21.333 0 -41.5 4 -60.5 12s-35.667 18.833 -50 32.5
s-25.833 29.834 -34.5 48.501s-13 38.667 -13 60c0 22 4.33301 42.667 13 62s20.167 36.166 34.5 50.499s31 25.666 50 33.999s39.167 12.5 60.5 12.5c22.667 0 43.834 -4.16699 63.501 -12.5s37 -19.666 52 -33.999s26.833 -31.166 35.5 -50.499s13 -40 13 -62z
M965.001 1319c0 -21.333 -4.16699 -41.333 -12.5 -60s-19.833 -34.834 -34.5 -48.501s-31.834 -24.5 -51.501 -32.5s-40.834 -12 -63.501 -12c-22 0 -42.667 4 -62 12s-36.333 18.833 -51 32.5s-26.167 29.834 -34.5 48.501s-12.5 38.667 -12.5 60
c0 22 4.16699 42.667 12.5 62s19.833 36.166 34.5 50.499s31.667 25.666 51 33.999s40 12.5 62 12.5c22.667 0 43.834 -4.16699 63.501 -12.5s36.834 -19.666 51.501 -33.999s26.167 -31.166 34.5 -50.499s12.5 -40 12.5 -62z" />
    <glyph glyph-name="Aogonek" unicode="&#x104;" horiz-adv-x="1326" 
d="M1238 -171c14 0 22.001 -6.33203 24.001 -18.999l30 -107c-23.333 -14 -51.833 -25.833 -85.5 -35.5s-68.5 -14.5 -104.5 -14.5c-62.667 0 -109.334 12.667 -140.001 38s-46 57 -46 95c0 37.333 12.167 74.333 36.5 111s64.166 71 119.499 103h-36
c-28 0 -50.5 6.5 -67.5 19.5s-27.167 30.167 -30.5 51.5l-45 262h-495l-108 -262c-7.33301 -18.667 -21.666 -35.167 -42.999 -49.5s-45 -21.5 -71 -21.5h-256l696 1457h334l338 -1457h-42c-28 -15.333 -51.667 -34.333 -71 -57s-29 -48.334 -29 -77.001
c0 -13.333 3.33301 -24.333 10 -33s16.667 -13 30 -13c18 0 29.667 1.5 35 4.5s11 4.5 17 4.5zM489.001 555.001l366.002 -0.000976562l-71 416l-18 94c-6.66699 34.667 -13.334 71.334 -20.001 110.001c-14.667 -39.333 -29.334 -76.5 -44.001 -111.5
s-28.667 -66.5 -42 -94.5z" />
    <glyph glyph-name="aogonek" unicode="&#x105;" horiz-adv-x="1072" 
d="M859 -171c14 0 22.001 -6.32812 24.001 -18.9951l30 -107c-23.333 -14 -51.833 -25.833 -85.5 -35.5s-68.5 -14.5 -104.5 -14.5c-62.667 0 -109.334 12.667 -140.001 38s-46 57 -46 95s12.5 75.5 37.5 112.5s66.167 71.833 123.5 104.5
c-26 5.33301 -43.667 16.666 -53 33.999s-14 37.666 -14 60.999v74c-42.667 -58.667 -90 -104.667 -142 -138s-109.333 -50 -172 -50c-37.333 0 -73.333 7.5 -108 22.5s-65.334 37.667 -92.001 68s-48 69 -64 116s-24 102.5 -24 166.5c0 94 17.167 183.167 51.5 267.5
s82.333 158.166 144 221.499s134.834 113.666 219.501 150.999s177.667 56 279 56c49.333 0 99.333 -3.33301 150 -10s100.667 -18.667 150 -36l-126 -1007h-30c-28 -15.333 -51.667 -34.333 -71 -57s-29 -48.334 -29 -77.001c0 -13.333 3.33301 -24.333 10 -33
s16.667 -13 30 -13c18 0 29.667 1.5 35 4.5s11 4.5 17 4.5zM441.001 229.005c22.667 0 44.668 8.5 66.001 25.5s41.5 40.167 60.5 69.5s36.5 63.666 52.5 102.999s29.667 81.333 41 126l36 287h-18c-50.667 0 -96.834 -11.333 -138.501 -34s-77.5 -53.5 -107.5 -92.5
s-53.167 -84.333 -69.5 -136s-24.5 -106.834 -24.5 -165.501c0 -33.333 2.66699 -61.666 8 -84.999s12.5 -42.166 21.5 -56.499s19.667 -24.833 32 -31.5s25.833 -10 40.5 -10z" />
    <glyph glyph-name="Cacute" unicode="&#x106;" horiz-adv-x="1204" 
d="M678 252c36.667 0 68.499 2.83008 95.499 8.49707s50.167 12.834 69.5 21.501s35.666 18.167 48.999 28.5l36 28.5c10.667 8.66699 20.667 15.834 30 21.501s19.333 8.5 30 8.5s19.5 -1.83301 26.5 -5.5s12.167 -7.83398 15.5 -12.501l114 -137
c-63.333 -75.333 -138.5 -132.5 -225.5 -171.5s-185.833 -58.5 -296.5 -58.5c-92 0 -173.5 16.167 -244.5 48.5s-130.833 76.833 -179.5 133.5s-85.5 123.834 -110.5 201.501s-37.5 161.5 -37.5 251.5c0 83.333 9.33301 162.333 28 237s45 143.667 79 207
s74.833 120.333 122.5 171s100.5 93.667 158.5 129s120.333 62.5 187 81.5s136.334 28.5 209.001 28.5c54.667 0 104.5 -5.16699 149.5 -15.5s85.667 -24.666 122 -42.999s68.833 -40.166 97.5 -65.499s53.667 -53.333 75 -84l-114 -132
c-8 -9.33301 -17.333 -17.666 -28 -24.999s-24.667 -11 -42 -11c-11.333 0 -21.666 2.66699 -30.999 8s-18.833 11.833 -28.5 19.5l-32.5 25.5c-12 9.33301 -26.333 17.833 -43 25.5s-36.5 14.167 -59.5 19.5s-50.167 8 -81.5 8c-61.333 0 -118.5 -13 -171.5 -39
s-99 -63.167 -138 -111.5s-69.5 -107 -91.5 -176s-33 -146.167 -33 -231.5c0 -62 7.5 -117.333 22.5 -166s35.5 -89.834 61.5 -123.501s57 -59.334 93 -77.001s75 -26.5 117 -26.5zM1290 1796l-281.998 -204c-21.333 -15.333 -40.333 -26 -57 -32s-35.334 -9 -56.001 -9
h-245l192 201c10 8.66699 19 16 27 22s16.5 10.5 25.5 13.5s18.667 5.16699 29 6.5s23.166 2 38.499 2h328z" />
    <glyph glyph-name="cacute" unicode="&#x107;" horiz-adv-x="876" 
d="M855 182c-33.333 -36.667 -65.335 -67.666 -96.002 -92.999s-62.334 -45.666 -95.001 -60.999s-67.5 -26.5 -104.5 -33.5s-77.833 -10.5 -122.5 -10.5c-60.667 0 -115.334 10.333 -164.001 31s-90.167 50 -124.5 88s-60.833 84 -79.5 138s-28 114.667 -28 182
c0 84.667 13.833 165 41.5 241s66.334 142.667 116.001 200s108.5 102.833 176.5 136.5s142.667 50.5 224 50.5c69.333 0 128.833 -11.833 178.5 -35.5s94.167 -60.834 133.5 -111.501l-100 -115c-7.33301 -7.33301 -15.666 -13.833 -24.999 -19.5
s-19.666 -8.5 -30.999 -8.5c-13.333 0 -24.5 2.83301 -33.5 8.5l-29.5 18c-10.667 6.33301 -23.667 12.333 -39 18s-35.333 8.5 -60 8.5c-30.667 0 -60.5 -8.83301 -89.5 -26.5s-54.833 -43.167 -77.5 -76.5s-40.834 -74.333 -54.501 -123s-20.5 -104 -20.5 -166
c0 -34.667 4 -64.834 12 -90.501s19 -47 33 -64s30.333 -29.833 49 -38.5s38.667 -13 60 -13c32 0 57.833 4.5 77.5 13.5s36.834 18.833 51.501 29.5l41 29.5c12.667 9 28 13.5 46 13.5c10 0 19.833 -2.33301 29.5 -7s17.834 -11 24.501 -19l80 -94v0zM982.998 1473
l-274 -263c-16 -15.333 -31.5 -25.833 -46.5 -31.5s-33.5 -8.5 -55.5 -8.5h-178l154 245c12 18.667 26.167 33 42.5 43s39.5 15 69.5 15h288z" />
    <glyph glyph-name="Eogonek" unicode="&#x118;" horiz-adv-x="1036" 
d="M810 -171c14 0 22.002 -6.33203 24.002 -18.999l30 -107c-23.333 -14 -51.833 -25.833 -85.5 -35.5s-68.5 -14.5 -104.5 -14.5c-62.667 0 -109.334 12.667 -140.001 38s-46 57 -46 95c0 37.333 12.167 74.333 36.5 111s64.166 71 119.499 103h-600l180 1457h868l-32 -251
h-539l-44 -352h413l-32 -242h-411l-44 -361h543l-32 -251h-96c-28 -15.333 -51.667 -34.333 -71 -57s-29 -48.334 -29 -77.001c0 -13.333 3.33301 -24.333 10 -33s16.667 -13 30 -13c18 0 29.667 1.5 35 4.5s11 4.5 17 4.5z" />
    <glyph glyph-name="eogonek" unicode="&#x119;" horiz-adv-x="968" 
d="M595 -171c14 0 22.001 -6.33398 24.001 -19.001l30 -107c-23.333 -14 -51.833 -25.833 -85.5 -35.5s-68.5 -14.5 -104.5 -14.5c-62.667 0 -109.334 12.667 -140.001 38s-46 57 -46 95c0 35.333 10.333 70 31 104s55 66.333 103 97c-54.667 6 -104.5 20.5 -149.5 43.5
s-83.5 53.333 -115.5 91s-56.833 82 -74.5 133s-26.5 107.167 -26.5 168.5c0 55.333 6.16699 109.333 18.5 162s30 102.167 53 148.5s51.167 89 84.5 128s70.833 72.5 112.5 100.5s87.334 49.833 137.001 65.5s102.5 23.5 158.5 23.5c55.333 0 104.5 -8 147.5 -24
s79.167 -36.833 108.5 -62.5s51.666 -54.5 66.999 -86.5s23 -64 23 -96c0 -47.333 -9.33301 -90.666 -28 -129.999s-51.167 -74.166 -97.5 -104.499s-108.666 -56.166 -186.999 -77.499s-176.833 -38 -295.5 -50c1.33301 -70.667 16.833 -122.334 46.5 -155.001
s73.5 -49 131.5 -49c27.333 0 51 2.33301 71 7s37.5 10.667 52.5 18s28.5 15 40.5 23l34.5 23c11 7.33301 22.5 13.333 34.5 18s25.667 7 41 7c10 0 19.667 -2.5 29 -7.5s17.666 -11.5 24.999 -19.5l80 -93c-54.667 -54 -108 -96.833 -160 -128.5
s-109.333 -53.834 -172 -66.501c-26.667 -15.333 -49 -34 -67 -56s-27 -47 -27 -75c0 -13.333 3.33301 -24.333 10 -33s16.667 -13 30 -13c18 0 29.667 1.5 35 4.5s11 4.5 17 4.5zM587.001 841.999c-51.333 0 -96.334 -20.499 -135.001 -61.499s-67.667 -97.167 -87 -168.5
c64.667 10 117 20.5 157 31.5s71 23 93 36s36.833 27 44.5 42s11.5 31.167 11.5 48.5s-6.66699 33.666 -20 48.999s-34.666 23 -63.999 23z" />
    <glyph glyph-name="dotlessi" unicode="&#x131;" horiz-adv-x="540" 
d="M485 1037l-124 -1037h-306l124 1037h306z" />
    <glyph glyph-name="Lslash" unicode="&#x141;" horiz-adv-x="1030" 
d="M558 926l306 155.001l-28 -214c-2 -14.667 -7 -26.834 -15 -36.501s-17.667 -17.5 -29 -23.5l-266 -141l-50 -406h490l-32 -260h-816l63 513l-185 -89l28 218c2.66699 24.667 16 42.667 40 54l149 74l85 687h326z" />
    <glyph glyph-name="lslash" unicode="&#x142;" horiz-adv-x="664" 
d="M67 746c0 26 12 44 36 54l113 46l79 651h306l-66 -543l142 56v-174c0 -31.333 -13.333 -52 -40 -62l-131 -54l-87 -720h-306l74 613l-120 -47v180z" />
    <glyph glyph-name="Nacute" unicode="&#x143;" horiz-adv-x="1392" 
d="M396 1457c14 0 25.832 -0.49707 35.499 -1.49707s18.334 -3.33301 26.001 -7s14.5 -8.83398 20.5 -15.501s12 -15.334 18 -26.001l511 -900c1.33301 23.333 3.33301 45.666 6 66.999s5 41.333 7 60l98 823h288l-180 -1457h-170c-25.333 0 -46.333 3.66699 -63 11
s-31 21.666 -43 42.999l-509 899c-1.33301 -18.667 -2.83301 -36.667 -4.5 -54s-3.16699 -33.666 -4.5 -48.999l-100 -850h-288l180 1457h172v0zM1270 1796l-281.998 -204c-21.333 -15.333 -40.333 -26 -57 -32s-35.334 -9 -56.001 -9h-245l192 201c10 8.66699 19 16 27 22
s16.5 10.5 25.5 13.5s18.667 5.16699 29 6.5s23.166 2 38.499 2h328z" />
    <glyph glyph-name="nacute" unicode="&#x144;" horiz-adv-x="1100" 
d="M641 0l78.0049 658.997c1.33301 10.667 2.33301 20.5 3 29.5s1 17.5 1 25.5c0 35.333 -6.16699 59.833 -18.5 73.5s-30.833 20.5 -55.5 20.5c-22.667 0 -46.334 -7 -71.001 -21s-48.167 -33.667 -70.5 -59s-42.833 -56.166 -61.5 -92.499s-33.334 -76.5 -44.001 -120.5
l-57 -515h-310l124 1037h160c32 0 57 -7.5 75 -22.5s27 -39.5 27 -73.5v-83c50 66.667 104.667 115.834 164 147.501s120.666 47.5 183.999 47.5c38.667 0 74.167 -7 106.5 -21s60.166 -34.5 83.499 -61.5s41.666 -60.167 54.999 -99.5s20 -84.666 20 -135.999
c0 -12 -0.5 -24.333 -1.5 -37s-2.16699 -25.667 -3.5 -39l-78 -659h-310zM1059 1473l-274 -263c-16 -15.333 -31.5 -25.833 -46.5 -31.5s-33.5 -8.5 -55.5 -8.5h-178l154 245c12 18.667 26.167 33 42.5 43s39.5 15 69.5 15h288z" />
    <glyph glyph-name="OE" unicode="&#x152;" horiz-adv-x="1952" 
d="M1976 1206l-541 0.00195312l-43 -354h412l-30 -242h-412l-44 -359h542l-32 -251h-830l17 136c-57.333 -48 -121 -85.333 -191 -112s-145.333 -40 -226 -40c-85.333 0 -162 16.5 -230 49.5s-125.5 78.167 -172.5 135.5s-83 125 -108 203s-37.5 162 -37.5 252
c0 119.333 18.333 230.666 55 333.999s87.5 193.166 152.5 269.499s142 136.333 231 180s186.167 65.5 291.5 65.5c82 0 154.5 -15.5 217.5 -46.5s116.5 -73.5 160.5 -127.5l20 158h830zM1056 824.002c0 58.667 -5.83398 112.332 -17.501 160.999s-29 90.5 -52 125.5
s-51.667 62.333 -86 82s-73.833 29.5 -118.5 29.5c-62 0 -117.667 -14.5 -167 -43.5s-91 -69.667 -125 -122s-60.167 -114.666 -78.5 -186.999s-27.5 -151.833 -27.5 -238.5c0 -58 5.83301 -111.333 17.5 -160s29.167 -90.5 52.5 -125.5s52.333 -62.167 87 -81.5
s75 -29 121 -29c60.667 0 115.334 14.5 164.001 43.5s90 69.5 124 121.5s60.167 114 78.5 186s27.5 151.333 27.5 238z" />
    <glyph glyph-name="oe" unicode="&#x153;" horiz-adv-x="1568" 
d="M1232 1051c47.333 0 90.501 -6.5 129.501 -19.5s72.333 -31.333 100 -55s49.167 -52.167 64.5 -85.5s23 -70.333 23 -111c0 -46.667 -9.33301 -89.334 -28 -128.001s-50.667 -73.167 -96 -103.5s-106.5 -56.333 -183.5 -78s-173.833 -38.5 -290.5 -50.5
c4.66699 -72 22.5 -124 53.5 -156s73.5 -48 127.5 -48c27.333 0 51 2.33301 71 7s37.5 10.667 52.5 18s28.5 15 40.5 23l34.5 23c11 7.33301 22.5 13.333 34.5 18s25.667 7 41 7c10 0 19.667 -2.5 29 -7.5s17.666 -11.5 24.999 -19.5l80 -93
c-36.667 -36 -72.5 -67.167 -107.5 -93.5s-71 -48 -108 -65s-76.333 -29.5 -118 -37.5s-87.167 -12 -136.5 -12c-59.333 0 -114.833 13.667 -166.5 41s-94.5 70 -128.5 128c-50 -54 -107.667 -95.667 -173 -125s-136.333 -44 -213 -44c-56.667 0 -107 10.333 -151 31
s-81.167 48.5 -111.5 83.5s-53.333 75.5 -69 121.5s-23.5 94.667 -23.5 146c0 75.333 7.5 144.5 22.5 207.5s35.667 120 62 171s57.5 95.5 93.5 133.5s75.333 69.833 118 95.5s87.667 45 135 58s95.333 19.5 144 19.5c61.333 0 115.166 -11.667 161.499 -35
s84.5 -56.666 114.5 -99.999c43.333 42 93.833 75 151.5 99s122.834 36 195.501 36zM463.001 206c38.667 0 72.167 9.5 100.5 28.5s52.166 46 71.499 81s34.5 77.167 45.5 126.5s18.5 104.333 22.5 165c0.666992 8 1.16699 15.5 1.5 22.5s0.5 14.167 0.5 21.5
c0 57.333 -10.167 101.333 -30.5 132s-51.5 46 -93.5 46c-39.333 0 -74.166 -10.833 -104.499 -32.5s-55.833 -52.167 -76.5 -91.5s-36.5 -86.333 -47.5 -141s-16.5 -115.334 -16.5 -182.001c0 -23.333 2.16699 -45.666 6.5 -66.999s11.333 -40 21 -56
s22.667 -28.833 39 -38.5s36.5 -14.5 60.5 -14.5zM1183 844c-53.333 0 -99.668 -20.502 -139.001 -61.502s-66.666 -101.833 -81.999 -182.5c66 10 120 21.5 162 34.5s75.333 26.833 100 41.5s41.667 29.834 51 45.501s14 31.5 14 47.5c0 20.667 -8.66699 38.334 -26 53.001
s-44 22 -80 22z" />
    <glyph glyph-name="Sacute" unicode="&#x15a;" horiz-adv-x="1000" 
d="M942 1165c-11.333 -16 -22.8359 -27.665 -34.5029 -34.998s-25.5 -11 -41.5 -11c-15.333 0 -30.666 5 -45.999 15l-51.5 33c-19 12 -40.833 23 -65.5 33s-53.667 15 -87 15c-30.667 0 -57.5 -4.33301 -80.5 -13s-42.167 -20.667 -57.5 -36s-26.833 -33.333 -34.5 -54
s-11.5 -43.334 -11.5 -68.001c0 -26.667 7.5 -49 22.5 -67s35 -33.833 60 -47.5s53.167 -26.167 84.5 -37.5s63.5 -23.666 96.5 -36.999s65.333 -28.666 97 -45.999s60 -39 85 -65s45 -57.333 60 -94s22.5 -80.667 22.5 -132c0 -73.333 -12.667 -142.333 -38 -207
s-61.666 -121.167 -108.999 -169.5s-104.833 -86.666 -172.5 -114.999s-143.834 -42.5 -228.501 -42.5c-42 0 -84.167 4.66699 -126.5 14s-83 22.5 -122 39.5s-75.167 37.167 -108.5 60.5s-61.666 49.333 -84.999 78l116 152c8.66699 11.333 20 20.666 34 27.999
s28 11 42 11c18.667 0 36.834 -6.5 54.501 -19.5l58.5 -43c21.333 -15.667 46.166 -30 74.499 -43s63.166 -19.5 104.499 -19.5c60.667 0 107.5 16.5 140.5 49.5s49.5 81.833 49.5 146.5c0 30 -7.5 54.667 -22.5 74s-34.667 35.666 -59 48.999
s-52.166 25.166 -83.499 35.499s-63.333 21.5 -96 33.5s-64.667 26.167 -96 42.5s-59.166 37.666 -83.499 63.999s-44 58.666 -59 96.999s-22.5 85.5 -22.5 141.5c0 64.667 12.167 126.834 36.5 186.501s59.166 112.5 104.499 158.5s100.333 82.667 165 110
s137.334 41 218.001 41c41.333 0 81.5 -4.33301 120.5 -13s75.5 -20.667 109.5 -36s65 -33.5 93 -54.5s51.667 -43.833 71 -68.5zM1124 1796l-281.998 -204c-21.333 -15.333 -40.333 -26 -57 -32s-35.334 -9 -56.001 -9h-245l192 201c10 8.66699 19 16 27 22
s16.5 10.5 25.5 13.5s18.667 5.16699 29 6.5s23.166 2 38.499 2h328z" />
    <glyph glyph-name="sacute" unicode="&#x15b;" horiz-adv-x="790" 
d="M743 819c-9.33301 -12 -17.9961 -20.6719 -25.9961 -26.0049s-18.667 -8 -32 -8s-26.5 3 -39.5 9s-27 12.833 -42 20.5s-32 14.5 -51 20.5s-40.833 9 -65.5 9c-46 0 -78.833 -8.83301 -98.5 -26.5s-29.5 -40.5 -29.5 -68.5c0 -18 5.5 -33.333 16.5 -46s25.5 -24 43.5 -34
s38.5 -19.167 61.5 -27.5s46.5 -17.666 70.5 -27.999s47.5 -22.166 70.5 -35.499s43.5 -29.666 61.5 -48.999s32.5 -42.333 43.5 -69s16.5 -58.334 16.5 -95.001c0 -52 -10.333 -101.167 -31 -147.5s-50.334 -86.666 -89.001 -120.999s-85.5 -61.666 -140.5 -81.999
s-116.833 -30.5 -185.5 -30.5c-32.667 0 -65 3.33301 -97 10s-62.167 15.667 -90.5 27s-54.166 24.833 -77.499 40.5s-42.333 32.5 -57 50.5l76 114c9.33301 13.333 20.166 23.833 32.499 31.5s27.5 11.5 45.5 11.5c16.667 0 31 -4 43 -12l39 -26
c14 -9.33301 30.667 -18 50 -26s44.666 -12 75.999 -12c44 0 76.667 9.83301 98 29.5s32 42.834 32 69.501c0 20.667 -5.5 37.667 -16.5 51s-25.5 24.833 -43.5 34.5s-38.333 18.334 -61 26.001s-46 16.167 -70 25.5s-47.333 20.166 -70 32.499s-43 27.833 -61 46.5
s-32.5 41.667 -43.5 69s-16.5 60.333 -16.5 99c0 48 8.83301 94.667 26.5 140s44 85.5 79 120.5s78.5 63.167 130.5 84.5s112.667 32 182 32s131.166 -12 185.499 -36s99.166 -53.333 134.499 -88zM919.004 1473l-274 -263c-16 -15.333 -31.5 -25.833 -46.5 -31.5
s-33.5 -8.5 -55.5 -8.5h-178l154 245c12 18.667 26.167 33 42.5 43s39.5 15 69.5 15h288z" />
    <glyph glyph-name="Scaron" unicode="&#x160;" horiz-adv-x="1000" 
d="M942 1165c-11.333 -16 -22.8359 -27.665 -34.5029 -34.998s-25.5 -11 -41.5 -11c-15.333 0 -30.666 5 -45.999 15l-51.5 33c-19 12 -40.833 23 -65.5 33s-53.667 15 -87 15c-30.667 0 -57.5 -4.33301 -80.5 -13s-42.167 -20.667 -57.5 -36s-26.833 -33.333 -34.5 -54
s-11.5 -43.334 -11.5 -68.001c0 -26.667 7.5 -49 22.5 -67s35 -33.833 60 -47.5s53.167 -26.167 84.5 -37.5s63.5 -23.666 96.5 -36.999s65.333 -28.666 97 -45.999s60 -39 85 -65s45 -57.333 60 -94s22.5 -80.667 22.5 -132c0 -73.333 -12.667 -142.333 -38 -207
s-61.666 -121.167 -108.999 -169.5s-104.833 -86.666 -172.5 -114.999s-143.834 -42.5 -228.501 -42.5c-42 0 -84.167 4.66699 -126.5 14s-83 22.5 -122 39.5s-75.167 37.167 -108.5 60.5s-61.666 49.333 -84.999 78l116 152c8.66699 11.333 20 20.666 34 27.999
s28 11 42 11c18.667 0 36.834 -6.5 54.501 -19.5l58.5 -43c21.333 -15.667 46.166 -30 74.499 -43s63.166 -19.5 104.499 -19.5c60.667 0 107.5 16.5 140.5 49.5s49.5 81.833 49.5 146.5c0 30 -7.5 54.667 -22.5 74s-34.667 35.666 -59 48.999
s-52.166 25.166 -83.499 35.499s-63.333 21.5 -96 33.5s-64.667 26.167 -96 42.5s-59.166 37.666 -83.499 63.999s-44 58.666 -59 96.999s-22.5 85.5 -22.5 141.5c0 64.667 12.167 126.834 36.5 186.501s59.166 112.5 104.499 158.5s100.333 82.667 165 110
s137.334 41 218.001 41c41.333 0 81.5 -4.33301 120.5 -13s75.5 -20.667 109.5 -36s65 -33.5 93 -54.5s51.667 -43.833 71 -68.5zM307.997 1776h269.999l82 -67l8 -6c2.66699 -2 5.33398 -4.33301 8.00098 -7l9 7c2.66699 2 5.66699 4 9 6l96 67h270l-254 -225h-300z" />
    <glyph glyph-name="scaron" unicode="&#x161;" horiz-adv-x="790" 
d="M743 819c-9.33301 -12 -17.9961 -20.6719 -25.9961 -26.0049s-18.667 -8 -32 -8s-26.5 3 -39.5 9s-27 12.833 -42 20.5s-32 14.5 -51 20.5s-40.833 9 -65.5 9c-46 0 -78.833 -8.83301 -98.5 -26.5s-29.5 -40.5 -29.5 -68.5c0 -18 5.5 -33.333 16.5 -46s25.5 -24 43.5 -34
s38.5 -19.167 61.5 -27.5s46.5 -17.666 70.5 -27.999s47.5 -22.166 70.5 -35.499s43.5 -29.666 61.5 -48.999s32.5 -42.333 43.5 -69s16.5 -58.334 16.5 -95.001c0 -52 -10.333 -101.167 -31 -147.5s-50.334 -86.666 -89.001 -120.999s-85.5 -61.666 -140.5 -81.999
s-116.833 -30.5 -185.5 -30.5c-32.667 0 -65 3.33301 -97 10s-62.167 15.667 -90.5 27s-54.166 24.833 -77.499 40.5s-42.333 32.5 -57 50.5l76 114c9.33301 13.333 20.166 23.833 32.499 31.5s27.5 11.5 45.5 11.5c16.667 0 31 -4 43 -12l39 -26
c14 -9.33301 30.667 -18 50 -26s44.666 -12 75.999 -12c44 0 76.667 9.83301 98 29.5s32 42.834 32 69.501c0 20.667 -5.5 37.667 -16.5 51s-25.5 24.833 -43.5 34.5s-38.333 18.334 -61 26.001s-46 16.167 -70 25.5s-47.333 20.166 -70 32.499s-43 27.833 -61 46.5
s-32.5 41.667 -43.5 69s-16.5 60.333 -16.5 99c0 48 8.83301 94.667 26.5 140s44 85.5 79 120.5s78.5 63.167 130.5 84.5s112.667 32 182 32s131.166 -12 185.499 -36s99.166 -53.333 134.499 -88zM185.004 1457h206.001c11.333 0 21.833 -1.83301 31.5 -5.5
s17.167 -8.16699 22.5 -13.5l64 -78c3.33301 -3.33301 7 -7.5 11 -12.5s7.66699 -10.167 11 -15.5c4.66699 5.33301 9.5 10.333 14.5 15l13.5 13l82 78c5.33301 5.33301 13.666 9.83301 24.999 13.5s23 5.5 35 5.5h198l-252 -287h-282z" />
    <glyph glyph-name="Ydieresis" unicode="&#x178;" horiz-adv-x="1256" 
d="M799 558l-68.999 -558.002h-326l69 555l-375 902h290c28 0 49.833 -6.5 65.5 -19.5s27.167 -30.167 34.5 -51.5l140 -441c9.33301 -29.333 17.833 -57.666 25.5 -84.999s14.167 -53.666 19.5 -78.999c12.667 25.333 26.667 51.5 42 78.5l49 85.5l248 441
c10 18 24.667 34.333 44 49s42.666 22 69.999 22h270zM730.001 1663c0 -18.667 -3.66699 -36 -11 -52s-17.5 -30 -30.5 -42s-28.167 -21.333 -45.5 -28s-35.666 -10 -54.999 -10c-18 0 -35.167 3.33301 -51.5 10s-30.833 16 -43.5 28s-22.667 26 -30 42s-11 33.333 -11 52
s3.66699 36.5 11 53.5s17.333 31.667 30 44s27.167 22.166 43.5 29.499s33.5 11 51.5 11c19.333 0 37.666 -3.66699 54.999 -11s32.5 -17.166 45.5 -29.499s23.167 -27 30.5 -44s11 -34.833 11 -53.5zM1088 1663c0 -18.667 -3.66699 -36 -11 -52s-17.333 -30 -30 -42
s-27.5 -21.333 -44.5 -28s-35.167 -10 -54.5 -10s-37.333 3.33301 -54 10s-31.167 16 -43.5 28s-22.166 26 -29.499 42s-11 33.333 -11 52s3.66699 36.5 11 53.5s17.166 31.667 29.499 44s26.833 22.166 43.5 29.499s34.667 11 54 11s37.5 -3.66699 54.5 -11
s31.833 -17.166 44.5 -29.499s22.667 -27 30 -44s11 -34.833 11 -53.5z" />
    <glyph glyph-name="Zacute" unicode="&#x179;" horiz-adv-x="1120" 
d="M1212 1457l-14 -98c-2 -13.333 -6.16699 -26 -12.5 -38s-13.5 -23.667 -21.5 -35l-736 -1035h616l-32 -251h-1040l12 96c2 13.333 6.16699 26 12.5 38s13.5 23.667 21.5 35l737 1037h-583l32 251h1008zM1176 1795l-281.998 -204c-21.333 -15.333 -40.333 -26 -57 -32
s-35.334 -9 -56.001 -9h-245l192 201c10 8.66699 19 16 27 22s16.5 10.5 25.5 13.5s18.667 5.16699 29 6.5s23.166 2 38.499 2h328z" />
    <glyph glyph-name="zacute" unicode="&#x17a;" horiz-adv-x="892" 
d="M889 913c-2.66699 -21.333 -8.83105 -41.667 -18.498 -61s-20.167 -36 -31.5 -50l-448 -572h408l-28 -230h-776l16 126c1.33301 12.667 6.66602 28.5 15.999 47.5s20.666 37.167 33.999 54.5l452 579h-394l28 230h758zM949.003 1473l-274 -263
c-16 -15.333 -31.5 -25.833 -46.5 -31.5s-33.5 -8.5 -55.5 -8.5h-178l154 245c12 18.667 26.167 33 42.5 43s39.5 15 69.5 15h288z" />
    <glyph glyph-name="Zdotaccent" unicode="&#x17b;" horiz-adv-x="1120" 
d="M1212 1457l-14 -98c-2 -13.333 -6.16699 -26 -12.5 -38s-13.5 -23.667 -21.5 -35l-736 -1035h616l-32 -251h-1040l12 96c2 13.333 6.16699 26 12.5 38s13.5 23.667 21.5 35l737 1037h-583l32 251h1008zM908 1701c0 -22.667 -4.83301 -44.334 -14.5 -65.001
s-22.667 -38.667 -39 -54s-35.666 -27.666 -57.999 -36.999s-45.833 -14 -70.5 -14c-23.333 0 -45.5 4.66699 -66.5 14s-39.5 21.666 -55.5 36.999s-28.667 33.333 -38 54s-14 42.334 -14 65.001c0 24 4.66699 46.5 14 67.5s22 39.5 38 55.5s34.5 28.667 55.5 38
s43.167 14 66.5 14c24.667 0 48.167 -4.66699 70.5 -14s41.666 -22 57.999 -38s29.333 -34.5 39 -55.5s14.5 -43.5 14.5 -67.5z" />
    <glyph glyph-name="zdotaccent" unicode="&#x17c;" horiz-adv-x="892" 
d="M889 913c-2.66699 -21.333 -8.83105 -41.667 -18.498 -61s-20.167 -36 -31.5 -50l-448 -572h408l-28 -230h-776l16 126c1.33301 12.667 6.66602 28.5 15.999 47.5s20.666 37.167 33.999 54.5l452 579h-394l28 230h758zM745.003 1324c0 -24.667 -5 -48 -15 -70
s-23.667 -41.167 -41 -57.5s-37.5 -29.166 -60.5 -38.499s-47.5 -14 -73.5 -14c-25.333 0 -49 4.66699 -71 14s-41.5 22.166 -58.5 38.499s-30.333 35.5 -40 57.5s-14.5 45.333 -14.5 70s4.83301 48.167 14.5 70.5s23 41.666 40 57.999s36.5 29.333 58.5 39
s45.667 14.5 71 14.5c26 0 50.5 -4.83301 73.5 -14.5s43.167 -22.667 60.5 -39s31 -35.666 41 -57.999s15 -45.833 15 -70.5z" />
    <glyph glyph-name="Zcaron" unicode="&#x17d;" horiz-adv-x="1120" 
d="M1212 1457l-14 -98c-2 -13.333 -6.16699 -26 -12.5 -38s-13.5 -23.667 -21.5 -35l-736 -1035h616l-32 -251h-1040l12 96c2 13.333 6.16699 26 12.5 38s13.5 23.667 21.5 35l737 1037h-583l32 251h1008zM378 1775h269.999l82 -67l8 -6
c2.66699 -2 5.33398 -4.33301 8.00098 -7l9 7c2.66699 2 5.66699 4 9 6l96 67h270l-254 -225h-300z" />
    <glyph glyph-name="zcaron" unicode="&#x17e;" horiz-adv-x="892" 
d="M889 913c-2.66699 -21.333 -8.83105 -41.667 -18.498 -61s-20.167 -36 -31.5 -50l-448 -572h408l-28 -230h-776l16 126c1.33301 12.667 6.66602 28.5 15.999 47.5s20.666 37.167 33.999 54.5l452 579h-394l28 230h758zM215.003 1457h206.001
c11.333 0 21.833 -1.83301 31.5 -5.5s17.167 -8.16699 22.5 -13.5l64 -78c3.33301 -3.33301 7 -7.5 11 -12.5s7.66699 -10.167 11 -15.5c4.66699 5.33301 9.5 10.333 14.5 15l13.5 13l82 78c5.33301 5.33301 13.666 9.83301 24.999 13.5s23 5.5 35 5.5h198l-252 -287h-282z
" />
    <glyph glyph-name="florin" unicode="&#x192;" 
d="M760 730l-160.005 -662c-17.333 -72 -42.166 -133.833 -74.499 -185.5s-73.333 -94 -123 -127s-108.667 -57.333 -177 -73s-146.833 -23.5 -235.5 -23.5l20 151c4 30.667 14.333 53.334 31 68.001s41 22 73 22c48.667 0 88.834 13.167 120.501 39.5s55.5 72.5 71.5 138.5
l158 648l-98 20c-38 8 -57 27.667 -57 59c0 5.33301 0.333008 9.33301 1 12l14 118h192l34 138c16.667 67.333 41 126.5 73 177.5s72.833 93.833 122.5 128.5s108.834 60.667 177.501 78s147.667 26 237 26l-20 -159c-4 -30.667 -14.333 -52.167 -31 -64.5
s-41 -18.5 -73 -18.5c-49.333 0 -90.666 -13.333 -123.999 -40s-58.666 -72.334 -75.999 -137.001l-34 -129h276l-26 -205h-292z" />
    <glyph glyph-name="circumflex" unicode="&#x2c6;" horiz-adv-x="612" 
d="M746 1168l-198.001 -0.000976562c-11.333 0 -22.166 2 -32.499 6s-17.5 8.66699 -21.5 14l-64 75l-10.5 10.5c-3.66699 3.66699 -7.16699 7.83398 -10.5 12.501l-14.5 -12.5l-12.5 -10.5l-84 -75c-6 -5.33301 -14.5 -10 -25.5 -14s-22.5 -6 -34.5 -6h-206l252 287h282z
" />
    <glyph glyph-name="caron" unicode="&#x2c7;" horiz-adv-x="612" 
d="M68 1455h206.001c11.333 0 21.833 -1.83301 31.5 -5.5s17.167 -8.16699 22.5 -13.5l64 -78c3.33301 -3.33301 7 -7.5 11 -12.5s7.66699 -10.167 11 -15.5c4.66699 5.33301 9.5 10.333 14.5 15l13.5 13l82 78c5.33301 5.33301 13.666 9.83301 24.999 13.5s23 5.5 35 5.5
h198l-252 -287h-282z" />
    <glyph glyph-name="uni02C9" unicode="&#x2c9;" horiz-adv-x="612" 
d="M132 1387h574l-24 -184h-574z" />
    <glyph glyph-name="breve" unicode="&#x2d8;" horiz-adv-x="612" 
d="M390 1159c-51.333 0 -94.5 6.1709 -129.5 18.5039s-63.167 29.166 -84.5 50.499s-36.666 46.666 -45.999 75.999s-14 60.666 -14 93.999c0 9.33301 0.333008 18.833 1 28.5s1.66699 19.167 3 28.5h208c-2 -14 -3 -26.667 -3 -38c0 -25.333 6.33301 -44.333 19 -57
s36 -19 70 -19c20.667 0 37.667 2.5 51 7.5s24.166 12.167 32.499 21.5s14.666 21.166 18.999 35.499s7.5 30.833 9.5 49.5h208c-5.33301 -40 -15.166 -78 -29.499 -114s-35 -67.5 -62 -94.5s-61.167 -48.333 -102.5 -64s-91.333 -23.5 -150 -23.5z" />
    <glyph glyph-name="dotaccent" unicode="&#x2d9;" horiz-adv-x="612" 
d="M598 1322c0 -24.667 -5 -48 -15 -70s-23.667 -41.167 -41 -57.5s-37.5 -29.166 -60.5 -38.499s-47.5 -14 -73.5 -14c-25.333 0 -49 4.66699 -71 14s-41.5 22.166 -58.5 38.499s-30.333 35.5 -40 57.5s-14.5 45.333 -14.5 70s4.83301 48.167 14.5 70.5
s23 41.666 40 57.999s36.5 29.333 58.5 39s45.667 14.5 71 14.5c26 0 50.5 -4.83301 73.5 -14.5s43.167 -22.667 60.5 -39s31 -35.666 41 -57.999s15 -45.833 15 -70.5z" />
    <glyph glyph-name="ring" unicode="&#x2da;" horiz-adv-x="612" 
d="M164 1334c0 33.333 6.66699 63.5 20 90.5s31 50.167 53 69.5s47.667 34.166 77 44.499s60 15.5 92 15.5c32.667 0 64 -5.16699 94 -15.5s56.5 -25.166 79.5 -44.499s41.167 -42.5 54.5 -69.5s20 -57.167 20 -90.5c0 -32.667 -6.66699 -62.167 -20 -88.5
s-31.5 -48.833 -54.5 -67.5s-49.5 -33.167 -79.5 -43.5s-61.333 -15.5 -94 -15.5c-32 0 -62.667 5.16699 -92 15.5s-55 24.833 -77 43.5s-39.667 41.167 -53 67.5s-20 55.833 -20 88.5zM330 1334c0 -23.333 6.5 -42.5 19.5 -57.5s33.167 -22.5 60.5 -22.5
c24 0 43 7.5 57 22.5s21 34.167 21 57.5c0 25.333 -7 45.333 -21 60s-33 22 -57 22c-27.333 0 -47.5 -7.33301 -60.5 -22s-19.5 -34.667 -19.5 -60z" />
    <glyph glyph-name="ogonek" unicode="&#x2db;" horiz-adv-x="612" 
d="M356 -171c14 0 22.001 -6.33203 24.001 -18.999l30 -107c-23.333 -14 -51.833 -25.833 -85.5 -35.5s-68.5 -14.5 -104.5 -14.5c-62.667 0 -109.334 12.667 -140.001 38s-46 57 -46 95c0 40 13.833 79.167 41.5 117.5s73.167 74.5 136.5 108.5l152 -12
c-28 -15.333 -51.667 -34.333 -71 -57s-29 -48.334 -29 -77.001c0 -13.333 3.33301 -24.333 10 -33s16.667 -13 30 -13c18 0 29.667 1.5 35 4.5s11 4.5 17 4.5z" />
    <glyph glyph-name="tilde" unicode="&#x2dc;" horiz-adv-x="612" 
d="M514 1381c14 0 25.832 4.49902 35.499 13.499s16.5 27.167 20.5 54.5h180c-5.33301 -40.667 -15.5 -77.5 -30.5 -110.5s-33.667 -61 -56 -84s-47.5 -40.833 -75.5 -53.5s-57.333 -19 -88 -19c-23.333 0 -44.333 4 -63 12s-35.834 16.667 -51.501 26l-42.5 26
c-12.667 8 -24.334 12 -35.001 12c-14 0 -25.667 -4.83301 -35 -14.5s-15.666 -28.167 -18.999 -55.5h-182c4.66699 40.667 14.834 77.5 30.501 110.5s34.667 61.333 57 85s47.5 41.834 75.5 54.501s57 19 87 19c22.667 0 43.5 -4 62.5 -12s36.333 -16.667 52 -26l42.5 -26
c12.667 -8 24.334 -12 35.001 -12z" />
    <glyph glyph-name="hungarumlaut" unicode="&#x2dd;" horiz-adv-x="612" 
d="M562 1471l-216 -263c-14 -16.667 -29 -27.5 -45 -32.5s-35 -7.5 -57 -7.5h-122l136 245c12 18.667 26.167 33 42.5 43s39.5 15 69.5 15h192zM918 1471l-274.002 -263c-15.333 -15.333 -30.333 -25.833 -45 -31.5s-33 -8.5 -55 -8.5h-142l192 245
c6.66699 8.66699 13.667 16.667 21 24s15.333 13.5 24 18.5s18.334 8.83301 29.001 11.5s23.334 4 38.001 4h212z" />
    <glyph glyph-name="pi" unicode="&#x3c0;" horiz-adv-x="1240" 
d="M1272 1035l-16 -116.003c-3.33301 -24 -13.833 -44.833 -31.5 -62.5s-40.5 -26.5 -68.5 -26.5h-68l-102 -830h-298l101 830h-251l-68 -550c-5.33301 -43.333 -15.166 -83.166 -29.499 -119.499s-34.5 -67.5 -60.5 -93.5s-58.167 -46.333 -96.5 -61
s-84.166 -22 -137.499 -22c-23.333 0 -48.833 2.83301 -76.5 8.5s-53.5 15.167 -77.5 28.5l24 121c2.66699 14 8 25.667 16 35s24 14 48 14c17.333 0 31.5 1.66699 42.5 5s19.833 8.83301 26.5 16.5s11.667 17.334 15 29.001s6 25.834 8 42.501l67 546h-155l14 104
c1.33301 10.667 5.16602 22 11.499 34s14.833 23 25.5 33s23.167 18.167 37.5 24.5s30.166 9.5 47.499 9.5h1052z" />
    <glyph glyph-name="endash" unicode="&#x2013;" horiz-adv-x="1072" 
d="M186 708h756l-26 -205h-756z" />
    <glyph glyph-name="emdash" unicode="&#x2014;" horiz-adv-x="1592" 
d="M186 708h1276l-26 -205h-1276z" />
    <glyph glyph-name="quoteleft" unicode="&#x2018;" horiz-adv-x="438" 
d="M206 955c-16 32.667 -27.832 65.3291 -35.499 97.9961s-11.5 65.334 -11.5 98.001c0 78.667 21.833 154.834 65.5 228.501s108.167 141.167 193.5 202.5l85 -54c6 -3.33301 10.667 -8.16602 14 -14.499s5 -12.833 5 -19.5c0 -9.33301 -2.33301 -17.333 -7 -24
s-12 -15.667 -22 -27c-6 -7.33301 -13.833 -17.5 -23.5 -30.5s-18.834 -28.5 -27.501 -46.5s-16.167 -38.333 -22.5 -61s-9.5 -47 -9.5 -73c0 -20.667 2.5 -42.167 7.5 -64.5s13.167 -45.833 24.5 -70.5c2.66699 -5.33301 4 -11.666 4 -18.999c0 -12 -4.66699 -23 -14 -33
s-22 -17.667 -38 -23z" />
    <glyph glyph-name="quoteright" unicode="&#x2019;" horiz-adv-x="438" 
d="M436 1543c16 -32.667 27.833 -65.3291 35.5 -97.9961s11.5 -65.334 11.5 -98.001c0 -78.667 -21.833 -154.834 -65.5 -228.501s-108.167 -141.167 -193.5 -202.5l-85 54c-6 3.33301 -10.667 8.16602 -14 14.499s-5 12.833 -5 19.5c0 9.33301 2.33301 17.333 7 24
s11.667 15.667 21 27c6.66699 6.66699 14.667 16.667 24 30s18.5 29 27.5 47s16.667 38.333 23 61s9.5 47 9.5 73c0 20.667 -2.5 42.167 -7.5 64.5s-13.167 45.833 -24.5 70.5c-2.66699 5.33301 -4 11.666 -4 18.999c0 12 4.66699 23 14 33s22 17.667 38 23z" />
    <glyph glyph-name="quotesinglbase" unicode="&#x201a;" horiz-adv-x="488" 
d="M298 324c16 -32.667 27.833 -65.3291 35.5 -97.9961s11.5 -65.334 11.5 -98.001c0 -78.667 -21.833 -154.834 -65.5 -228.501s-108.167 -141.167 -193.5 -202.5l-85 54c-6 3.33301 -10.667 8.16602 -14 14.499s-5 12.833 -5 19.5c0 9.33301 2.33301 17.333 7 24
s11.667 15.667 21 27c6.66699 6.66699 14.667 16.667 24 30s18.5 29 27.5 47s16.667 38.333 23 61s9.5 47 9.5 73c0 20.667 -2.5 42.167 -7.5 64.5s-13.167 45.833 -24.5 70.5c-2.66699 5.33301 -4 11.666 -4 18.999c0 12 4.66699 23 14 33s22 17.667 38 23z" />
    <glyph glyph-name="quotedblleft" unicode="&#x201c;" horiz-adv-x="774" 
d="M206 955c-16 32.667 -27.832 65.3291 -35.499 97.9961s-11.5 65.334 -11.5 98.001c0 78.667 21.833 154.834 65.5 228.501s108.167 141.167 193.5 202.5l85 -54c6 -3.33301 10.667 -8.16602 14 -14.499s5 -12.833 5 -19.5c0 -9.33301 -2.33301 -17.333 -7 -24
s-12 -15.667 -22 -27c-6 -7.33301 -13.833 -17.5 -23.5 -30.5s-18.834 -28.5 -27.501 -46.5s-16.167 -38.333 -22.5 -61s-9.5 -47 -9.5 -73c0 -20.667 2.5 -42.167 7.5 -64.5s13.167 -45.833 24.5 -70.5c2.66699 -5.33301 4 -11.666 4 -18.999c0 -12 -4.66699 -23 -14 -33
s-22 -17.667 -38 -23zM542.001 954.995c-16 32.667 -27.832 65.3291 -35.499 97.9961s-11.5 65.334 -11.5 98.001c0 78.667 21.833 154.834 65.5 228.501s108.167 141.167 193.5 202.5l85 -54c6 -3.33301 10.667 -8.16602 14 -14.499s5 -12.833 5 -19.5
c0 -9.33301 -2.33301 -17.333 -7 -24s-12 -15.667 -22 -27c-6 -7.33301 -13.833 -17.5 -23.5 -30.5s-18.834 -28.5 -27.501 -46.5s-16.167 -38.333 -22.5 -61s-9.5 -47 -9.5 -73c0 -20.667 2.5 -42.167 7.5 -64.5s13.167 -45.833 24.5 -70.5
c2.66699 -5.33301 4 -11.666 4 -18.999c0 -12 -4.66699 -23 -14 -33s-22 -17.667 -38 -23z" />
    <glyph glyph-name="quotedblright" unicode="&#x201d;" horiz-adv-x="774" 
d="M436 1543c16 -32.667 27.833 -65.3291 35.5 -97.9961s11.5 -65.334 11.5 -98.001c0 -78.667 -21.833 -154.834 -65.5 -228.501s-108.167 -141.167 -193.5 -202.5l-85 54c-6 3.33301 -10.667 8.16602 -14 14.499s-5 12.833 -5 19.5c0 9.33301 2.33301 17.333 7 24
s11.667 15.667 21 27c6.66699 6.66699 14.667 16.667 24 30s18.5 29 27.5 47s16.667 38.333 23 61s9.5 47 9.5 73c0 20.667 -2.5 42.167 -7.5 64.5s-13.167 45.833 -24.5 70.5c-2.66699 5.33301 -4 11.666 -4 18.999c0 12 4.66699 23 14 33s22 17.667 38 23zM770 1543
c16 -32.667 27.833 -65.3291 35.5 -97.9961s11.5 -65.334 11.5 -98.001c0 -78.667 -21.833 -154.834 -65.5 -228.501s-108.167 -141.167 -193.5 -202.5l-85 54c-6 3.33301 -10.667 8.16602 -14 14.499s-5 12.833 -5 19.5c0 9.33301 2.33301 17.333 7 24s11.667 15.667 21 27
c6.66699 6.66699 14.667 16.667 24 30s18.5 29 27.5 47s16.667 38.333 23 61s9.5 47 9.5 73c0 20.667 -2.5 42.167 -7.5 64.5s-13.167 45.833 -24.5 70.5c-2.66699 5.33301 -4 11.666 -4 18.999c0 12 4.66699 23 14 33s22 17.667 38 23z" />
    <glyph glyph-name="quotedblbase" unicode="&#x201e;" horiz-adv-x="774" 
d="M298 324c16 -32.667 27.833 -65.3291 35.5 -97.9961s11.5 -65.334 11.5 -98.001c0 -78.667 -21.833 -154.834 -65.5 -228.501s-108.167 -141.167 -193.5 -202.5l-85 54c-6 3.33301 -10.667 8.16602 -14 14.499s-5 12.833 -5 19.5c0 9.33301 2.33301 17.333 7 24
s11.667 15.667 21 27c6.66699 6.66699 14.667 16.667 24 30s18.5 29 27.5 47s16.667 38.333 23 61s9.5 47 9.5 73c0 20.667 -2.5 42.167 -7.5 64.5s-13.167 45.833 -24.5 70.5c-2.66699 5.33301 -4 11.666 -4 18.999c0 12 4.66699 23 14 33s22 17.667 38 23zM634 324.005
c16 -32.667 27.833 -65.3291 35.5 -97.9961s11.5 -65.334 11.5 -98.001c0 -78.667 -21.833 -154.834 -65.5 -228.501s-108.167 -141.167 -193.5 -202.5l-85 54c-6 3.33301 -10.667 8.16602 -14 14.499s-5 12.833 -5 19.5c0 9.33301 2.33301 17.333 7 24s11.667 15.667 21 27
c6.66699 6.66699 14.667 16.667 24 30s18.5 29 27.5 47s16.667 38.333 23 61s9.5 47 9.5 73c0 20.667 -2.5 42.167 -7.5 64.5s-13.167 45.833 -24.5 70.5c-2.66699 5.33301 -4 11.666 -4 18.999c0 12 4.66699 23 14 33s22 17.667 38 23z" />
    <glyph glyph-name="dagger" unicode="&#x2020;" horiz-adv-x="1068" 
d="M98 947c2 16 6.66699 31.332 14 45.999s17.333 27.667 30 39s28.167 20.5 46.5 27.5s39.5 10.5 63.5 10.5c16.667 0 34.5 -1.66699 53.5 -5s38.5 -7.33301 58.5 -12l61.5 -15c21 -5.33301 41.833 -10 62.5 -14l18 451c22 11.333 46.5 20.333 73.5 27s55.167 10 84.5 10
s56.5 -3.33301 81.5 -10s47.167 -15.667 66.5 -27l-92 -451c22 4 44 8.66699 66 14s43.667 10.333 65 15s41.833 8.66699 61.5 12s38.167 5 55.5 5c22 0 40.667 -2.83301 56 -8.5s28 -13.5 38 -23.5s17.333 -21.333 22 -34s7 -26 7 -40v-8.5
c0 -2.33301 -0.333008 -5.16602 -1 -8.49902l-12 -96h-380l-42 -352l-62 -815c-23.333 -12.667 -48.5 -22 -75.5 -28s-55.167 -9 -84.5 -9s-56.5 3 -81.5 9s-47.167 15.333 -66.5 28l138 815l42 352h-380z" />
    <glyph glyph-name="daggerdbl" unicode="&#x2021;" horiz-adv-x="1068" 
d="M20 308l379.999 -0.00195312l67 543h-381l12 96c2 16 6.66699 31.333 14 46s17.333 27.667 30 39s28.167 20.5 46.5 27.5s39.5 10.5 63.5 10.5c16.667 0 34.5 -1.66699 53.5 -5s38.5 -7.33301 58.5 -12l61.5 -15c21 -5.33301 41.833 -10 62.5 -14l18 451
c22 11.333 46.5 20.333 73.5 27s55.167 10 84.5 10s56.5 -3.33301 81.5 -10s47.167 -15.667 66.5 -27l-92 -451c22 4 44 8.66699 66 14s43.667 10.333 65 15s41.833 8.66699 61.5 12s38.167 5 55.5 5c22 0 40.667 -2.83301 56 -8.5s28 -13.5 38 -23.5s17.333 -21.333 22 -34
s7 -26 7 -40v-8.5c0 -2.33301 -0.333008 -5.16602 -1 -8.49902l-12 -96h-381l-67 -543h382l-12 -96c-2 -16 -6.66699 -31.667 -14 -47s-17.333 -28.666 -30 -39.999s-28.167 -20.5 -46.5 -27.5s-39.5 -10.5 -63.5 -10.5c-17.333 0 -35.333 1.66699 -54 5
s-38.167 7.33301 -58.5 12s-41 9.66699 -62 15s-41.833 10 -62.5 14l-15 -449c-23.333 -12.667 -48.5 -22 -75.5 -28s-55.167 -9 -84.5 -9s-56.5 3 -81.5 9s-47.167 15.333 -66.5 28l91 449c-22 -4 -44 -8.66699 -66 -14l-64.5 -15c-21 -4.66699 -41.333 -8.66699 -61 -12
s-38.167 -5 -55.5 -5c-43.333 0 -74.666 10.5 -93.999 31.5s-29 46.167 -29 75.5v9c0 2.66699 0.333008 5.66699 1 9z" />
    <glyph glyph-name="bullet" unicode="&#x2022;" 
d="M100 592c0 66.667 13 129.334 39 188.001s61.333 110 106 154s97 78.667 157 104s124 38 192 38c68.667 0 133 -12.667 193 -38s112.5 -60 157.5 -104s80.5 -95.333 106.5 -154s39 -121.334 39 -188.001c0 -66 -13 -128.333 -39 -187s-61.5 -109.667 -106.5 -153
s-97.5 -77.666 -157.5 -102.999s-124.333 -38 -193 -38c-68 0 -132 12.667 -192 38s-112.333 59.666 -157 102.999s-80 94.333 -106 153s-39 121 -39 187z" />
    <glyph glyph-name="ellipsis" unicode="&#x2026;" horiz-adv-x="1576" 
d="M24 157c0 24 4.5 46.333 13.5 67s21.333 38.667 37 54s34.167 27.5 55.5 36.5s44.666 13.5 69.999 13.5c24.667 0 47.667 -4.5 69 -13.5s40 -21.167 56 -36.5s28.5 -33.333 37.5 -54s13.5 -43 13.5 -67s-4.5 -46.5 -13.5 -67.5s-21.5 -39.167 -37.5 -54.5
s-34.667 -27.333 -56 -36s-44.333 -13 -69 -13c-25.333 0 -48.666 4.33301 -69.999 13s-39.833 20.667 -55.5 36s-28 33.5 -37 54.5s-13.5 43.5 -13.5 67.5zM576 157c0 24 4.5 46.333 13.5 67s21.333 38.667 37 54s34.167 27.5 55.5 36.5s44.666 13.5 69.999 13.5
c24.667 0 47.667 -4.5 69 -13.5s40 -21.167 56 -36.5s28.5 -33.333 37.5 -54s13.5 -43 13.5 -67s-4.5 -46.5 -13.5 -67.5s-21.5 -39.167 -37.5 -54.5s-34.667 -27.333 -56 -36s-44.333 -13 -69 -13c-25.333 0 -48.666 4.33301 -69.999 13s-39.833 20.667 -55.5 36
s-28 33.5 -37 54.5s-13.5 43.5 -13.5 67.5zM1128 157c0 24 4.5 46.333 13.5 67s21.333 38.667 37 54s34.167 27.5 55.5 36.5s44.666 13.5 69.999 13.5c24.667 0 47.667 -4.5 69 -13.5s40 -21.167 56 -36.5s28.5 -33.333 37.5 -54s13.5 -43 13.5 -67s-4.5 -46.5 -13.5 -67.5
s-21.5 -39.167 -37.5 -54.5s-34.667 -27.333 -56 -36s-44.333 -13 -69 -13c-25.333 0 -48.666 4.33301 -69.999 13s-39.833 20.667 -55.5 36s-28 33.5 -37 54.5s-13.5 43.5 -13.5 67.5z" />
    <glyph glyph-name="perthousand" unicode="&#x2030;" horiz-adv-x="2202" 
d="M772 1155c0 -62 -10.8281 -118.331 -32.4951 -168.998s-50 -94 -85 -130s-74.833 -63.833 -119.5 -83.5s-90.334 -29.5 -137.001 -29.5c-42.667 0 -81.334 7.5 -116.001 22.5s-64.334 36.167 -89.001 63.5s-43.667 60 -57 98s-20 80 -20 126c0 62 9.66699 118.5 29 169.5
s45.666 94.833 78.999 131.5s72.666 65 117.999 85s94 30 146 30c42.667 0 81.5 -7.5 116.5 -22.5s65 -36.333 90 -64s44.167 -60.834 57.5 -99.501s20 -81.334 20 -128.001zM542.005 1153c0 48 -7.16895 81.832 -21.502 101.499s-33.166 29.5 -56.499 29.5
c-18 0 -34.333 -4.16699 -49 -12.5s-27 -21.666 -37 -39.999s-17.833 -42.166 -23.5 -71.499s-8.5 -65 -8.5 -107c0 -46 6.83301 -78 20.5 -96s32.167 -27 55.5 -27c17.333 0 33.333 3.66699 48 11s27.334 19.666 38.001 36.999s19 40.333 25 69s9 64 9 106zM1222 1411
c11.333 10.667 24.5 20.666 39.5 29.999s35.167 14 60.5 14h218l-1190 -1413c-11.333 -11.333 -24.5 -21.166 -39.5 -29.499s-33.167 -12.5 -54.5 -12.5h-222zM1454 394c0 -62 -10.8281 -118.334 -32.4951 -169.001s-50 -94 -85 -130s-74.833 -63.833 -119.5 -83.5
s-90.334 -29.5 -137.001 -29.5c-42.667 0 -81.334 7.5 -116.001 22.5s-64.334 36.167 -89.001 63.5s-43.667 60 -57 98s-20 79.667 -20 125c0 62.667 9.66699 119.667 29 171s45.666 95.333 78.999 132s72.666 65 117.999 85s94 30 146 30c42.667 0 81.5 -7.66699 116.5 -23
s65 -36.666 90 -63.999s44.167 -60.5 57.5 -99.5s20 -81.833 20 -128.5zM1224.01 391.999c0 48.667 -7.16895 82.3301 -21.502 100.997s-33.166 28 -56.499 28c-18 0 -34.333 -4 -49 -12s-27 -21.167 -37 -39.5s-17.833 -42.166 -23.5 -71.499s-8.5 -65 -8.5 -107
c0 -45.333 6.83301 -77.166 20.5 -95.499s32.167 -27.5 55.5 -27.5c17.333 0 33.333 3.66699 48 11s27.334 19.833 38.001 37.5s19 40.834 25 69.501s9 64 9 106zM2144.01 393.995c0 -62 -10.8291 -118.334 -32.4961 -169.001s-50 -94 -85 -130
s-74.833 -63.833 -119.5 -83.5s-90.334 -29.5 -137.001 -29.5c-42.667 0 -81.334 7.5 -116.001 22.5s-64.334 36.167 -89.001 63.5s-43.667 60 -57 98s-20 79.667 -20 125c0 62.667 9.66699 119.667 29 171s45.666 95.333 78.999 132s72.666 65 117.999 85s94 30 146 30
c42.667 0 81.334 -7.66699 116.001 -23s64.5 -36.666 89.5 -63.999s44.333 -60.5 58 -99.5s20.5 -81.833 20.5 -128.5zM1914.01 391.994c0 48.667 -7.16895 82.3301 -21.502 100.997s-33.166 28 -56.499 28c-18 0 -34.333 -4 -49 -12s-27 -21.167 -37 -39.5
s-17.833 -42.166 -23.5 -71.499s-8.5 -65 -8.5 -107c0 -45.333 6.83301 -77.166 20.5 -95.499s32.167 -27.5 55.5 -27.5c16.667 0 32.334 3.66699 47.001 11s27.5 19.833 38.5 37.5s19.5 40.834 25.5 69.501s9 64 9 106z" />
    <glyph glyph-name="guilsinglleft" unicode="&#x2039;" horiz-adv-x="626" 
d="M111 525l6.00098 36.999l292 400l92 -44c25.333 -12 38 -29.333 38 -52c0 -9.33301 -2 -18.666 -6 -27.999s-9.33301 -19.333 -16 -30l-132 -219c-6 -10 -12.5 -18.833 -19.5 -26.5s-14.167 -14.167 -21.5 -19.5c5.33301 -6 10.666 -12.667 15.999 -20
s9.66602 -15.666 12.999 -24.999l80 -219c2.66699 -7.33301 4.83398 -14.333 6.50098 -21s2.5 -13.334 2.5 -20.001c0 -31.333 -17.667 -55 -53 -71l-104 -44z" />
    <glyph glyph-name="guilsinglright" unicode="&#x203a;" horiz-adv-x="626" 
d="M532 562l-4.00195 -36.9971l-292 -402l-92 44c-26 12.667 -39 30.667 -39 54c0 9.33301 1.83301 18.666 5.5 27.999s8.83398 19.333 15.501 30l134 219c5.33301 9.33301 11.5 17.666 18.5 24.999s14.167 13.666 21.5 18.999c-12 12 -21.333 27.667 -28 47l-82 219
c-5.33301 14 -8 26.667 -8 38c0 15.333 4.33301 29.333 13 42s22.334 22.667 41.001 30l104 44z" />
    <glyph glyph-name="fraction" unicode="&#x2044;" horiz-adv-x="756" 
d="M74 85c-23.333 -33.333 -47.834 -55.833 -73.501 -67.5s-54.5 -17.5 -86.5 -17.5h-122l951 1357c22.667 32 47.834 56.333 75.501 73s59.5 25 95.5 25h122z" />
    <glyph glyph-name="Euro" unicode="&#x20ac;" 
d="M96 946l116.001 0.00195312c26 80.667 60 153.167 102 217.5s90.5 119.166 145.5 164.499s115.167 80.166 180.5 104.499s134 36.5 206 36.5c46.667 0 89.667 -4.83301 129 -14.5s75 -23.5 107 -41.5s60.333 -39.5 85 -64.5s45.667 -52.833 63 -83.5l-120 -111
c-9.33301 -8.66699 -18.666 -16.167 -27.999 -22.5s-22 -9.5 -38 -9.5c-10 0 -18.833 2.5 -26.5 7.5s-15.334 11 -23.001 18l-24.5 23.5c-8.66699 8.66699 -19.334 16.5 -32.001 23.5s-28 13 -46 18s-40 7.5 -66 7.5c-68.667 0 -129.834 -23.333 -183.501 -70
s-95.5 -114.667 -125.5 -204h477l-10 -90c-1.33301 -8 -4.5 -16.167 -9.5 -24.5s-11.5 -15.666 -19.5 -21.999s-17.333 -11.666 -28 -15.999s-22.334 -6.5 -35.001 -6.5h-412c-2 -15.333 -3.83301 -31.166 -5.5 -47.499s-3.16699 -32.833 -4.5 -49.5h398l-12 -88
c-1.33301 -8.66699 -4.5 -17.334 -9.5 -26.001s-11.5 -16.334 -19.5 -23.001s-17.167 -12 -27.5 -16s-21.5 -6 -33.5 -6h-295c8 -98 31.5 -171.833 70.5 -221.5s89.833 -74.5 152.5 -74.5c43.333 0 78.166 5.83301 104.499 17.5s48.333 24.667 66 39
s32.834 27.333 45.501 39s27.334 17.5 44.001 17.5c9.33301 0 16.833 -1 22.5 -3s11.5 -6.66699 17.5 -14l116 -117c-55.333 -74.667 -122.5 -131.334 -201.5 -170.001s-165.833 -58 -260.5 -58c-78 0 -146.333 13.5 -205 40.5s-108.167 64.667 -148.5 113
s-71.5 105.833 -93.5 172.5s-35.333 139.667 -40 219h-117l20 159h100c1.33301 16.667 2.83301 33 4.5 49s3.83398 32 6.50098 48h-99z" />
    </font>
</defs>
</svg>
