<svg id="Слой_1" data-name="Слой 1" xmlns="http://www.w3.org/2000/svg" xmlns:xlink="http://www.w3.org/1999/xlink" viewBox="0 0 529.82 659.68"><defs><style>.cls-1{fill:url(#Безымянный_градиент_8);}.cls-2{fill:#fcee23;}.cls-3{fill:url(#Безымянный_градиент_2);}.cls-4{fill:url(#Безымянный_градиент_8-2);}</style><linearGradient id="Безымянный_градиент_8" x1="49.13" y1="308.01" x2="490.01" y2="308.01" gradientUnits="userSpaceOnUse"><stop offset="0" stop-color="#f89521"/><stop offset="1" stop-color="#ee1e5a"/></linearGradient><radialGradient id="Безымянный_градиент_2" cx="276.02" cy="581.77" r="191.7" gradientTransform="translate(-3 294.18) scale(1 0.4)" gradientUnits="userSpaceOnUse"><stop offset="0" stop-opacity="0.6"/><stop offset="0.4" stop-color="#010101" stop-opacity="0.3"/><stop offset="1" stop-color="#fff" stop-opacity="0"/></radialGradient><linearGradient id="Безымянный_градиент_8-2" x1="49.54" y1="307.54" x2="488.24" y2="307.54" xlink:href="#Безымянный_градиент_8"/></defs><title>sun</title><circle class="cls-1" cx="269.57" cy="308.01" r="220.44"/><path class="cls-2" d="M400.26,265.77c-6.26-24.72-32.54-68.84-54.76-88.87-33.69-30.37-75.63-40.54-126.95-22.07-37.14,13.36-76.4,49.94-92.3,84.24-17,36.72-20.93,67-4.82,111.82,15.73,43.77,51.11,72.92,88.57,93.26,25.34,13.77,76.35,18.76,99.7,13.19,39.18-9.34,70.85-34.16,87.75-70.15C414.52,350.84,411.26,309.21,400.26,265.77ZM308.31,229.4c6.45-5.3,20.47-4.06,25.4.3,6.5,5.75,3.79,19.8,3.79,19.8s-7.34-13.11-16.18-13.26c-9.37-.15-19,14.2-19,14.2S300.22,236.05,308.31,229.4Zm-97.22,70.41s-16.71-6.67-23.7-.47c-6.57,5.81-4.14,21.59-4.14,21.59s-9.77-6.16-10-14.68c-.18-6.65,4.28-12.33,5.38-13.5A22.3,22.3,0,0,1,192.17,287C203.36,286.57,211.09,299.81,211.09,299.81ZM215,362.68l-1.56-6.13C325.78,336.34,366.23,282,366.23,282S328.29,353.71,215,362.68Z" transform="translate(-3 -1.96)"/><path class="cls-2" d="M304.27,100.94l-7.67-1.8-7-3.21a10.26,10.26,0,0,1-4.3-9.93L306.61,8.78c.89-3,5.09-7.9,11.18-6.61L328.05,5.8,337.59,10c4.09,1.25,5.17,7,3.52,11.34L314.59,96.24C313.46,99.22,308.8,101.72,304.27,100.94Z" transform="translate(-3 -1.96)"/><path class="cls-2" d="M387,163.44c1.56,6.77,7.83,9.12,9.7,9.1,6.87-.09,40.37-29.36,41.7-38.52.8-5.46-5.71-12.34-12.2-12.81C419.51,120.72,386.3,160.56,387,163.44Z" transform="translate(-3 -1.96)"/><path class="cls-2" d="M426.74,236.84c-3.48-4.86,0-18.56,11-19.1,7-.35,13.21,6.26,13.23,11.06C451,239.33,430.39,242,426.74,236.84Z" transform="translate(-3 -1.96)"/><path class="cls-2" d="M455.18,313.5c-2.81-6.53.36-16.46,8.14-19.41,9.16-3.47,19.32,4.77,19.72,11.58.49,8.53-14.16,17.2-22.54,13.46A11,11,0,0,1,455.18,313.5Z" transform="translate(-3 -1.96)"/><path class="cls-2" d="M454.32,389.31c-5.29-3.5-14.81,9.8-15.41,14.31C437.29,415.87,478.53,442.8,484,439s5.41-7.4,9.31-11.27c1.45-1.45,3.6-1.74,4.5-4.07,0,0,1.45-1.95,0-3.13C493.44,417,477.09,404.33,454.32,389.31Z" transform="translate(-3 -1.96)"/><path class="cls-2" d="M371.86,467.27c11-5,26.41,9.62,27.93,21.47.81,6.29-4.42,11.51-10.44,12.33-10.91,1.47-21-15-21.59-25.7C367.65,473.54,368.89,468.63,371.86,467.27Z" transform="translate(-3 -1.96)"/><path class="cls-2" d="M239.72,506.82c1.53-4.42,16.74-7.88,20.07.23,13.66,33.21,27.62,75.81,26.09,94.35-.31,3.78-1.4,7.28-3.79,7.63-12.44,1.81-30.22,2.33-31.1-3.29C245.59,571.24,237.55,513.12,239.72,506.82Z" transform="translate(-3 -1.96)"/><path class="cls-2" d="M112.83,501.89c13.17-2.83,36.06-37.79,31.6-46-3.14-5.79-10-7.16-11-7.19-5-.15-37.57,40-35.52,45.92C99.38,498.72,110.52,502.38,112.83,501.89Z" transform="translate(-3 -1.96)"/><path class="cls-2" d="M11,396c5.55,3.44,76.7-21.36,76.71-31.3,0-10.68-4.29-15.2-6.25-15.2-13.7,0-73.31,16.73-75.43,19.43C.63,375.88,2.49,390.68,11,396Z" transform="translate(-3 -1.96)"/><path class="cls-2" d="M36.47,255.92c4.11,8.68,28.63,5.13,33.91,1.52,7.7-5.25,8.38-17.45,3-23.43-4.78-5.32-28.83-7.88-33.49-3.76C36,233.7,33.59,249.83,36.47,255.92Z" transform="translate(-3 -1.96)"/><path class="cls-2" d="M102.3,173.65c1.43.58,9.4-4.19,6.82-9.69-3.76-8-64.64-75.4-72.15-77.4C30.31,84.79,25.62,94,25.44,96.2,24.61,106.67,86.46,167.2,102.3,173.65Z" transform="translate(-3 -1.96)"/><path class="cls-2" d="M181.64,114.39c5.54,2.91,17.13-3.17,17.83-7.4,2.24-13.42-6.22-48.23-19.67-51.36-5.71-1.32-13,.19-17.22,5S175,110.9,181.64,114.39Z" transform="translate(-3 -1.96)"/><ellipse class="cls-3" cx="273.02" cy="526.89" rx="256.8" ry="132.79"/><circle class="cls-4" cx="268.89" cy="307.54" r="219.35"/><path class="cls-2" d="M399,265.52c-6.23-24.6-32.38-68.5-54.49-88.43-33.53-30.22-75.26-40.34-126.32-22-37,13.29-76,49.69-91.84,83.82-16.94,36.54-20.83,66.67-4.8,111.27,15.66,43.55,50.86,72.55,88.13,92.79,25.22,13.71,76,18.67,99.2,13.13,39-9.29,70.5-34,87.32-69.8C413.14,350.16,409.89,308.75,399,265.52Zm-92.13-35.7a18.77,18.77,0,0,1,22.89-.22c7.87,6.26,5.78,19.55,5.78,19.55s-7.43-13-16.23-13.11c-9.32-.15-17.77,14.22-17.77,14.22S298.77,236.43,306.82,229.82Zm-96.1,69.57s-16.64-6.64-23.59-.47c-6.53,5.79-3.51,21.48-3.51,21.48s-9.57-6.46-9.8-14.94a18,18,0,0,1,4.9-12.38,19.62,19.62,0,0,1,12.84-5.84C202.7,286.81,210.72,299.39,210.72,299.39ZM214.56,362,213,355.84c111.82-20.1,152.07-74.2,152.07-74.2S327.33,353,214.56,362Z" transform="translate(-3 -1.96)"/><path class="cls-2" d="M303.43,101.5l-7.63-1.79-7-3.19a10.23,10.23,0,0,1-4.28-9.88L305.76,9.8c.89-3,5.06-7.86,11.12-6.58l10.21,3.62,9.5,4.21c4.06,1.24,5.14,7,3.5,11.28L313.7,96.83C312.58,99.79,307.94,102.28,303.43,101.5Z" transform="translate(-3 -1.96)"/><path class="cls-2" d="M385.72,163.7c1.54,6.73,7.78,9.07,9.65,9.05,6.83-.09,40.17-29.22,41.49-38.32.79-5.44-5.69-12.28-12.14-12.76C418.1,121.19,385.06,160.83,385.72,163.7Z" transform="translate(-3 -1.96)"/><path class="cls-2" d="M425.29,236.73c-3.45-4.84,0-18.46,10.91-19,7-.35,13.15,6.22,13.16,11C449.4,239.21,428.93,241.84,425.29,236.73Z" transform="translate(-3 -1.96)"/><path class="cls-2" d="M453.6,313c-2.8-6.5.36-16.37,8.1-19.31,9.11-3.46,19.22,4.74,19.61,11.52.49,8.49-14.08,17.12-22.42,13.39A10.94,10.94,0,0,1,453.6,313Z" transform="translate(-3 -1.96)"/><path class="cls-2" d="M452.74,388.44c-5.27-3.48-14.74,9.76-15.33,14.25-1.62,12.19,39.42,39,44.84,35.19s5.38-7.36,9.26-11.21c1.45-1.44,3.59-1.73,4.48-4.05,0,0,1.45-1.95,0-3.12C491.67,416,475.4,403.39,452.74,388.44Z" transform="translate(-3 -1.96)"/><path class="cls-2" d="M370.69,466c11-5,26.28,9.57,27.79,21.37.81,6.25-4.4,11.45-10.39,12.26-10.86,1.47-20.86-14.93-21.49-25.57C366.5,472.26,367.74,467.37,370.69,466Z" transform="translate(-3 -1.96)"/><path class="cls-2" d="M239.21,505.37c1.52-4.39,16.65-7.84,20,.23,13.59,33,27.48,75.44,26,93.89-.31,3.76-1.4,7.24-3.78,7.59-12.38,1.8-30.07,2.32-30.94-3.27C245.05,569.48,237,511.64,239.21,505.37Z" transform="translate(-3 -1.96)"/><path class="cls-2" d="M112.94,500.47c13.11-2.82,35.89-37.6,31.45-45.78-3.13-5.77-10-7.13-10.9-7.16-5-.15-37.39,39.78-35.34,45.7C99.56,497.31,110.64,501,112.94,500.47Z" transform="translate(-3 -1.96)"/><path class="cls-2" d="M11.66,395.1C17.18,398.53,88,373.85,88,364c0-10.63-4.27-15.12-6.22-15.12-13.63,0-72.95,16.64-75,19.32C1.3,375.08,3.15,389.81,11.66,395.1Z" transform="translate(-3 -1.96)"/><path class="cls-2" d="M37,255.71c4.09,8.64,28.49,5.11,33.75,1.52,7.65-5.23,8.33-17.37,3-23.31-4.75-5.3-28.68-7.84-33.32-3.74C36.51,233.61,34.1,249.66,37,255.71Z" transform="translate(-3 -1.96)"/><path class="cls-2" d="M102.47,173.86c1.41.57,9.35-4.18,6.78-9.65-3.75-8-64.32-75-71.79-77-6.63-1.76-11.3,7.37-11.48,9.59C25.15,107.21,86.7,167.43,102.47,173.86Z" transform="translate(-3 -1.96)"/><path class="cls-2" d="M181.41,114.89c5.51,2.89,17-3.16,17.74-7.36,2.23-13.36-6.18-48-19.57-51.11-5.68-1.32-13,.19-17.13,5S174.79,111.42,181.41,114.89Z" transform="translate(-3 -1.96)"/></svg>